<?xml version="1.0" encoding="utf-8"?>
<!-- Generator: Adobe Illustrator 20.1.0, SVG Export Plug-In . SVG Version: 6.00 Build 0)  -->
<svg version="1.1" id="Layer_1" xmlns="http://www.w3.org/2000/svg" xmlns:xlink="http://www.w3.org/1999/xlink" x="0px" y="0px"
	 viewBox="0 0 171.5 82.1" style="enable-background:new 0 0 171.5 82.1;" xml:space="preserve">
<style type="text/css">
	.st0{clip-path:url(#SVGID_2_);fill:url(#SVGID_3_);}
	.st1{clip-path:url(#SVGID_5_);fill:url(#SVGID_6_);}
</style>
<g>
	<defs>
		<path id="SVGID_1_" d="M30.8,50.7v6.4h0.8v-2.8h2.3v-0.7h-2.3v-2.1h2.3v-0.7H30.8z M37.7,51.4h0.8c0.4,0,0.7,0.1,1,0.4
			c0.3,0.3,0.4,0.6,0.4,1c0,0.4-0.1,0.8-0.4,1c-0.3,0.3-0.6,0.4-1,0.4h-0.8V51.4z M36.9,50.7v6.4h0.8V55h0.7l1.3,2.1h0.9l-1.4-2.2
			c0.2-0.1,0.5-0.2,0.8-0.5c0.4-0.4,0.6-0.9,0.6-1.5c0-0.6-0.2-1.1-0.6-1.5c-0.4-0.4-0.8-0.6-1.3-0.6H36.9z M43.8,50.7v6.4h3.5v-0.7
			h-2.7v-2.2h2.7v-0.7h-2.7v-2.1h2.7v-0.7H43.8z M55,50.7v5.1l-3.6-5.1h-0.8v6.4h0.8v-5l3.5,5h0.9v-6.4H55z M71,50.7v2.8h-2.6v-2.8
			h-0.8v6.4h0.8v-2.8H71v2.8h0.8v-6.4H71z M109.2,50.7l-2,2.7l-2.1-2.7h-0.9v6.4h0.8v-5.2l2.1,2.8l2.1-2.8v5.2h0.8v-6.4H109.2z
			 M113.2,50.7v6.4h3.5v-0.7H114v-2.2h2.7v-0.7H114v-2.1h2.7v-0.7H113.2z M119.6,50.7v0.7h1.5v5.7h0.8v-5.7h1.5v-0.7H119.6z
			 M126.4,57.1h0.8v-6.4h-0.8V57.1z M59.8,51.6c-0.6,0.6-1,1.4-1,2.3c0,0.9,0.3,1.7,1,2.3c0.6,0.6,1.4,1,2.4,1c0.9,0,1.7-0.3,2.4-1
			L64,55.7c-0.6,0.5-1.2,0.8-1.8,0.8c-0.7,0-1.3-0.2-1.8-0.7c-0.5-0.5-0.7-1.1-0.7-1.8c0-0.7,0.2-1.3,0.7-1.8
			c0.5-0.5,1.1-0.7,1.8-0.7c0.6,0,1.2,0.3,1.8,0.8l0.6-0.5c-0.7-0.7-1.5-1-2.4-1C61.3,50.7,60.5,51,59.8,51.6 M80.3,51.6
			c-0.6,0.6-1,1.4-1,2.3c0,0.9,0.3,1.7,1,2.3c0.6,0.6,1.4,1,2.4,1c0.9,0,1.7-0.3,2.4-1l-0.6-0.5c-0.6,0.5-1.2,0.8-1.8,0.8
			c-0.7,0-1.3-0.2-1.8-0.7c-0.5-0.5-0.7-1.1-0.7-1.8c0-0.7,0.2-1.3,0.7-1.8c0.5-0.5,1.1-0.7,1.8-0.7c0.6,0,1.2,0.3,1.8,0.8l0.6-0.5
			c-0.7-0.7-1.5-1-2.4-1C81.7,50.7,80.9,51,80.3,51.6 M98.2,51.1c-0.3,0.3-0.4,0.6-0.4,1c0,0.4,0.1,0.7,0.4,1
			c0.3,0.3,0.6,0.5,1.1,0.6c0.3,0.1,0.6,0.3,0.9,0.6c0.2,0.2,0.4,0.5,0.4,0.9c0,0.4-0.1,0.7-0.4,0.9c-0.2,0.2-0.5,0.4-0.9,0.4
			c-0.3,0-0.6-0.1-0.8-0.4c-0.2-0.2-0.3-0.6-0.4-1l-0.8,0.3c0.1,0.5,0.3,0.9,0.6,1.2c0.4,0.4,0.9,0.6,1.4,0.6c0.6,0,1-0.2,1.4-0.6
			c0.4-0.4,0.6-0.8,0.6-1.4c0-0.5-0.2-1-0.6-1.4c-0.3-0.3-0.8-0.6-1.3-0.8c-0.3-0.1-0.5-0.3-0.6-0.4c-0.1-0.2-0.2-0.3-0.2-0.6
			c0-0.2,0.1-0.4,0.2-0.5c0.1-0.1,0.3-0.2,0.5-0.2c0.2,0,0.4,0.1,0.5,0.2c0.1,0.1,0.2,0.2,0.2,0.5l0.7-0.3c-0.1-0.3-0.2-0.5-0.4-0.6
			c-0.3-0.3-0.7-0.4-1.1-0.4C98.9,50.7,98.5,50.8,98.2,51.1 M131.3,51.6c-0.6,0.6-1,1.4-1,2.3c0,0.9,0.3,1.7,1,2.3
			c0.6,0.6,1.4,1,2.4,1c0.9,0,1.7-0.3,2.4-1l-0.6-0.5c-0.6,0.5-1.2,0.8-1.8,0.8c-0.7,0-1.3-0.2-1.8-0.7c-0.5-0.5-0.7-1.1-0.7-1.8
			c0-0.7,0.2-1.3,0.7-1.8c0.5-0.5,1.1-0.7,1.8-0.7c0.6,0,1.2,0.3,1.8,0.8l0.6-0.5c-0.7-0.7-1.5-1-2.4-1
			C132.7,50.7,132,51,131.3,51.6 M139.8,51.1c-0.3,0.3-0.4,0.6-0.4,1c0,0.4,0.1,0.7,0.4,1c0.3,0.3,0.6,0.5,1.1,0.6
			c0.3,0.1,0.6,0.3,0.9,0.6c0.2,0.2,0.4,0.5,0.4,0.9c0,0.4-0.1,0.7-0.4,0.9c-0.2,0.2-0.5,0.4-0.9,0.4c-0.3,0-0.6-0.1-0.8-0.4
			c-0.2-0.2-0.3-0.6-0.4-1l-0.8,0.3c0.1,0.5,0.3,0.9,0.6,1.2c0.4,0.4,0.9,0.6,1.4,0.6c0.6,0,1-0.2,1.4-0.6c0.4-0.4,0.6-0.8,0.6-1.4
			c0-0.5-0.2-1-0.6-1.4c-0.3-0.3-0.8-0.6-1.3-0.8c-0.3-0.1-0.5-0.3-0.6-0.4c-0.1-0.2-0.2-0.3-0.2-0.6c0-0.2,0.1-0.4,0.2-0.5
			c0.1-0.1,0.3-0.2,0.5-0.2c0.2,0,0.4,0.1,0.5,0.2c0.1,0.1,0.2,0.2,0.2,0.5l0.7-0.3c-0.1-0.3-0.2-0.5-0.4-0.6
			c-0.3-0.3-0.7-0.4-1.1-0.4C140.4,50.7,140.1,50.8,139.8,51.1 M89.4,55.8c-0.5-0.5-0.7-1.1-0.7-1.8c0-0.7,0.2-1.3,0.7-1.8
			c0.5-0.5,1.1-0.7,1.8-0.7c0.7,0,1.3,0.2,1.8,0.7c0.5,0.5,0.7,1.1,0.7,1.8c0,0.7-0.3,1.3-0.7,1.8c-0.5,0.5-1.1,0.7-1.8,0.7
			C90.5,56.5,89.9,56.3,89.4,55.8 M88.8,51.6c-0.6,0.6-1,1.4-1,2.3c0,0.9,0.3,1.7,1,2.3c0.6,0.6,1.4,1,2.4,1c0.9,0,1.7-0.3,2.4-1
			c0.6-0.6,1-1.4,1-2.3c0-0.9-0.3-1.7-1-2.3c-0.6-0.6-1.4-1-2.4-1C90.2,50.7,89.4,51,88.8,51.6 M71,34.5c1.4,0,2.4,1,2.6,2.6h-5.2
			C68.6,35.5,69.6,34.5,71,34.5 M65,38.1L65,38.1c0,3.8,2.7,6.3,6.3,6.3c2.2,0,3.8-0.9,5-2.3l-2-1.7c-0.9,0.9-1.8,1.2-2.9,1.2
			c-1.5,0-2.6-0.8-3-2.4h8.4c0-0.3,0-0.6,0-0.9c0-3.4-1.9-6.6-5.9-6.6C67.4,31.8,65,34.6,65,38.1 M90.1,31.4h3.5
			c1.7,0,2.7,0.8,2.7,2.3v0c0,1.3-1,2.2-2.7,2.2h-3.5V31.4z M86.6,28.3v15.8h3.5V39h2.7l3.4,5.1h4.1l-3.9-5.7c2-0.7,3.4-2.4,3.4-4.9
			v0c0-1.5-0.5-2.7-1.4-3.6c-1-1-2.6-1.6-4.6-1.6H86.6z M137.7,28.3v15.8h12.1V41h-8.6v-3.3h7.5v-3.1h-7.5v-3.2h8.5v-3.1H137.7z
			 M122.8,32.8L122.8,32.8c0,3.2,2.1,4.1,5.2,4.9c2.6,0.7,3.2,1.1,3.2,2v0c0,0.9-0.9,1.5-2.3,1.5c-1.8,0-3.3-0.7-4.7-1.9l-2.1,2.5
			c1.9,1.7,4.3,2.5,6.7,2.5c3.4,0,5.8-1.8,5.8-4.9v0c0-2.8-1.8-3.9-5-4.8c-2.7-0.7-3.4-1-3.4-2.1v0c0-0.8,0.7-1.4,2-1.4
			c1.3,0,2.7,0.6,4.1,1.6l1.8-2.6c-1.6-1.3-3.6-2-5.9-2C125.1,28.1,122.8,30,122.8,32.8 M27.6,36.2L27.6,36.2c0-2.8,1.9-5,4.7-5
			c2.8,0,4.8,2.3,4.8,5v0c0,2.7-1.9,4.9-4.7,4.9C29.6,41.2,27.6,38.9,27.6,36.2 M24,36.2L24,36.2c0,4.5,3.5,8.2,8.4,8.2
			s8.4-3.7,8.4-8.2v0c0-4.5-3.5-8.1-8.4-8.1C27.5,28,24,31.7,24,36.2 M53.2,38.1L53.2,38.1c0-2.1,1.4-3.4,3-3.4
			c1.6,0,2.9,1.3,2.9,3.3v0c0,2-1.3,3.3-2.9,3.3C54.6,41.4,53.2,40.1,53.2,38.1 M59.1,27.6v6c-0.8-1-1.9-1.8-3.8-1.8
			c-2.9,0-5.5,2.2-5.5,6.3v0c0,4,2.7,6.3,5.5,6.3c1.8,0,2.9-0.8,3.8-2v1.7h3.4V27.6H59.1z M31.9,22.2c-2.9,2.4-4.2,3.8-4,4
			c0.2,0.2,1.7-0.4,4.3-1.8c2.9,1.5,4.4,2.1,4.7,1.8c0.3-0.3-1.2-1.6-4.3-4c-0.1-0.1-0.2-0.1-0.3-0.1C32.1,22,32,22.1,31.9,22.2
			 M7.4,68.2l63.3,5.3L8.5,79.5L7.4,68.2z M97.9,73.4l66.5-6.4l-1,11.9L97.9,73.4z M3,65.4l0.8-9.8l0.9,9.9L3,65.4z M168,54.7
			l0.9,9.5l-1.7,0.2L168,54.7z M2.7,18l1.9-0.2L3.7,28.5L2.7,18z M166.8,17.2l1.9,0.2l-0.9,10.2L166.8,17.2z M7.2,65.7L5,42.1
			L7,17.6l77-7.4l80.3,6.8l2.3,24.2l-2,23.4l-80.3,7.7L7.2,65.7z M8.2,3.8l62.3,5.2l-63.2,6L8.2,3.8z M97.6,8.9L163,2.7l1.1,11.9
			L97.6,8.9z M84,7.8L6,1.2L4.8,15.3L0,15.8l2.5,26.3L0.4,67.6L5,68l1.4,14.1l78-7.5l81.3,6.9l1.2-14.7l4.6-0.4l-2.4-25.2l2.2-26
			l-4.7-0.4L165.2,0L84,7.8z"/>
	</defs>
	<clipPath id="SVGID_2_">
		<use xlink:href="#SVGID_1_"  style="overflow:visible;"/>
	</clipPath>
	
		<linearGradient id="SVGID_3_" gradientUnits="userSpaceOnUse" x1="0" y1="82.137" x2="1" y2="82.137" gradientTransform="matrix(171.515 0 0 -171.515 0 14128.7979)">
		<stop  offset="0" style="stop-color:#FAF4A2"/>
		<stop  offset="0.1012" style="stop-color:#F1EA9B"/>
		<stop  offset="0.2626" style="stop-color:#DBD88C"/>
		<stop  offset="0.4632" style="stop-color:#B8BD76"/>
		<stop  offset="0.5044" style="stop-color:#B1B771"/>
		<stop  offset="0.6533" style="stop-color:#AC9C57"/>
		<stop  offset="0.9802" style="stop-color:#A06128"/>
		<stop  offset="1" style="stop-color:#9F5E26"/>
	</linearGradient>
	<rect y="0" class="st0" width="171.5" height="82.1"/>
</g>
<g>
	<defs>
		<path id="SVGID_4_" d="M112.7,41.7c-0.2,0.1-0.3,0.2-0.5,0.2c-0.7,0.2-1.4,0.2-2.1,0.1c-0.5,0-1-0.1-1.4-0.1
			c0.1,0.4,0.3,0.7,0.6,0.9c0.8,0.6,1.6,0.6,2.5,0.6c0,0,0.1,0,0.1,0c0.3-0.2,0.5-0.1,0.8,0c0.3,0.1,0.5,0.1,0.8-0.1
			c0.3-0.2,0.6-0.5,0.9-0.8c0.2-0.2,0.4-0.5,0.6-0.8c-0.5,0-0.9,0-1.3,0c-0.1,0-0.3,0-0.4,0c-0.1,0-0.2-0.1-0.2-0.1
			C112.9,41.7,112.8,41.7,112.7,41.7 M117.8,41.3c-0.6,0.2-1.3,0.4-1.9,0.5c-0.1,0-0.2,0.1-0.3,0.3c-0.6,1-1.4,1.7-2.6,2
			c-0.4,0.1-0.8,0.1-1.2,0.2c0.2,0.1,0.4,0.3,0.7,0.4c0.3,0.1,0.5,0.2,0.8,0c0.6,0.4,1.1,0.1,1.6-0.1c0.6-0.3,0.7-0.8,0.7-1.5
			c0.1,0.1,0.2,0.2,0.2,0.3c0.2,0.3,0.5,0.4,0.8,0.2c0.1-0.1,0.2-0.2,0.3-0.3c0.1-0.2,0.2-0.4,0.3-0.5c0.3-0.5,0.5-0.9,0.8-1.4
			C118,41.2,117.9,41.2,117.8,41.3 M103.9,38.5c0,0.2,0,0.5,0,0.7c0,0.6,0,1.2,0.3,1.7c0.2,0.4,0.5,0.7,1,0.8c0,0,0.1,0,0.1,0
			c-0.1,0.5,0.1,0.7,0.5,0.8c0.1,0,0.1,0.1,0.2,0.2c0.1,0.4,0.2,0.7,0.7,0.7c0,0,0.1,0.1,0.1,0.1c0.2,0.3,0.5,0.4,0.8,0.4
			c0.2,0,0.3,0,0.5,0c0.1,0.3,0.4,0.4,0.7,0.4c0.4,0,0.8-0.1,1.2-0.1c0.2,0,0.4-0.1,0.7-0.2c-0.1,0-0.1-0.1-0.1-0.1
			c-1.5-0.4-2.5-1.4-3.1-2.8c0-0.1-0.1-0.2-0.2-0.2c-0.7-0.6-1.3-1.2-2-1.8C104.8,38.9,104.4,38.7,103.9,38.5
			C104,38.5,103.9,38.5,103.9,38.5 M106.8,37.8c0.2,0.6,0.4,1.2,0.6,1.7c0.1,0.2,0.3,0.4,0.4,0.7c0,0.1,0.1,0.1,0.2,0.1
			c0.2,0,0.3,0.1,0.4,0.3c0,0.2,0.1,0.3,0.1,0.5c0,0.2,0.1,0.3,0.2,0.3c0.2,0.1,0.4,0.1,0.7,0.1c0.7,0,1.4-0.1,2.1-0.3c0,0,0,0,0,0
			c-0.1,0-0.1-0.1-0.2-0.1c-0.7-0.4-1.5-0.8-2.1-1.3c-0.6-0.6-1.1-1.2-1-2.1c0,0-0.1-0.1-0.1-0.1c-0.2-0.1-0.4-0.2-0.7-0.2
			c-0.1,0-0.2,0-0.3,0C106.8,37.1,106.7,37.4,106.8,37.8 M112.3,37.1c-0.1,0-0.1,0-0.2,0.1c-0.1,0.2-0.3,0.3-0.6,0.3
			c-0.3,0-0.5,0.1-0.8,0c-0.5-0.1-1-0.2-1.5-0.2c0,0,0.1,0.1,0.1,0.1c0.9,0.3,1.8,0.6,2.7,0.9c0.4,0.1,0.8,0.1,1.2,0.2
			c0.2,0,0.2-0.1,0.1-0.2c-0.2-0.2-0.3-0.5-0.5-0.7C112.7,37.2,112.5,37.1,112.3,37.1L112.3,37.1z M115.5,36.7
			c-0.4,0.3-0.7,0.7-1,1.1c-0.1,0.1-0.1,0.2-0.1,0.2c0,0.4-0.2,0.8-0.6,0.9c-0.2,0.1-0.4,0.1-0.6,0.2c-0.8,0.1-1.5,0-2.3-0.1
			c-0.3-0.1-0.6-0.1-0.9-0.2c-0.1,0-0.3,0.1-0.5,0.1c0.1,0.1,0.1,0.3,0.3,0.4c0.6,0.4,1.1,0.8,1.7,1.2c0.3,0.2,0.7,0.3,1,0.3
			c0.2,0,0.3,0,0.5-0.1c0.3-0.1,0.7-0.2,1-0.2c0.4,0,0.7-0.1,0.9-0.4c0.3-0.4,0.6-0.9,0.9-1.3c0,0,0-0.1,0.1-0.1
			c0.2-0.5,0.4-1.1,0.2-1.7c-0.1-0.3-0.2-0.4-0.3-0.4C115.8,36.5,115.7,36.6,115.5,36.7 M119.3,36.1c-0.1,0.4-0.2,0.7-0.4,1.1
			c-0.5,1-1.3,1.7-2.2,2.3c-0.2,0.1-0.4,0.3-0.6,0.4c-0.5,0.5-1.1,0.8-1.8,1.1c-0.1,0-0.1,0-0.2,0.1c1.3,0.3,2.6,0.2,3.3-0.5
			c0,0,0.1,0.1,0.1,0.1c0.1,0.1,0.2,0.1,0.3,0c0.1-0.2,0.3-0.3,0.4-0.5c0.1-0.4,0.3-0.7,0.5-1c0.1-0.2,0.3-0.4,0.4-0.5
			c-0.2-0.2-0.2-0.3,0-0.4c0.2-0.1,0.3-0.3,0.3-0.6c0.1-0.6,0-1.1-0.1-1.7C119.3,36,119.3,36.1,119.3,36.1 M109.4,35.8
			c-0.1,0.2,0,0.3,0.2,0.4c0.1,0,0.2,0,0.4,0.1v0.3c0.1-0.1,0.2-0.1,0.3-0.1c-0.3-0.3-0.6-0.7-0.7-1.2
			C109.6,35.4,109.5,35.6,109.4,35.8 M111.5,33.9c-0.4,0.1-0.7,0.2-1,0.5c0.9,0.3,1,1,0.9,1.8c0.3-0.3,0.4-0.7,0.6-1
			c0.1-0.3,0.1-0.6,0-1C111.9,34,111.8,33.9,111.5,33.9C111.5,33.9,111.5,33.9,111.5,33.9 M117.3,33.9c0.1,0.7-0.1,1.4-0.3,2.1
			c0,0.2-0.1,0.3,0,0.5c0,0,0,0.1,0,0.2c0,0.3,0,0.5-0.1,0.8c-0.1,0.5-0.2,0.9-0.3,1.4c0.1,0,0.2-0.1,0.3-0.1
			c0.3-0.2,0.6-0.5,0.9-0.8c0.4-0.4,0.7-0.8,0.7-1.4c0-0.2,0.1-0.3,0.2-0.5c0.2-0.2,0.1-0.5,0.1-0.7c-0.2-0.6-0.6-1.1-1-1.5
			c-0.2-0.1-0.3-0.3-0.5-0.4C117.3,33.6,117.3,33.7,117.3,33.9 M112.7,33.8c-0.3,0.6,0,1.2,0.4,1.7c0.2,0.2,0.3,0.4,0.5,0.6
			c0.2,0.4,0.3,0.8,0.5,1.2c0.1-0.2,0.1-0.3,0.2-0.4c0.1-0.6,0.2-1.3,0.1-1.9c-0.1-0.6-0.3-1.1-0.8-1.4c-0.2-0.2-0.4-0.2-0.5-0.2
			C112.9,33.3,112.8,33.4,112.7,33.8 M109.7,32.7c-0.5,0.2-1,0.5-1.5,0.9c-0.1,0.1-0.1,0.1-0.2,0c-0.3-0.2-0.6-0.2-0.9,0
			c-0.4,0.4-0.7,0.8-0.9,1.4c0,0.1,0,0.3,0,0.4c0,0.1,0.1,0.2,0.1,0.3c0.1,0.5,0.4,0.8,0.9,0.9c0.5,0.1,0.9,0,1.4-0.2
			c-0.3-0.6-0.2-1.1,0-1.6c0.3-0.5,0.7-1,1.2-1.3c0.3-0.3,0.6-0.5,1-0.8c-0.1-0.1-0.2-0.1-0.4-0.2c-0.1,0-0.2,0-0.2,0
			C110.2,32.5,109.9,32.6,109.7,32.7 M110.5,30.5c-0.1,0-0.3,0-0.4,0.1c-0.3,0.2-0.5,0.5-0.7,0.8c-0.2,0.3-0.1,0.4,0.2,0.4
			c0.2,0,0.4,0,0.6,0c0.5,0,0.9,0.1,1.3,0.4c0.1,0.1,0.3,0.1,0.4,0.1c0.8-0.2,1.5-0.1,2.1,0.5c0.3,0.3,0.6,0.7,0.8,1.2
			c0.3,0.7,0.4,1.4,0.5,2.2c0.1-0.1,0.1-0.1,0.2-0.1c0.6-0.5,0.8-1.1,0.9-1.8c0.1-1-0.2-2-0.5-3c-0.1-0.3-0.3-0.5-0.6-0.7
			c-0.5-0.3-0.9-0.3-1.5-0.4c-0.2,0-0.5,0-0.7,0C112.2,30.3,111.4,30.4,110.5,30.5 M104.2,30.5c-0.2,0.2-0.5,0.4-0.4,0.8
			c0,0.1-0.1,0.2-0.1,0.2c-0.1,0.1-0.3,0.2-0.4,0.3c-0.2,0.1-0.4,0.2-0.6,0.4c0,0,0,0,0.1,0c0,0.1,0,0.2,0,0.2
			c-0.1,0.2-0.1,0.4-0.2,0.5c-0.1,0.2-0.2,0.5-0.2,0.7c-0.1,1.1,0.1,2.1,0.7,3c0.3,0.4,0.6,0.8,1,1c0-0.1,0-0.1-0.1-0.1
			c-0.3-0.6-0.5-1.3-0.6-1.9c-0.1-0.8,0.1-1.6,0.6-2.2c0.1-0.2,0.3-0.3,0.4-0.5c0.4-0.6,0.7-1.1,1-1.7c0.3-0.4,0.5-0.8,0.8-1.3
			c-0.1,0-0.2,0-0.4,0C105.1,30,104.6,30.1,104.2,30.5 M116.3,29.4c-0.4,0-0.8,0.1-1.1,0.3c0.5,0.2,0.8,0.6,1,1
			c0.2,0.5,0.4,1,0.6,1.5c0,0.1,0.1,0.2,0.2,0.2c0.4,0.1,0.8,0.3,1.1,0.6c0.9,0.7,1.4,1.7,1.8,2.8c0.1,0.2,0.1,0.3,0.2,0.5
			c0,0,0,0,0,0c0,0,0-0.1,0.1-0.1c0.6-1.1,0.6-2.3,0.3-3.4c-0.2-0.7-0.6-1.3-1.1-1.7c-0.5-0.4-1-0.7-1.5-1.1
			c-0.4-0.3-0.9-0.5-1.4-0.5C116.4,29.4,116.3,29.4,116.3,29.4 M107.4,29.4c-0.7,0.2-1.1,0.9-1.3,1.5c-0.1,0.3-0.1,0.6-0.3,0.8
			c-0.3,0.7-0.9,1.3-1.4,1.9c-0.4,0.4-0.6,1.1-0.3,1.7c0,0.1,0,0.1,0,0.2c-0.1,0.4,0,0.8,0.1,1.2c0.3,0.8,0.8,1.3,1.4,1.9
			c0.3,0.2,0.5,0.4,0.8,0.6c0-0.1,0-0.1,0-0.2c0-0.1,0-0.1-0.1-0.2c-0.2-0.7-0.3-1.3,0-2c0.1-0.1,0.1-0.2,0-0.4
			c-0.8-1.2-0.7-2.4,0.3-3.4c0.5-0.5,1.1-0.9,1.7-1.2c0.1,0,0.2-0.1,0.2-0.2c0.2-0.5,0.5-0.9,0.9-1.2c0.4-0.3,0.8-0.5,1.3-0.8
			c-0.3-0.2-0.6-0.3-0.9-0.5c-0.3-0.1-0.6-0.2-0.9-0.2C108.5,29.1,107.9,29.3,107.4,29.4 M109.2,26.9c-0.3,0.2-0.5,0.5-0.8,0.7
			c-0.1,0.1-0.2,0.3-0.4,0.2c0,0-0.1,0-0.1,0c-0.3,0.3-0.5,0.6-0.6,1c0.1,0,0.2-0.1,0.3-0.1c0.6-0.2,1.3-0.3,2-0.2
			c0.8,0.1,1.4,0.4,1.9,1.1c0,0,0,0,0,0c0.9-0.3,1.9-0.3,2.9-0.4c0-0.1,0-0.1,0-0.2c-0.3-0.8-0.8-1.4-1.6-1.8
			c-0.9-0.4-1.8-0.5-2.8-0.4c0,0-0.1,0-0.1,0c-0.1-0.1-0.2-0.2-0.3-0.2C109.4,26.8,109.3,26.8,109.2,26.9"/>
	</defs>
	<clipPath id="SVGID_5_">
		<use xlink:href="#SVGID_4_"  style="overflow:visible;"/>
	</clipPath>
	
		<linearGradient id="SVGID_6_" gradientUnits="userSpaceOnUse" x1="0" y1="82.137" x2="1" y2="82.137" gradientTransform="matrix(8.7524 -15.1596 -15.1596 -8.7524 1351.9894 762.6459)">
		<stop  offset="0" style="stop-color:#B0B1BA"/>
		<stop  offset="0.15" style="stop-color:#B0B1BA"/>
		<stop  offset="0.4765" style="stop-color:#FCE3EE"/>
		<stop  offset="0.7483" style="stop-color:#B2B2BB"/>
		<stop  offset="0.756" style="stop-color:#B0B1BA"/>
		<stop  offset="0.8521" style="stop-color:#9F9FAA"/>
		<stop  offset="1" style="stop-color:#83838E"/>
	</linearGradient>
	<polygon class="st1" points="94.2,40.4 106.7,18.7 128.6,31.3 116,53 	"/>
</g>
</svg>
