<?xml version="1.0" encoding="utf-8"?>
<!-- Generator: Adobe Illustrator 23.0.1, SVG Export Plug-In . SVG Version: 6.00 Build 0)  -->
<svg version="1.1" id="Layer_1" xmlns="http://www.w3.org/2000/svg" xmlns:xlink="http://www.w3.org/1999/xlink" x="0px" y="0px"
	 viewBox="-49 169.19 512 455.61" style="enable-background:new -49 169.19 512 455.61;" xml:space="preserve">
<path class="st0" d="M463,397c0-10.82-6.01-20.55-15.69-25.4l-38.12-19.06l38.12-19.06c0,0,0,0,0,0
	c9.68-4.85,15.69-14.58,15.69-25.4c0-10.82-6.01-20.55-15.69-25.4L232.09,175.08c-15.71-7.85-34.47-7.85-50.18,0L-33.31,282.69
	C-42.99,287.53-49,297.26-49,308.08c0,10.82,6.01,20.55,15.69,25.4l38.12,19.06l-38.13,19.06C-42.99,376.45-49,386.18-49,397
	c0,10.82,6.01,20.55,15.69,25.4l38.12,19.06l-38.12,19.06C-42.98,465.35-49,475.08-49,485.9c0,10.83,6.01,20.56,15.69,25.41
	l215.21,107.61c7.86,3.93,16.47,5.89,25.09,5.89c8.62,0,17.24-1.96,25.1-5.89l215.21-107.61c9.68-4.85,15.7-14.58,15.69-25.41
	c0-10.82-6.02-20.55-15.69-25.38l-38.12-19.06l38.13-19.06C456.99,417.55,463,407.82,463,397z M-22.77,312.43
	c-2.34-1.17-2.69-3.23-2.69-4.35s0.35-3.18,2.68-4.34l215.21-107.6c4.56-2.28,9.57-3.42,14.57-3.42c5,0,10.01,1.14,14.57,3.42
	l215.21,107.6c2.34,1.17,2.69,3.22,2.69,4.35s-0.35,3.18-2.69,4.35l-215.2,107.6c-9.12,4.56-20.02,4.56-29.14,0L-22.77,312.43z
	 M436.78,481.58c2.33,1.16,2.68,3.22,2.68,4.34c0,1.12-0.35,3.18-2.68,4.35l-215.21,107.6c-9.12,4.56-20.02,4.56-29.14,0
	l-215.21-107.6c-2.34-1.17-2.69-3.23-2.69-4.35c0-1.12,0.35-3.17,2.68-4.34l53.91-26.96L181.91,530c7.86,3.93,16.47,5.89,25.09,5.89
	c8.62,0,17.24-1.96,25.1-5.89l150.77-75.39L436.78,481.58z M436.78,401.34l-215.21,107.6c-9.12,4.56-20.02,4.56-29.14,0
	l-215.21-107.6c-2.34-1.17-2.69-3.22-2.69-4.35c0-1.12,0.35-3.18,2.68-4.34l53.91-26.96l150.78,75.39
	c7.85,3.93,16.47,5.89,25.09,5.89c8.62,0,17.24-1.96,25.09-5.89l150.77-75.39l53.91,26.95c2.34,1.17,2.69,3.22,2.69,4.35
	C439.46,398.12,439.11,400.18,436.78,401.34z"/>
</svg>
