<?xml version="1.0" encoding="utf-8"?>
<!-- Generator: Adobe Illustrator 23.0.1, SVG Export Plug-In . SVG Version: 6.00 Build 0)  -->
<svg version="1.1" id="Capa_1" xmlns="http://www.w3.org/2000/svg" xmlns:xlink="http://www.w3.org/1999/xlink" x="0px" y="0px"
	 viewBox="-49 141 512 512" style="enable-background:new -49 141 512 512;" xml:space="preserve">
<path class="st0" d="M277.62,274.06c13.79,0,25-11.22,25-25c0-13.79-11.21-25-25-25s-25,11.22-25,25c0,5.63,1.87,10.83,5.02,15.01
	l-41.08,57.4c-2.45-0.8-5.07-1.25-7.78-1.25c-6.57,0-12.55,2.55-17.02,6.71l-27.38-15.54c0.37-1.7,0.56-3.45,0.56-5.26
	c0-13.79-11.21-25-25-25s-25,11.21-25,25c0,1.8,0.2,3.56,0.56,5.26l-27.38,15.54c-4.47-4.16-10.45-6.71-17.02-6.71
	c-13.79,0-25,11.22-25,25s11.21,25,25,25s25-11.22,25-25c0-1.8-0.2-3.56-0.56-5.26l27.38-15.54c4.47,4.16,10.45,6.71,17.02,6.71
	s12.55-2.55,17.02-6.71l27.38,15.54c-0.37,1.7-0.56,3.45-0.56,5.26c0,13.79,11.21,25,25,25c13.79,0,25-11.22,25-25
	c0-5.63-1.87-10.83-5.03-15.02l41.08-57.4C272.29,273.62,274.9,274.06,277.62,274.06z M277.62,239.06c5.51,0,10,4.49,10,10
	c0,5.51-4.49,10-10,10s-10-4.49-10-10C267.62,243.55,272.11,239.06,277.62,239.06z M71.11,355.23c-5.51,0-10-4.49-10-10
	c0-5.51,4.49-10,10-10s10,4.49,10,10C81.11,350.74,76.63,355.23,71.11,355.23z M139.95,316.15c-5.51,0-10-4.49-10-10
	c0-5.51,4.49-10,10-10s10,4.49,10,10C149.95,311.66,145.46,316.15,139.95,316.15z M208.79,355.23c-5.51,0-10-4.49-10-10
	c0-5.51,4.49-10,10-10c5.52,0,10,4.49,10,10C218.79,350.74,214.3,355.23,208.79,355.23z"/>
<path class="st0" d="M369.8,517.96h-52.49H31.43h-59.21c-3.43,0-6.22-2.79-6.22-6.21V202.33c0-3.43,2.79-6.21,6.22-6.21H7.57
	c4.14,0,7.5-3.36,7.5-7.5s-3.36-7.5-7.5-7.5h-35.36c-11.7,0-21.22,9.52-21.22,21.21v309.42c0,11.7,9.52,21.21,21.22,21.21h51.71
	v16.51c0,9.4,7.65,17.05,17.05,17.05h75.07l-35.34,69c-1.89,3.69-0.43,8.21,3.26,10.1c1.09,0.56,2.26,0.83,3.41,0.83
	c2.73,0,5.35-1.49,6.68-4.08l38.84-75.84h82.92l38.84,75.84c1.33,2.59,3.96,4.08,6.68,4.08c1.15,0,2.32-0.27,3.41-0.83
	c3.69-1.89,5.14-6.41,3.26-10.1l-35.34-69h75.07c9.4,0,17.05-7.65,17.05-17.05v-16.51h44.99c4.14,0,7.5-3.36,7.5-7.5
	S373.94,517.96,369.8,517.96z M309.81,549.47c0,1.13-0.92,2.05-2.05,2.05H40.98c-1.13,0-2.05-0.92-2.05-2.05v-16.51h270.88V549.47z"
	/>
<path class="st0" d="M37.57,196.12h102.67h68.25h168.03c3.43,0,6.21,2.79,6.21,6.21v71.31c0,4.14,3.36,7.5,7.5,7.5s7.5-3.36,7.5-7.5
	v-71.31c0-11.7-9.52-21.21-21.21-21.21H215.99v-14.74c0-10.38-8.44-18.82-18.82-18.82h-45.62c-10.38,0-18.82,8.44-18.82,18.82v14.74
	H37.57c-4.14,0-7.5,3.36-7.5,7.5S33.43,196.12,37.57,196.12z M147.74,166.37c0-2.1,1.71-3.82,3.82-3.82h45.62
	c2.1,0,3.82,1.71,3.82,3.82v14.74h-53.25L147.74,166.37L147.74,166.37z"/>
<path class="st0" d="M55.9,408.58c-4.14,0-7.5,3.36-7.5,7.5v66.27c0,4.14,3.36,7.5,7.5,7.5h30.43c4.14,0,7.5-3.36,7.5-7.5v-66.27
	c0-4.14-3.36-7.5-7.5-7.5H55.9z M78.83,474.85H63.4v-51.27h15.43V474.85z"/>
<path class="st0" d="M124.74,370.25c-4.14,0-7.5,3.36-7.5,7.5v104.6c0,4.14,3.36,7.5,7.5,7.5h30.43c4.14,0,7.5-3.36,7.5-7.5v-104.6
	c0-4.14-3.36-7.5-7.5-7.5H124.74z M147.66,474.85h-15.43v-89.6h15.43V474.85z"/>
<path class="st0" d="M193.57,408.58c-4.14,0-7.5,3.36-7.5,7.5v66.27c0,4.14,3.36,7.5,7.5,7.5H224c4.14,0,7.5-3.36,7.5-7.5v-66.27
	c0-4.14-3.36-7.5-7.5-7.5H193.57z M216.5,474.85h-15.43v-51.27h15.43V474.85z"/>
<path class="st0" d="M262.41,452.83c-4.14,0-7.5,3.36-7.5,7.5v22.02c0,4.14,3.36,7.5,7.5,7.5h30.43c4.14,0,7.5-3.36,7.5-7.5
	s-3.36-7.5-7.5-7.5h-22.93v-14.52C269.91,456.19,266.55,452.83,262.41,452.83z"/>
<path class="st0" d="M459.17,525.02l-43.03-74.53c10.9-11.62,18.84-25.82,23.08-41.64c6.78-25.29,3.3-51.71-9.79-74.38
	c-27.03-46.81-87.1-62.91-133.91-35.88c-46.81,27.03-62.91,87.1-35.88,133.91c13.09,22.68,34.23,38.9,59.52,45.67
	c8.45,2.26,17.01,3.38,25.53,3.38c7.44,0,14.84-0.86,22.08-2.55l43.02,74.53c5.27,9.14,14.88,14.25,24.74,14.25
	c4.83,0,9.73-1.23,14.21-3.81c8.8-5.08,14.26-14.54,14.26-24.71C463,534.28,461.68,529.36,459.17,525.02z M323.05,463.68
	c-21.42-5.74-39.33-19.48-50.42-38.68c-22.89-39.65-9.26-90.53,30.39-113.42c13.04-7.53,27.3-11.11,41.37-11.11
	c28.71,0,56.68,14.89,72.04,41.5c11.09,19.21,14.03,41.58,8.29,63s-19.48,39.33-38.68,50.41
	C366.85,466.47,344.47,469.42,323.05,463.68z M441.24,550.97c-6.45,3.73-14.73,1.51-18.46-4.94l-41.39-71.7
	c4.15-1.69,8.21-3.67,12.16-5.95c3.95-2.28,7.69-4.82,11.23-7.57l41.4,71.71c1.19,2.06,1.82,4.39,1.82,6.74
	C448,544.08,445.41,548.57,441.24,550.97z"/>
<path class="st0" d="M412.54,404.61c5.3-17.06,4.03-35.32-3.55-51.42c-1.77-3.75-6.23-5.35-9.98-3.59
	c-3.75,1.77-5.35,6.23-3.59,9.98c5.98,12.7,6.98,27.11,2.8,40.58c-4.2,13.54-13.29,24.9-25.57,32c-13,7.51-28.15,9.5-42.65,5.61
	c-14.5-3.89-26.62-13.19-34.13-26.19c-15.5-26.84-6.27-61.29,20.57-76.78c19.63-11.33,43.98-9.82,62.05,3.86
	c3.3,2.5,8.01,1.85,10.51-1.45c2.5-3.3,1.85-8.01-1.46-10.51c-22.89-17.32-53.74-19.24-78.6-4.89
	c-16.47,9.51-28.26,24.87-33.18,43.24s-2.4,37.56,7.11,54.03c9.51,16.47,24.87,28.26,43.24,33.18c6.14,1.64,12.36,2.46,18.55,2.46
	c12.34,0,24.52-3.24,35.49-9.57C395.71,436.16,407.22,421.77,412.54,404.61z"/>
</svg>
