<?xml version="1.0" encoding="utf-8"?>
<!-- Generator: Adobe Illustrator 23.0.1, SVG Export Plug-In . SVG Version: 6.00 Build 0)  -->
<svg version="1.1" id="Capa_1" xmlns="http://www.w3.org/2000/svg" xmlns:xlink="http://www.w3.org/1999/xlink" x="0px" y="0px"
	 viewBox="-49 141 512 512" style="enable-background:new -49 141 512 512;" xml:space="preserve">
<path class="st0" d="M219.66,398.49c3.9-3.91,3.9-10.24,0-14.14c-3.91-3.91-10.24-3.91-14.15,0c-3.9,3.9-3.9,10.23,0,14.14
	C209.42,402.39,215.75,402.39,219.66,398.49z"/>
<path class="st0" d="M346.93,327.78c19.54-19.54,19.54-51.17,0-70.71c-19.54-19.54-51.17-19.54-70.71,0
	c-19.49,19.49-19.49,51.21,0,70.71C295.72,347.27,327.44,347.28,346.93,327.78z M290.36,271.21c11.72-11.72,30.7-11.73,42.43,0
	c11.72,11.72,11.73,30.7,0,42.43c-11.69,11.69-30.73,11.69-42.43,0C278.67,301.94,278.67,282.9,290.36,271.21z"/>
<path class="st0" d="M53.19,386.51c1.24,0.51,2.54,0.76,3.82,0.76c2.6,0,5.16-1.02,7.07-2.93c20.08-20.08,44.85-18.83,52.95-17.76
	l3.5,3.5c-6.89,16.4-12.44,32.71-16.52,48.57c-1.47,5.74-0.97,11.81,1.21,17.37c-9.63,4.44-18.92,10.95-27,19.04
	c-25.74,25.74-30.97,88.48-31.18,91.13c-0.23,2.92,0.83,5.79,2.9,7.86c1.88,1.88,4.43,2.93,7.07,2.93c0.26,0,0.53-0.01,0.79-0.03
	c2.66-0.21,65.39-5.44,91.13-31.18c8.09-8.08,14.6-17.37,19.04-27c5.88,2.31,11.94,2.6,17.38,1.2c15.85-4.07,32.16-9.62,48.56-16.51
	l3.5,3.5c1.06,8.09,2.32,32.86-17.76,52.95c-2.86,2.86-3.71,7.16-2.17,10.9c1.55,3.74,5.19,6.17,9.24,6.17
	c39.58,0,94.92-23.57,115.29-61.65c8.85-16.54,14.88-42.7-4.34-75.35c8.15-6.89,15.99-14.09,23.4-21.49
	c33.02-33.02,58.94-75.76,77.05-127.04c22.62-64,24.78-117.83,24.86-120.09c0.1-2.78-0.96-5.47-2.92-7.43
	c-1.96-1.96-4.64-3.03-7.43-2.92c-2.26,0.08-56.1,2.24-120.09,24.86c-51.28,18.11-94.02,44.03-127.04,77.05
	c-7.4,7.4-14.6,15.24-21.49,23.4c-32.65-19.22-58.81-13.19-75.35-4.34c-38.08,20.38-61.65,75.72-61.65,115.3
	C47.02,381.32,49.46,384.96,53.19,386.51z M134.8,511.63c-13.75,13.75-46.01,21-66.39,23.96c2.96-20.39,10.21-52.64,23.96-66.39
	c7.7-7.7,16.63-13.54,25.6-16.83l33.65,33.65C148.34,495,142.5,503.93,134.8,511.63z M180.39,480.6c-2.89,0.74-6.25-0.35-8.74-2.83
	c-48.54-48.54,13.77,13.77-45.41-45.41c-2.49-2.5-3.58-5.85-2.84-8.74c3.2-12.47,7.39-25.27,12.49-38.19l82.7,82.7
	C205.65,473.21,192.86,477.4,180.39,480.6z M324.39,485.89c-13.1,24.48-46.09,42.52-76.15,48.73c9.58-18.04,11.7-41,8.2-54.92
	c-0.81-3.23-2.92-4.86-3.04-5.05c24.23-11.74,47.18-25.82,68.49-42.02C332.29,451.65,333.15,469.54,324.39,485.89z M424.31,249.59
	l-69.9-69.9c38.08-11.83,71.21-16.26,87.75-17.85C440.57,178.38,436.14,211.51,424.31,249.59z M219.65,257.06
	c29.63-29.63,67.86-53.2,113.67-70.18l83.79,83.79c-16.97,45.81-40.55,84.05-70.18,113.67c-9.01,9.01-18.71,17.72-28.84,25.87
	c-24.34,19.6-51.13,36.2-79.72,49.42l-94.02-94.02c13.22-28.59,29.82-55.38,49.42-79.72C201.94,275.77,210.64,266.07,219.65,257.06z
	 M118.11,279.61c16.36-8.75,34.24-7.9,53.25,2.51c-16.2,21.3-30.28,44.25-42.01,68.49c-0.15-0.09-1.95-2.36-5.29-3.11
	c-1.38-0.31-27.83-6-54.68,8.27C75.59,325.7,93.63,292.71,118.11,279.61z"/>
<path class="st0" d="M163.09,596.48l28.28-28.29c3.9-3.91,3.9-10.24,0-14.14c-3.91-3.9-10.24-3.9-14.14,0l-28.28,28.29
	c-3.9,3.91-3.9,10.24,0,14.14C152.86,600.39,159.19,600.39,163.09,596.48z"/>
<path class="st0" d="M21.66,455.05l28.29-28.28c3.91-3.9,3.91-10.24,0-14.14s-10.24-3.91-14.14,0L7.52,440.91
	c-3.91,3.9-3.91,10.24,0,14.14C11.42,458.95,17.75,458.96,21.66,455.05z"/>
<path class="st0" d="M106.52,568.2l-67.74,67.73c-3.91,3.9-3.91,10.24,0,14.14c3.9,3.9,10.24,3.91,14.14,0l67.74-67.73
	c3.91-3.91,3.91-10.24,0-14.14C116.76,564.3,110.43,564.3,106.52,568.2z"/>
<path class="st0" d="M26.52,568.2l-67.74,67.73c-3.91,3.9-3.91,10.24,0,14.14c3.9,3.9,10.24,3.91,14.14,0l67.74-67.73
	c3.91-3.91,3.91-10.24,0-14.14C36.76,564.3,30.43,564.3,26.52,568.2z"/>
<path class="st0" d="M-31.93,565.22l67.73-67.74c3.9-3.91,3.9-10.24,0-14.14c-3.9-3.9-10.24-3.9-14.14,0l-67.73,67.74
	c-3.9,3.91-3.9,10.24,0,14.14C-42.17,569.13-35.83,569.13-31.93,565.22z"/>
<path class="st0" d="M247.94,370.2l14.14-14.14c3.9-3.91,3.9-10.24,0-14.14c-3.91-3.91-10.24-3.91-14.14,0l-14.14,14.14
	c-3.9,3.9-3.9,10.24,0,14.14C237.7,374.11,244.04,374.11,247.94,370.2z"/>
</svg>
