<svg id="Layer_1" data-name="Layer 1" xmlns="http://www.w3.org/2000/svg" xmlns:xlink="http://www.w3.org/1999/xlink" viewBox="0 0 760.89 779.48"><defs><style>.cls-1{fill:none;}.cls-2{clip-path:url(#clip-path);}.cls-4{clip-path:url(#clip-path-2);}.cls-6{clip-path:url(#clip-path-3);}</style><clipPath id="clip-path" transform="translate(-0.46 16.04)"><path class="cls-1" d="M616.46,281.63c-.44,86.16-.12,172.32-.13,258.48v20.62c-51.12-33.79-98.38-66.09-146.74-96.67-46.95-29.69-96.81-31.73-143.76-2.27C251.58,508.4,179,557.72,106.3,606.75c-23.76,16-33,40.62-28.56,68.64,8.63,53.82,66.54,78,113.14,47.41,62.4-40.9,124.71-81.95,186.37-123.95,13.15-9,22.38-10.4,35.67-.54,22.73,16.84,47,31.57,70.66,47.18,37.75,24.93,74.84,50.93,113.39,74.56,70.76,43.39,162.34-5.1,163.17-87,1.21-118.86.53-237.75.2-356.63-.09-30.57-20.51-56.93-49.36-66.42a73.73,73.73,0,0,0-23.12-3.78c-38.55,0-71.18,31.56-71.4,75.38"/></clipPath><linearGradient id="linear-gradient" y1="736.77" x2="1" y2="736.77" gradientTransform="matrix(684.19, 0, 0, -684.19, 76.18, 504590.73)" gradientUnits="userSpaceOnUse"><stop offset="0" stop-color="#7600d1"/><stop offset="0.48" stop-color="#a200b8"/><stop offset="1" stop-color="#e80090"/></linearGradient><clipPath id="clip-path-2" transform="translate(-0.46 16.04)"><rect class="cls-1" width="761.33" height="736.79"/></clipPath><linearGradient id="linear-gradient-2" y1="736.79" x2="1" y2="736.79" gradientTransform="matrix(374.76, -649.1, -649.1, -374.76, 478563.03, 276961.28)" gradientUnits="userSpaceOnUse"><stop offset="0" stop-color="#7600d1"/><stop offset="1" stop-color="#f60088"/></linearGradient><clipPath id="clip-path-3" transform="translate(-0.46 16.04)"><path class="cls-1" d="M57.31,14C18.91,34.73.49,68.26.5,111.88q0,171,0,341.92c0,44.72,29.94,76.89,71.35,77.09,42.16.2,72.65-32.07,72.74-77.62q.24-127.61,0-255.22V177.22c7.86,4.95,12.91,8,17.83,11.26,43.21,28.55,85.84,58,129.75,85.46,47.1,29.41,96.9,30.92,143.79,1.33,73.71-46.49,145.87-95.45,218.13-144.19,23.66-16,33.67-40.12,29.24-68.35-8.47-54-66.12-78.77-112.68-48.35-62,40.5-124,81.11-185,123.08-14.93,10.26-24.79,10.65-39.76.4-58.43-40-117.76-78.8-177-117.61C149.13,7.28,128.66.5,107.89.5,91.16.5,74.23,4.91,57.31,14"/></clipPath><linearGradient id="linear-gradient-3" y1="736.8" y2="736.8" gradientTransform="matrix(683.92, 0, 0, -683.92, 0.04, 504189.98)" xlink:href="#linear-gradient"/><linearGradient id="linear-gradient-4" x1="0" y1="736.79" x2="1" y2="736.79" gradientTransform="matrix(374.86, -649.27, -649.27, -374.86, 478455.51, 276737.31)" xlink:href="#linear-gradient-2"/></defs><title>header-logo</title><g class="cls-2"><rect class="cls-3" x="72.78" y="222.29" width="688.11" height="557.19"/></g><g class="cls-4"><path class="cls-5" d="M469.59,464.06h0c-24.32-15.39-49.43-23.35-74.52-23.35-23.32,0-46.62,6.89-69.24,21.09-74.25,46.6-146.82,95.92-219.53,145C86.4,620.18,76.64,639.61,76.64,662a84.35,84.35,0,0,0,1.1,13.36c6,37.68,36.24,60.81,69.8,60.81a78.87,78.87,0,0,0,43.34-13.4c62.4-40.9,124.71-81.95,186.37-123.95,6.92-4.71,12.76-7.34,18.67-7.34,5.32,0,10.71,2.13,17,6.8,22.73,16.84,47,31.57,70.66,47.18,37.75,24.93,74.84,50.93,113.38,74.56a108.21,108.21,0,0,0,56.84,16.24c55,0,105.73-42.39,106.34-103.21q.78-76.12.69-152.27c0-68.12-.31-136.24-.49-204.36-.09-30.56-20.51-56.93-49.36-66.42a73.73,73.73,0,0,0-23.12-3.78c-38.54,0-71.18,31.56-71.4,75.39q-.27,52.88-.24,105.76,0,76.16.11,152.32v21c-51.12-33.79-98.38-66.09-146.74-96.67h0c48.36,30.58,95.62,62.88,146.74,96.67v-21q0-76.17-.11-152.32,0-52.89.24-105.76c.22-43.83,32.86-75.39,71.4-75.39A73.73,73.73,0,0,1,711,210c28.85,9.49,49.27,35.86,49.36,66.42.18,68.12.49,136.24.49,204.36q0,76.14-.69,152.27c-.61,60.82-51.3,103.21-106.34,103.21A108.21,108.21,0,0,1,597,720.05c-38.54-23.63-75.63-49.63-113.38-74.56-23.64-15.61-47.93-30.34-70.66-47.18-6.29-4.67-11.68-6.8-17-6.8-5.91,0-11.75,2.63-18.67,7.34-61.66,42-124,83-186.37,123.95a78.87,78.87,0,0,1-43.34,13.4c-33.56,0-63.76-23.13-69.8-60.81A84.35,84.35,0,0,1,76.64,662c0-22.42,9.76-41.85,29.66-55.28,72.71-49,145.28-98.35,219.53-144.95,22.62-14.2,45.92-21.09,69.24-21.09,25.09,0,50.2,8,74.52,23.35Z" transform="translate(-0.46 16.04)"/></g><g class="cls-6"><rect class="cls-7" width="687.36" height="547.13"/></g><g class="cls-4"><path class="cls-8" d="M162.49,188.48h0c43.21,28.55,85.84,58,129.75,85.46,24.11,15.06,48.94,22.8,73.72,22.8,23.61,0,47.19-7,70.07-21.47,73.71-46.49,145.87-95.45,218.14-144.19,20-13.5,30.25-32.88,30.25-55.62a82.44,82.44,0,0,0-1-12.73c-6-38-36.27-61.54-69.93-61.54a77.94,77.94,0,0,0-42.75,13.19c-62,40.5-124,81.11-185,123.08-7.62,5.23-13.91,7.9-20.23,7.9-6.09,0-12.2-2.47-19.53-7.5-58.44-40-117.77-78.8-177-117.61C149.13,7.28,128.66.5,107.89.5,91.16.5,74.23,4.91,57.31,14,18.92,34.72.5,68.24.5,111.84v0q0,29.16,0,58.32,0,76.56,0,153.12,0,65.25,0,130.48c0,44.72,29.94,76.89,71.35,77.09h.39c42,0,72.26-32.21,72.35-77.62q.09-52.87.08-105.73,0-74.21,0-148.41V177.22c7.86,5,12.91,8,17.83,11.26h0c-4.92-3.25-10-6.31-17.83-11.26v21.91q0,74.2,0,148.41,0,52.86-.08,105.73c-.09,45.41-30.39,77.62-72.35,77.62h-.39C30.47,530.69.56,498.52.53,453.8q0-65.24,0-130.48,0-76.56,0-153.12,0-29.16,0-58.32v0C.5,68.24,18.92,34.72,57.31,14,74.23,4.91,91.16.5,107.89.5,128.66.5,149.13,7.28,169,20.25c59.27,38.81,118.6,77.57,177,117.61,7.33,5,13.44,7.5,19.53,7.5,6.32,0,12.61-2.67,20.23-7.9,61-42,123-82.58,185-123.08A77.94,77.94,0,0,1,613.47,1.19c33.66,0,64,23.51,69.93,61.54a82.44,82.44,0,0,1,1,12.73c0,22.74-10.24,42.12-30.25,55.62C581.9,179.82,509.74,228.78,436,275.27c-22.88,14.44-46.46,21.47-70.07,21.47-24.78,0-49.61-7.74-73.72-22.8C248.33,246.51,205.7,217,162.49,188.48Z" transform="translate(-0.46 16.04)"/></g></svg>