<?xml version="1.0" encoding="utf-8"?>
<!-- Generator: Adobe Illustrator 23.0.1, SVG Export Plug-In . SVG Version: 6.00 Build 0)  -->
<svg version="1.1" id="Layer_1" xmlns="http://www.w3.org/2000/svg" xmlns:xlink="http://www.w3.org/1999/xlink" x="0px" y="0px"
	 viewBox="0 0 7.06 7.17" style="enable-background:new 0 0 7.06 7.17;" xml:space="preserve">
<style type="text/css">
	.st0{fill:#FFFFFF;}
</style>
<g>
	<path class="st0" d="M7.06,3.72c0,0.3,0,0.66,0,1.02c0,0.27-0.01,0.54-0.06,0.81C6.93,5.9,6.81,6.22,6.57,6.49
		C6.38,6.7,6.16,6.88,5.9,6.98C5.61,7.09,5.31,7.15,5,7.15C4.79,7.16,4.58,7.17,4.37,7.18c-0.29,0-0.57,0-0.86,0
		c-0.21,0-0.43,0-0.64,0c-0.39-0.01-0.79,0-1.18-0.07C1.4,7.06,1.12,6.96,0.88,6.78C0.65,6.61,0.47,6.4,0.32,6.15
		C0.21,5.97,0.15,5.77,0.11,5.56C0.03,5.18,0.03,4.8,0.02,4.42C0.01,3.78,0,3.14,0,2.5C0,2.2,0,1.9,0.06,1.61
		c0.07-0.35,0.2-0.67,0.45-0.94c0.19-0.21,0.4-0.38,0.66-0.48c0.18-0.07,0.37-0.12,0.57-0.15C2.04,0.01,2.35,0,2.66-0.01
		c0.3-0.01,0.6,0,0.9,0.01c0.3,0,0.59,0,0.89,0.01c0.21,0,0.42,0.01,0.63,0.03c0.34,0.03,0.66,0.11,0.96,0.28
		c0.31,0.18,0.55,0.42,0.72,0.74C6.92,1.35,6.99,1.67,7.02,2C7.06,2.55,7.05,3.1,7.06,3.72 M6.43,3.67C6.42,3.16,6.41,2.7,6.39,2.23
		C6.38,1.94,6.34,1.65,6.21,1.38C6.14,1.24,6.04,1.12,5.93,1.02C5.67,0.79,5.35,0.7,5.01,0.68C4.72,0.67,4.42,0.67,4.13,0.66
		c-0.3-0.01-0.6-0.01-0.9-0.01c-0.3,0-0.61,0-0.91,0.01C2.06,0.67,1.79,0.67,1.54,0.75C1.32,0.82,1.14,0.93,0.99,1.1
		C0.8,1.31,0.71,1.56,0.68,1.83C0.65,2.06,0.64,2.29,0.64,2.52C0.65,3.31,0.66,4.1,0.67,4.89C0.68,5.15,0.71,5.42,0.8,5.67
		c0.07,0.2,0.18,0.37,0.34,0.51C1.35,6.37,1.62,6.46,1.9,6.49c0.18,0.02,0.35,0.03,0.53,0.04C2.82,6.54,3.21,6.54,3.6,6.54
		c0.47,0,0.93,0.02,1.4-0.02C5.12,6.51,5.24,6.5,5.35,6.48c0.28-0.05,0.53-0.17,0.72-0.38c0.08-0.1,0.16-0.2,0.2-0.32
		c0.1-0.24,0.14-0.5,0.14-0.76C6.42,4.55,6.43,4.09,6.43,3.67"/>
	<path class="st0" d="M1.73,3.59c-0.01-0.24,0.04-0.48,0.13-0.7c0.11-0.27,0.27-0.5,0.49-0.7c0.19-0.17,0.4-0.28,0.63-0.36
		c0.18-0.06,0.37-0.08,0.56-0.08c0.36,0.01,0.7,0.11,0.99,0.32C4.79,2.26,5,2.49,5.14,2.78C5.21,2.95,5.28,3.12,5.31,3.3
		c0.06,0.37,0.02,0.73-0.14,1.08C5.01,4.73,4.77,5,4.44,5.2C4.08,5.41,3.7,5.48,3.29,5.42C3.05,5.38,2.83,5.31,2.63,5.18
		C2.42,5.05,2.24,4.89,2.09,4.69c-0.18-0.26-0.3-0.54-0.34-0.85C1.74,3.76,1.74,3.67,1.73,3.59 M3.52,2.4
		C3.3,2.41,3.09,2.47,2.89,2.6C2.68,2.73,2.53,2.93,2.44,3.16c-0.13,0.34-0.1,0.68,0.06,1C2.63,4.4,2.83,4.58,3.08,4.69
		C3.3,4.8,3.54,4.81,3.77,4.77c0.16-0.03,0.3-0.1,0.44-0.19c0.26-0.19,0.42-0.45,0.47-0.77c0.06-0.36-0.03-0.68-0.26-0.97
		C4.19,2.56,3.88,2.42,3.52,2.4"/>
	<path class="st0" d="M5.39,1.26c0.24,0,0.43,0.22,0.42,0.44C5.8,1.94,5.64,2.12,5.4,2.12c-0.25,0-0.43-0.18-0.43-0.43
		C4.96,1.43,5.17,1.25,5.39,1.26"/>
</g>
</svg>
