<svg id="Layer_1" data-name="Layer 1" xmlns="http://www.w3.org/2000/svg" viewBox="0 0 925.95 182.89"><defs><style>.cls-1{fill:#fff;}.cls-2,.cls-3,.cls-4{fill:none;}.cls-2{stroke:#fff;}.cls-2,.cls-3{stroke-miterlimit:10;stroke-width:10px;}.cls-3{stroke:#fff;}</style></defs><title>buycbd-logo</title><path class="cls-1" d="M168.36,51.77h49.72q12.43,0,19.08,6.15a19.94,19.94,0,0,1,6.66,15.25,19.24,19.24,0,0,1-4.75,13.08A21.21,21.21,0,0,1,229.81,92q9.25,2.24,13.63,7.65t4.37,13.64a23.48,23.48,0,0,1-3.11,12,23,23,0,0,1-8.5,8.44q-3.34,1.94-10.09,2.81a114.72,114.72,0,0,1-11.9,1.18H168.36Zm26.79,33.71H206.7q6.23,0,8.65-2.14a7.8,7.8,0,0,0,2.44-6.18,7.38,7.38,0,0,0-2.44-5.87c-1.62-1.4-4.45-2.11-8.47-2.11H195.15Zm0,33.78H208.7q6.86,0,9.67-2.44a8.19,8.19,0,0,0,2.82-6.53,7.56,7.56,0,0,0-2.79-6.13q-2.79-2.32-9.76-2.32H195.15Z" transform="translate(0 0)"/><path class="cls-1" d="M314.66,51.77h26.5V103a43.27,43.27,0,0,1-2.37,14.39,31.05,31.05,0,0,1-7.45,11.83,29.75,29.75,0,0,1-10.64,7.12,53.45,53.45,0,0,1-18.59,2.87,116.17,116.17,0,0,1-13.69-.88,35.67,35.67,0,0,1-12.4-3.48,31.22,31.22,0,0,1-9.12-7.41,27.44,27.44,0,0,1-5.66-9.91A51.37,51.37,0,0,1,258.78,103V51.77h26.5V104.2q0,7,3.9,11t10.82,4q6.86,0,10.76-3.9t3.9-11Z" transform="translate(0 0)"/><path class="cls-1" d="M350.08,51.77h29.5l17.32,29,17.35-29H443.6l-33.42,49.95v36H383.56v-36Z" transform="translate(0 0)"/><path class="cls-1" d="M443.15,137.73l27.18-86h10l28.87,86H498.5l-8.2-26H460.64l-7.66,26Zm20.22-35.3h24l-7.32-23.81q-3.4-11-5-17.82a125.09,125.09,0,0,1-3.86,16.41Z" transform="translate(0 0)"/><path class="cls-1" d="M516.27,137.73v-86h9.55l37.06,67.62V51.77h8.91v86h-9.55l-37-67.64v67.64Z" transform="translate(0 0)"/><path class="cls-1" d="M607.44,137.73V101.31L580.3,51.77h11.39l13.84,25.94q4.11,7.7,7.22,14.56,3.11-6.75,7.69-15.2l13.69-25.3h10.78l-28.14,49.54v36.42Z" transform="translate(0 0)"/><path class="cls-1" d="M711.75,102.55l23.28,7a42.9,42.9,0,0,1-7.39,16.36,32,32,0,0,1-12.52,9.91q-7.47,3.35-19,3.34-14,0-22.9-4.07t-15.33-14.33q-6.47-10.25-6.45-26.25,0-21.33,11.34-32.78t32.1-11.46q16.25,0,25.54,6.57T734.21,77l-23.46,5.22a20,20,0,0,0-2.58-5.75,15.3,15.3,0,0,0-5.45-4.69,16.78,16.78,0,0,0-21.05,5.62Q678,82.83,678,94.37q0,14.28,4.34,19.59t12.19,5.3q7.62,0,11.52-4.28T711.75,102.55Z" transform="translate(0 0)"/><path class="cls-1" d="M748,51.77h49.72q12.43,0,19.09,6.15a20,20,0,0,1,6.65,15.25,19.24,19.24,0,0,1-4.75,13.08A21.21,21.21,0,0,1,809.44,92q9.25,2.24,13.63,7.65t4.37,13.64a23.48,23.48,0,0,1-3.11,12,23,23,0,0,1-8.5,8.44q-3.35,1.94-10.09,2.81a114.72,114.72,0,0,1-11.9,1.18H748Zm26.79,33.71h11.56q6.21,0,8.64-2.14a7.77,7.77,0,0,0,2.44-6.18A7.35,7.35,0,0,0,795,71.29c-1.62-1.4-4.44-2.11-8.47-2.11H774.78Zm0,33.78h13.55q6.85,0,9.67-2.44a8.19,8.19,0,0,0,2.82-6.53,7.56,7.56,0,0,0-2.79-6.13q-2.78-2.32-9.76-2.32H774.78Z" transform="translate(0 0)"/><path class="cls-1" d="M841.69,51.77h39.46q11.67,0,18.85,3.16A30.66,30.66,0,0,1,911.88,64a37.78,37.78,0,0,1,6.8,13.78,64.26,64.26,0,0,1,2.11,16.65q0,13.78-3.14,21.38a35.29,35.29,0,0,1-8.71,12.72,28.35,28.35,0,0,1-12,6.83,61.32,61.32,0,0,1-15.83,2.35H841.69Zm26.56,19.46v47h6.51q8.32,0,11.84-1.85a12.51,12.51,0,0,0,5.52-6.45q2-4.59,2-14.92,0-13.67-4.46-18.7t-14.77-5Z" transform="translate(0 0)"/><polygon class="cls-2" points="101.94 16.5 78.94 92.5 90.08 114.58 104.44 143 126.94 91.5 101.94 16.5"/><polygon class="cls-3" points="97.23 171.39 59.76 101.38 8.14 82.29 26.52 136.03 97.23 171.39"/><rect class="cls-4" width="925.95" height="182.89"/></svg>