<svg id="Layer_1" data-name="Layer 1" xmlns="http://www.w3.org/2000/svg" xmlns:xlink="http://www.w3.org/1999/xlink" viewBox="0 0 458.08 222.24"><defs><style>.cls-1{fill:none;}.cls-2{clip-path:url(#clip-path);}.cls-3{fill:#fff;}</style><clipPath id="clip-path" transform="translate(0 0)"><rect class="cls-1" width="458.08" height="222.24"/></clipPath></defs><title>cabiling-logo</title><g class="cls-2"><path class="cls-3" d="M148,136.9h52.81a48.27,48.27,0,0,1,9.09.73,15.19,15.19,0,0,1,6.11,2.44,9.92,9.92,0,0,1,3.44,4.41,17.56,17.56,0,0,1,1.1,6.65v5.15q0,5.5-1.93,7.9a9.33,9.33,0,0,1-4.86,3.21,11.78,11.78,0,0,1,3.07,1.15,7.14,7.14,0,0,1,2.44,2.25,11.39,11.39,0,0,1,1.56,3.81,25.86,25.86,0,0,1,.55,5.83v5.51a16.61,16.61,0,0,1-1.06,6.34,9.16,9.16,0,0,1-3.39,4.18,16.33,16.33,0,0,1-6.11,2.34,48.19,48.19,0,0,1-9.09.74H148Zm14,11.39v14.42H201.1q3.68,0,5.05-1.2c.92-.79,1.38-2.23,1.38-4.31v-3.95c0-1.9-.57-3.2-1.7-3.91s-3.17-1.05-6.11-1.05Zm0,24.52v15.34h39q3.94,0,5.65-1.06c1.13-.7,1.7-2,1.7-4v-3.86c0-2.57-.51-4.29-1.52-5.14s-2.8-1.29-5.37-1.29Z" transform="translate(0 0)"/><path class="cls-3" d="M233.34,146.91a5.2,5.2,0,0,1-3.63-1,4.32,4.32,0,0,1-1.06-3.22v-5.32a4.13,4.13,0,0,1,1.06-3.17,5.32,5.32,0,0,1,3.63-1h4.5a5.52,5.52,0,0,1,3.72,1,4.13,4.13,0,0,1,1.06,3.17v5.32a4.32,4.32,0,0,1-1.06,3.22,5.4,5.4,0,0,1-3.72,1ZM228.65,151h14v48.5h-14Z" transform="translate(0 0)"/><rect class="cls-3" x="251.62" y="133.68" width="13.96" height="65.85"/><rect class="cls-3" x="274.58" y="133.68" width="13.96" height="65.85"/><path class="cls-3" d="M302.22,146.91a5.23,5.23,0,0,1-3.63-1,4.32,4.32,0,0,1-1-3.22v-5.32a4.13,4.13,0,0,1,1-3.17,5.35,5.35,0,0,1,3.63-1h4.5a5.52,5.52,0,0,1,3.72,1,4.13,4.13,0,0,1,1.06,3.17v5.32a4.32,4.32,0,0,1-1.06,3.22,5.4,5.4,0,0,1-3.72,1ZM297.54,151h14v48.5h-14Z" transform="translate(0 0)"/><path class="cls-3" d="M371,199.54V171.8a21.58,21.58,0,0,0-.5-5.1,6.28,6.28,0,0,0-1.75-3.12,7.06,7.06,0,0,0-3.4-1.61,27.38,27.38,0,0,0-5.46-.46H345a26.69,26.69,0,0,0-5.37.46,7.39,7.39,0,0,0-3.45,1.61,6.12,6.12,0,0,0-1.79,3.12,21.06,21.06,0,0,0-.5,5.1v27.74H320.22v-28.2a38,38,0,0,1,1.15-10.1,13.7,13.7,0,0,1,3.9-6.66,16.65,16.65,0,0,1,7.35-3.68,48.63,48.63,0,0,1,11.48-1.14h16.62a49.19,49.19,0,0,1,11.58,1.14,16.55,16.55,0,0,1,7.34,3.68,13.79,13.79,0,0,1,3.91,6.66,38.42,38.42,0,0,1,1.15,10.1v28.2Z" transform="translate(0 0)"/><path class="cls-3" d="M420.15,214.42V203.21h19c2,0,3.46-.4,4.32-1.19s1.28-2.18,1.28-4.14v-4H413.53a43.37,43.37,0,0,1-9.68-.92,15.9,15.9,0,0,1-6.48-2.89,11.06,11.06,0,0,1-3.58-5.14,23.37,23.37,0,0,1-1.1-7.67V169.6a39.7,39.7,0,0,1,1-9.51,12.33,12.33,0,0,1,3.4-6.11,14,14,0,0,1,6.61-3.26,48.11,48.11,0,0,1,10.52-1H436.4a41,41,0,0,1,10.34,1.1,15.16,15.16,0,0,1,6.7,3.49A13.12,13.12,0,0,1,457,160.5a33.79,33.79,0,0,1,1.06,9.1v29q0,8.35-4.13,12.08t-13.5,3.72Zm24.61-44.55q0-5-1.93-6.7t-7-1.75H414.36c-3.18,0-5.36.6-6.52,1.79s-1.74,3.45-1.74,6.75v6.52a10.92,10.92,0,0,0,.41,3.31,4.18,4.18,0,0,0,1.38,2.07,5.38,5.38,0,0,0,2.52,1,22.69,22.69,0,0,0,3.95.28h30.4Z" transform="translate(0 0)"/><path class="cls-3" d="M240.9,126.07a46.16,46.16,0,0,1-11-1.11,15.92,15.92,0,0,1-7.07-3.53,13.29,13.29,0,0,1-3.76-6.36,36.57,36.57,0,0,1-1.1-9.67V86.49a36.67,36.67,0,0,1,1.1-9.63,13.27,13.27,0,0,1,3.76-6.4,16,16,0,0,1,7.07-3.54,46.74,46.74,0,0,1,11-1.1h41.78V77.39H241.52a21.52,21.52,0,0,0-5.08.49,6.53,6.53,0,0,0-3.14,1.63,6.28,6.28,0,0,0-1.59,3,21.11,21.11,0,0,0-.44,4.64v17.67a21,21,0,0,0,.44,4.68,5.7,5.7,0,0,0,4.77,4.59,24.4,24.4,0,0,0,5.13.44h41.07v11.49Z" transform="translate(0 0)"/><path class="cls-3" d="M352.56,112.2h-41.7l-8.57,13.87H286.83l35-55.66a15.7,15.7,0,0,1,3.79-4.24A10.45,10.45,0,0,1,332,64.49a10.29,10.29,0,0,1,6.28,1.68A15.53,15.53,0,0,1,342,70.41l47.19,72.32H373.69Zm-35.43-10.34h29.15L331.71,78.1Z" transform="translate(0 0)"/><path class="cls-3" d="M141.4,34.32v31c0,3.09,0,3.1,3,3.1q25.38,0,50.75,0c.93,0,2.37-.53,2.66.57s-1.21,1.38-2,1.82a141.85,141.85,0,0,1-37.64,14.38,150.57,150.57,0,0,1-43.38,3.3,213.16,213.16,0,0,1-28.26-4.14,295.77,295.77,0,0,1-36.73-10C45.92,73,42.12,71.51,38.3,70c-.46-.18-1.32-.21-1.19-1s1-.63,1.58-.63q11.89,0,23.78,0H78.19c3.64,0,3.65,0,3.65-3.55V3.7c0-3.69,0-3.7,3.61-3.7h52.88c3,0,3.07,0,3.07,3.11V34.32M103.92,50.6a15.64,15.64,0,0,0-16,15.46c0,9.29,6.85,16.09,15.85,16.11a15.63,15.63,0,0,0,15.76-15.76c.13-8.73-7.38-16-15.63-15.81" transform="translate(0 0)"/><path class="cls-3" d="M104.35,222.2c.24-1.42,1.36-2.28,2.1-3.31A54.39,54.39,0,0,0,114.26,203a23.6,23.6,0,0,0,.62-3.76c.28-2.24,0-2.62-2.33-2.62-9,0-18.11,0-27.16,0-3.34,0-3.53-.19-3.53-3.44,0-5.3,0-10.61,0-15.92a4.25,4.25,0,0,1,1.44-3.33,284.31,284.31,0,0,0,32.66-37.18c.43-.6.83-1.52,1.7-1.32s.66,1.13.88,1.79a140.38,140.38,0,0,1,4.74,19.92,92.62,92.62,0,0,1,1,27.85A60.83,60.83,0,0,1,106,221.34c-.41.4-.76,1.06-1.66.86" transform="translate(0 0)"/><path class="cls-3" d="M92,114.37c-2.84-5.7-7.53-9.81-12.49-13.61C69.42,93,58.19,87.08,47,81.15,36.72,75.76,26.34,70.64,16.53,64.47,10.72,60.82,5.08,56.94.84,51.39a.56.56,0,0,0-.75-.23c-.29.67.2,1.19.45,1.73A52.52,52.52,0,0,0,11.87,68.08a5.67,5.67,0,0,1,1.72,3V124.8A3.16,3.16,0,0,0,16.74,128H53.29l25.49,0v0c3.63.16,3.68,1.09,2.82,6-1.27,7.3-4,14.14-7,20.81a387,387,0,0,1-24.58,45.87c-.23.37-.68.79-.08,1.26.81-.13,1.15-.83,1.57-1.35A349.06,349.06,0,0,0,73.22,171.3C82,157.7,90.55,144,93.42,127.63c.8-4.53.71-9.07-1.38-13.26" transform="translate(0 0)"/><path class="cls-3" d="M209.78,70.63c0-.78.05-1.88-.87-1.94-3.18-.19-6.58-1.33-9.38,1A140.22,140.22,0,0,1,174,87a124.47,124.47,0,0,1-24,9.55c-6.42,1.81-13,2.51-19.58,3.48-2.18.32-2.26.48-1,2.46a54.25,54.25,0,0,1,5.34,12,112.38,112.38,0,0,1,5.51,24.36,31.86,31.86,0,0,0,.55,3.48l.62,0c0-3.8,0-7.61,0-11.42,0-2.22.12-2.72,1.64-2.83l-.15.07L188,128H199l7.79,0c2.88,0,3-.1,3-3q0-22.73,0-45.44c0-3,0-5.94,0-8.91" transform="translate(0 0)"/></g></svg>