<svg id="Layer_1" data-name="Layer 1" xmlns="http://www.w3.org/2000/svg" xmlns:xlink="http://www.w3.org/1999/xlink" viewBox="0 0 1536 489.58"><defs><style>.cls-1{fill:none;}.cls-2{clip-path:url(#clip-path);}.cls-3{fill:#fff;}.cls-4{fill:#fff;}</style><clipPath id="clip-path" transform="translate(0 0)"><rect class="cls-1" width="1536" height="489.58"/></clipPath></defs><title>fitbites-logo</title><g class="cls-2"><path class="cls-3" d="M220.93,163.07a394.53,394.53,0,0,1,32.72,148,180.09,180.09,0,0,0-2-18.26C229.9,155.9,35.77,146.5,4.54,281.58A179.6,179.6,0,0,0,0,322.14c0,89.3,62.42,154.77,143.45,165.77a178.25,178.25,0,0,0,24.48,1.67,175.76,175.76,0,0,0,52.15-7.78c66.82-20.64,114.8-80.86,114.8-159.66,0-78.56-47.36-138.33-113.95-159.07m32.89,165.08c0,.85-.07,1.67-.17,2.52C250.47,383.05,217.39,417,167.93,417c-53,0-86.54-37.68-86.54-94.88,0-58.15,33.51-94.88,86.54-94.88,49.56,0,82.7,33.28,85.76,86.61.16,2.5.26,5,.26,7.58,0,2.23,0,4.47-.13,6.7" transform="translate(0 0)"/><path class="cls-3" d="M212.91,131.08c-47.69-70,24.18-141.61,128.65-129.79-.52.36-1.39,1-2.42,1.76-38.6,29.24-27.88,77.58-51.29,105.33-10.28,12.18-30.58,24.47-74.94,22.7" transform="translate(0 0)"/><path class="cls-4" d="M428.82,290.86H409.17v-45h19.65v-5.07c0-46.28,28.53-69.1,82.41-66.25v46c-20.92-1.27-28.21,5.07-28.21,23.77v1.58h29.17v45H483V422.73h-54.2Z" transform="translate(0 0)"/><path class="cls-4" d="M532.47,198.31c0-16.49,13-29.48,32.33-29.48,19,0,32,13,32,29.48,0,16.16-13,29.16-32,29.16-19.34,0-32.33-13-32.33-29.16m5.07,47.54h54.2V422.73h-54.2Z" transform="translate(0 0)"/><path class="cls-4" d="M639.6,290.86H618.05v-45H639.6V202.74h54.21v43.11h35.5v45h-35.5v71c0,10.46,4.43,14.9,16.48,14.9h19.34v46H702.05c-36.77,0-62.45-15.53-62.45-61.5Z" transform="translate(0 0)"/><path class="cls-4" d="M868.46,243.32c43.74,0,78,34.87,78,90.65s-34.55,91.29-78,91.29c-26,0-44.7-11.72-54.52-27.26v24.73H759.73V188.16h54.21V270.9c9.82-15.85,29.16-27.58,54.52-27.58m-16.17,47.23c-20.28,0-38.67,15.53-38.67,43.74S832,378,852.29,378c20.61,0,39-15.84,39-44.06s-18.38-43.42-39-43.42" transform="translate(0 0)"/><path class="cls-4" d="M969.89,198.31c0-16.49,13-29.48,32.33-29.48,19,0,32,13,32,29.48,0,16.16-13,29.16-32,29.16-19.34,0-32.33-13-32.33-29.16M975,245.85h54.2V422.73H975Z" transform="translate(0 0)"/><path class="cls-4" d="M1077,290.86h-21.55v-45H1077V202.74h54.21v43.11h35.5v45h-35.5v71c0,10.46,4.43,14.9,16.48,14.9H1167v46h-27.57c-36.77,0-62.45-15.53-62.45-61.5Z" transform="translate(0 0)"/><path class="cls-4" d="M1275.76,425.26c-52,0-89.38-34.86-89.38-91s36.77-91,89.38-91c51.67,0,88.12,34.23,88.12,88.12a135.69,135.69,0,0,1-1,15.85H1240.26c1.9,23.14,16.17,33.91,33.6,33.91,15.22,0,23.78-7.6,28.21-17.11h57.69c-8.56,34.55-39.94,61.17-84,61.17m-35.18-108.09h67.83c0-19.33-15.21-30.43-33.28-30.43-17.75,0-31.38,10.78-34.55,30.43" transform="translate(0 0)"/><path class="cls-4" d="M1464.36,425.26c-47.23,0-78.93-26.31-81.46-60.54h53.57c1.27,12.36,12.36,20.6,27.26,20.6,14,0,21.24-6.34,21.24-14.26,0-28.53-96.37-7.92-96.37-72.91,0-30.11,25.68-54.83,72-54.83,45.64,0,71,25.36,74.49,60.22H1485c-1.59-12-10.78-20-26-20-12.67,0-19.65,5.08-19.65,13.63,0,28.21,95.73,8.25,96.68,74.18,0,30.74-27.26,53.88-71.64,53.88" transform="translate(0 0)"/></g></svg>