<svg id="Layer_1" data-name="Layer 1" xmlns="http://www.w3.org/2000/svg" xmlns:xlink="http://www.w3.org/1999/xlink" viewBox="0 0 143.68 68.81"><defs><style>.cls-1{fill:none;}.cls-2{clip-path:url(#clip-path);}.cls-3{fill:#fff;}.cls-4{clip-path:url(#clip-path-2);}.cls-5{fill:#fff;}</style><clipPath id="clip-path"><path class="cls-1" d="M25.84,42.51v5.35h.67V45.48h1.93v-.59H26.51v-1.8h1.93v-.58Zm5.78.59h.66a1.11,1.11,0,0,1,.82.34,1.24,1.24,0,0,1,0,1.73,1.08,1.08,0,0,1-.82.35h-.66ZM31,42.51v5.35h.67V46.11h.63l1.13,1.75h.77L33,46a1.52,1.52,0,0,0,.64-.43,1.75,1.75,0,0,0,.54-1.27,1.72,1.72,0,0,0-.53-1.26,1.88,1.88,0,0,0-1.12-.54Zm5.77,0v5.35h2.92v-.58H37.4v-1.8h2.24v-.59H37.4v-1.8h2.24v-.58Zm9.35,0v4.28l-3-4.28h-.67v5.35H43V43.69l3,4.17h.75V42.51Zm13.39,0v2.38h-2.2V42.51h-.68v5.35h.68V45.48h2.2v2.38h.67V42.51Zm32,0-1.72,2.25L88,42.51h-.71v5.35H88V43.51l1.76,2.31,1.76-2.31v4.35h.67V42.51Zm3.38,0v5.35h2.91v-.58H95.52v-1.8h2.24v-.59H95.52v-1.8h2.24v-.58Zm5.35,0v.58h1.28v4.77h.67V43.09h1.27v-.58Zm5.7,5.35h.67V42.51h-.67Zm-55.76-4.6a2.62,2.62,0,0,0-.81,1.92,2.65,2.65,0,0,0,.81,1.94,2.68,2.68,0,0,0,2,.8,2.9,2.9,0,0,0,2-.82l-.47-.42a2.27,2.27,0,0,1-1.52.66,2,2,0,0,1-1.48-.63,2.19,2.19,0,0,1,0-3.05A2,2,0,0,1,52.11,43a2.26,2.26,0,0,1,1.52.65l.47-.42a2.9,2.9,0,0,0-2-.82,2.66,2.66,0,0,0-2,.81m17.11,0a2.65,2.65,0,0,0-.8,1.92,2.68,2.68,0,0,0,.8,1.94,2.72,2.72,0,0,0,2,.8,2.9,2.9,0,0,0,2-.82l-.47-.42a2.27,2.27,0,0,1-1.52.66,2,2,0,0,1-1.48-.63,2.19,2.19,0,0,1,0-3.05A2,2,0,0,1,69.23,43a2.26,2.26,0,0,1,1.52.65l.47-.42a2.9,2.9,0,0,0-2-.82,2.69,2.69,0,0,0-2,.81m15-.45a1.2,1.2,0,0,0,0,1.7,2.36,2.36,0,0,0,.92.54,2.19,2.19,0,0,1,.72.47,1,1,0,0,1,.3.75,1,1,0,0,1-.31.76,1,1,0,0,1-1.42,0,1.34,1.34,0,0,1-.33-.85l-.65.24a1.74,1.74,0,0,0,.47,1,1.66,1.66,0,0,0,1.21.5,1.6,1.6,0,0,0,1.2-.49,1.56,1.56,0,0,0,.49-1.16,1.59,1.59,0,0,0-.49-1.16,2.66,2.66,0,0,0-1.08-.64,2,2,0,0,1-.52-.34.63.63,0,0,1-.19-.47.63.63,0,0,1,.18-.46.57.57,0,0,1,.41-.18.55.55,0,0,1,.42.19,1.12,1.12,0,0,1,.2.39l.6-.24a1.28,1.28,0,0,0-.31-.54,1.3,1.3,0,0,0-1.81,0m27.74.45a2.62,2.62,0,0,0-.81,1.92,2.65,2.65,0,0,0,.81,1.94,2.7,2.7,0,0,0,2,.8,2.87,2.87,0,0,0,2-.82l-.47-.42a2.27,2.27,0,0,1-1.52.66,2,2,0,0,1-1.48-.63,2.19,2.19,0,0,1,0-3.05A2,2,0,0,1,112,43a2.26,2.26,0,0,1,1.52.65l.47-.42a2.87,2.87,0,0,0-2-.82,2.67,2.67,0,0,0-2,.81m7.09-.45a1.16,1.16,0,0,0-.37.85,1.19,1.19,0,0,0,.35.85,2.41,2.41,0,0,0,.93.54,2.15,2.15,0,0,1,.71.47,1.1,1.1,0,0,1,0,1.51,1,1,0,0,1-.72.31,1,1,0,0,1-.71-.3,1.34,1.34,0,0,1-.33-.85l-.65.24a1.69,1.69,0,0,0,.48,1,1.71,1.71,0,0,0,2.41,0,1.61,1.61,0,0,0,0-2.32,2.62,2.62,0,0,0-1.07-.64,2,2,0,0,1-.53-.34.66.66,0,0,1-.18-.47.63.63,0,0,1,.18-.46A.55.55,0,0,1,118,43a.54.54,0,0,1,.41.19,1.28,1.28,0,0,1,.21.39l.6-.24a1.4,1.4,0,0,0-.31-.54,1.26,1.26,0,0,0-.91-.37,1.22,1.22,0,0,0-.9.36m-42.22,3.9a2.2,2.2,0,0,1,0-3.06A2,2,0,0,1,76.36,43a2,2,0,0,1,1.49.63,2.2,2.2,0,0,1,0,3.06,2.08,2.08,0,0,1-1.49.63,2.06,2.06,0,0,1-1.48-.63m-.49-3.47a2.67,2.67,0,0,0-.81,1.94,2.63,2.63,0,0,0,.81,1.93,2.81,2.81,0,0,0,4,0,2.63,2.63,0,0,0,.81-1.93,2.79,2.79,0,0,0-4.76-1.94M59.46,28.92a2.18,2.18,0,0,1,2.14,2.16H57.26a2.26,2.26,0,0,1,2.2-2.16m-5,3v0a5.36,5.36,0,0,0,9.45,3.36l-1.65-1.46a3.33,3.33,0,0,1-2.46,1,2.35,2.35,0,0,1-2.48-2h7.06c0-.27,0-.53,0-.75,0-2.89-1.55-5.52-4.94-5.52a5.06,5.06,0,0,0-5,5.29m21-5.57h2.9c1.42,0,2.29.64,2.29,1.89v0c0,1.12-.81,1.87-2.24,1.87h-3Zm-2.92-2.64V37h2.92V32.71h2.29L80.57,37H84l-3.24-4.73a4.12,4.12,0,0,0,2.84-4.11v0a4.15,4.15,0,0,0-1.13-3,5.3,5.3,0,0,0-3.87-1.35Zm42.86,0V37h10.1V34.36h-7.2V31.57h6.25V29h-6.25V26.29h7.1v-2.6Zm-12.5,3.81v0c0,2.63,1.73,3.37,4.4,4.05,2.21.57,2.67.95,2.67,1.69v0c0,.77-.72,1.25-1.91,1.25a6.09,6.09,0,0,1-4-1.61L102.35,35A8.44,8.44,0,0,0,108,37.14c2.86,0,4.87-1.48,4.87-4.11v0c0-2.31-1.52-3.27-4.21-4-2.29-.59-2.86-.87-2.86-1.75v0c0-.65.59-1.16,1.71-1.16a6.17,6.17,0,0,1,3.44,1.31l1.52-2.2a7.68,7.68,0,0,0-4.93-1.68c-2.71,0-4.64,1.59-4.64,4M23.13,30.32v0a4,4,0,0,1,4-4.12,4,4,0,0,1,4,4.16v0a4,4,0,0,1-4,4.13,4,4,0,0,1-4-4.17m-3.05,0v0a6.8,6.8,0,0,0,7,6.82,6.85,6.85,0,0,0,7.06-6.86v0a6.79,6.79,0,0,0-7-6.81,6.86,6.86,0,0,0-7.07,6.85M44.57,31.9v0a2.49,2.49,0,1,1,4.94,0v0a2.49,2.49,0,1,1-4.94,0m4.9-8.77v5a3.87,3.87,0,0,0-3.16-1.52c-2.4,0-4.62,1.86-4.62,5.25v0c0,3.39,2.25,5.24,4.62,5.24a3.71,3.71,0,0,0,3.16-1.65V37h2.88V23.13ZM26.7,18.58c-2.44,2-3.55,3.16-3.34,3.38s1.4-.33,3.64-1.54c2.42,1.22,3.72,1.74,3.91,1.54s-1-1.35-3.64-3.39a.4.4,0,0,0-.28-.1.39.39,0,0,0-.29.11M6.24,57.13,59.3,61.6l-52.16,5ZM82,61.48l55.75-5.33-.84,10ZM2.5,54.77l.69-8.16L4,54.9Zm138.2-8.93.76,7.92-1.44.13ZM2.22,15.05l1.6-.15-.76,9Zm137.52-.66,1.56.13-.72,8.57ZM6,55.07,4.15,35.23,5.88,14.7l64.5-6.16,67.3,5.68,1.94,20.25L138,54.09l-67.3,6.43ZM6.85,3.18,59,7.58,6.05,12.64ZM81.74,7.45l54.8-5.23,1,9.93Zm-11.38-1L5,1,4,12.84l-4,.38,2.1,22L.3,56.63,4.18,57,5.31,68.81l65.37-6.25,68.13,5.75,1-12.36,3.83-.36h0l-2-21.12,1.84-21.8-3.95-.33L138.37,0Z"/></clipPath><linearGradient id="linear-gradient" y1="68.81" x2="1" y2="68.81" gradientTransform="translate(0 -9851.93) scale(143.68)" gradientUnits="userSpaceOnUse"><stop offset="0" stop-color="#faf4a2"/><stop offset="0.11" stop-color="#f2ed9c"/><stop offset="0.27" stop-color="#dada8d"/><stop offset="0.48" stop-color="#b5ba74"/><stop offset="0.5" stop-color="#b1b771"/><stop offset="0.71" stop-color="#aa9655"/><stop offset="1" stop-color="#9f5e26"/></linearGradient><clipPath id="clip-path-2"><path class="cls-1" d="M94.37,35a3.56,3.56,0,0,1-.41.17,6.64,6.64,0,0,1-1.72.11L91,35.16a1.49,1.49,0,0,0,.54.74,3.38,3.38,0,0,0,2.12.52l.08,0a.69.69,0,0,1,.64,0,.61.61,0,0,0,.63-.08,7,7,0,0,0,.76-.68,6.1,6.1,0,0,0,.48-.65H95.14a.8.8,0,0,1-.31,0,.51.51,0,0,0-.2,0,.8.8,0,0,0-.26.05m4.31-.38L97.07,35a.49.49,0,0,0-.26.21,3.61,3.61,0,0,1-2.14,1.65,10,10,0,0,1-1,.14c.19.1.37.21.56.3a.57.57,0,0,0,.66,0,1.32,1.32,0,0,0,1.38-.07A1.12,1.12,0,0,0,96.82,36a1.16,1.16,0,0,1,.18.22.46.46,0,0,0,.68.13.88.88,0,0,0,.23-.24c.1-.14.19-.29.28-.44l.7-1.16a1.18,1.18,0,0,0-.21,0M87.05,32.26c0,.21,0,.41,0,.62a3.44,3.44,0,0,0,.22,1.45.94.94,0,0,0,.85.64l.1,0c0,.39,0,.54.42.65a.17.17,0,0,1,.14.15c.08.31.19.6.58.63,0,0,.06,0,.08.08a.77.77,0,0,0,.66.36,3.17,3.17,0,0,0,.43,0,.52.52,0,0,0,.56.3,7.93,7.93,0,0,0,1-.1,4.65,4.65,0,0,0,.58-.18l-.11,0a4.07,4.07,0,0,1-2.6-2.31.59.59,0,0,0-.13-.18c-.57-.49-1.12-1-1.71-1.47a7.77,7.77,0,0,0-1-.63l0,0m2.4-.59A14.47,14.47,0,0,0,90,33.11a2.74,2.74,0,0,0,.36.55.22.22,0,0,0,.18.08.26.26,0,0,1,.31.23,1.35,1.35,0,0,1,.08.4.24.24,0,0,0,.19.27,2.53,2.53,0,0,0,.55.09,7.34,7.34,0,0,0,1.8-.23v0l-.19-.09a7,7,0,0,1-1.72-1.12,2.23,2.23,0,0,1-.87-1.8.2.2,0,0,0-.09-.13,5.31,5.31,0,0,0-.56-.2l-.24,0q-.45,0-.3.57M94,31a.2.2,0,0,0-.15.06.59.59,0,0,1-.47.28,2.37,2.37,0,0,1-.65,0c-.42,0-.83-.13-1.22-.2l.12.06c.74.25,1.48.51,2.23.72a4,4,0,0,0,1,.14c.17,0,.21-.06.11-.21s-.26-.38-.41-.56a.77.77,0,0,0-.52-.31Zm2.75-.31a12,12,0,0,0-.87.88.43.43,0,0,0-.07.2.8.8,0,0,1-.5.78,2.54,2.54,0,0,1-.47.14,5.79,5.79,0,0,1-1.9-.12c-.25,0-.49-.11-.73-.13a1.15,1.15,0,0,0-.39.11,1.63,1.63,0,0,0,.22.32c.47.33,1,.65,1.44,1a1.62,1.62,0,0,0,.86.24,1.67,1.67,0,0,0,.39-.06,2.52,2.52,0,0,1,.86-.16.92.92,0,0,0,.76-.35c.28-.37.53-.75.78-1.12a.24.24,0,0,0,0-.1,1.92,1.92,0,0,0,.14-1.43c-.08-.21-.16-.32-.28-.32a.48.48,0,0,0-.29.15m3.16-.48a6.82,6.82,0,0,1-.31.9A4.81,4.81,0,0,1,97.76,33a1.87,1.87,0,0,0-.47.37,3.65,3.65,0,0,1-1.51.88l-.18.07a2.88,2.88,0,0,0,2.76-.43l.1.09c.09.09.19.11.27,0a1.31,1.31,0,0,0,.34-.45,2.93,2.93,0,0,1,.44-.84c.11-.15.24-.3.35-.44-.12-.16-.14-.25,0-.32a.66.66,0,0,0,.27-.47,2.51,2.51,0,0,0-.11-1.4l0,.13M91.67,30a.23.23,0,0,0,.2.34,2.88,2.88,0,0,0,.33.05v.22l.25-.13a1.76,1.76,0,0,1-.55-1,2.38,2.38,0,0,0-.23.49m1.71-1.59a1.79,1.79,0,0,0-.81.39c.77.24.85.82.73,1.52a2.35,2.35,0,0,0,.5-.85,1.06,1.06,0,0,0,0-.8.32.32,0,0,0-.34-.26h-.08m4.91,0a5.15,5.15,0,0,1-.23,1.74c0,.14-.1.27,0,.41a.31.31,0,0,1,0,.17,4.34,4.34,0,0,1-.06.63c-.07.39-.17.77-.26,1.19a.68.68,0,0,0,.21-.1,6.13,6.13,0,0,0,.72-.63,2,2,0,0,0,.61-1.16.85.85,0,0,1,.15-.4.69.69,0,0,0,.07-.59,2.71,2.71,0,0,0-.86-1.29L98.24,28c0,.16,0,.28.05.41m-3.89-.07a1.35,1.35,0,0,0,.35,1.41,4.14,4.14,0,0,1,.38.55c.15.32.27.66.43,1,0-.14.11-.25.14-.37a4.65,4.65,0,0,0,.09-1.62,1.64,1.64,0,0,0-.68-1.22c-.19-.13-.3-.21-.39-.21s-.19.13-.32.43m-2.46-.94a4.9,4.9,0,0,0-1.23.72c-.06.05-.11.11-.21,0a.54.54,0,0,0-.75,0A2.08,2.08,0,0,0,89,29.32a.68.68,0,0,0,0,.34c0,.08.08.16.11.25a1,1,0,0,0,.78.76,2.06,2.06,0,0,0,1.17-.15,1.25,1.25,0,0,1,0-1.34,4.06,4.06,0,0,1,1-1.12c.26-.23.54-.43.84-.66a2.48,2.48,0,0,0-.3-.13l-.19,0a1.58,1.58,0,0,0-.52.12m.65-1.8a.85.85,0,0,0-.34.1,4.1,4.1,0,0,0-.59.66c-.16.21-.08.34.19.37s.31,0,.46,0a2.11,2.11,0,0,1,1.09.36.4.4,0,0,0,.35.06,1.7,1.7,0,0,1,1.74.44,3.17,3.17,0,0,1,.64,1,6.82,6.82,0,0,1,.45,1.83l.16-.11a2.08,2.08,0,0,0,.72-1.54,6.21,6.21,0,0,0-.4-2.49,1,1,0,0,0-.49-.58,2.92,2.92,0,0,0-1.22-.33l-.6,0a12.09,12.09,0,0,0-2.16.23m-5.32,0a.81.81,0,0,0-.36.64.32.32,0,0,1-.1.19,3.44,3.44,0,0,1-.36.28c-.16.11-.32.2-.48.3L86,27a.66.66,0,0,1,0,.2c0,.15-.11.29-.17.44a3.72,3.72,0,0,0-.2.62,3.54,3.54,0,0,0,.57,2.53,3.06,3.06,0,0,0,.85.87L87,31.54a4.56,4.56,0,0,1-.5-1.62A2.57,2.57,0,0,1,87,28.06c.1-.14.22-.27.31-.41.3-.47.58-.95.87-1.42l.67-1.09h-.3a1.78,1.78,0,0,0-1.25.43m10.12-.89a2.12,2.12,0,0,0-1,.28,1.61,1.61,0,0,1,.86.84c.19.4.33.82.48,1.23,0,.1.07.16.18.19a2.63,2.63,0,0,1,.93.5A5,5,0,0,1,100.39,30c0,.15.1.29.14.43s0,0,0,0a.37.37,0,0,0,.05-.11,4.22,4.22,0,0,0,.26-2.88A2.67,2.67,0,0,0,99.94,26c-.39-.34-.82-.62-1.24-.93a1.86,1.86,0,0,0-1.17-.4h-.14m-7.41,0a1.89,1.89,0,0,0-1.12,1.29c-.09.23-.12.47-.22.69a5.11,5.11,0,0,1-1.18,1.59,1.27,1.27,0,0,0-.29,1.39.37.37,0,0,1,0,.18,1.91,1.91,0,0,0,.1,1,4.15,4.15,0,0,0,1.18,1.57c.21.19.44.36.66.54a.23.23,0,0,0,0-.15,1.12,1.12,0,0,1,0-.13,2.17,2.17,0,0,1,0-1.68.26.26,0,0,0,0-.31,2.12,2.12,0,0,1,.24-2.87,5,5,0,0,1,1.45-1,.26.26,0,0,0,.15-.12,2,2,0,0,1,.77-1c.34-.25.71-.46,1.11-.71a6.31,6.31,0,0,0-.73-.38,1.91,1.91,0,0,0-.74-.14,4.11,4.11,0,0,0-1.33.28m1.48-2.11c-.23.17-.44.38-.65.57s-.15.23-.32.16-.09,0-.12,0a1.64,1.64,0,0,0-.51.87l.23-.06a4.42,4.42,0,0,1,1.65-.18,2.08,2.08,0,0,1,1.59.89l0,0a10,10,0,0,1,2.43-.29,1.24,1.24,0,0,1,0-.16,2.38,2.38,0,0,0-1.33-1.48,5,5,0,0,0-2.32-.36s-.09,0-.1,0a.3.3,0,0,0-.25-.13.49.49,0,0,0-.29.12"/></clipPath><linearGradient id="linear-gradient-2" y1="68.81" x2="1" y2="68.81" gradientTransform="translate(85.67 -978.96) scale(14.66)" gradientUnits="userSpaceOnUse"><stop offset="0" stop-color="#b0b1ba"/><stop offset="0.15" stop-color="#b0b1ba"/><stop offset="0.48" stop-color="#fce3ee"/><stop offset="0.76" stop-color="#b0b1ba"/><stop offset="0.86" stop-color="#9fa0a9"/><stop offset="1" stop-color="#83838e"/></linearGradient></defs><title>oderose-logo</title><g class="cls-2"><rect class="cls-3" width="143.68" height="68.81"/></g><g class="cls-4"><rect class="cls-5" x="82.82" y="19.49" width="20.98" height="21.09" transform="translate(20.64 95.83) rotate(-60)"/></g></svg>