<?xml version="1.0" encoding="utf-8"?>
<!-- Generator: Adobe Illustrator 24.0.0, SVG Export Plug-In . SVG Version: 6.00 Build 0)  -->
<svg version="1.1" id="Layer_1" xmlns="http://www.w3.org/2000/svg" xmlns:xlink="http://www.w3.org/1999/xlink" x="0px" y="0px"
	 viewBox="0 0 939 220" style="enable-background:new 0 0 939 220;" xml:space="preserve">
<style type="text/css">
	.st0{fill:#FFFFFF;}
</style>
<g id="_x31_Q95uu.tif_1_">
	<g>
		<path class="st0" d="M212,110.1c0,31.1,0,62.2,0,93.3c0,1.8,0,1.8-1.8,1.8c-62.2,0-124.3,0-186.5,0c-2,0-2,0-2-1.9
			c0-62.2,0-124.4,0-186.6c0-1.7,0-1.7,1.7-1.7c62.3,0,124.5,0,186.8,0c1.8,0,1.8,0,1.8,1.7C212,47.9,212,79,212,110.1z M92.6,140.1
			c-0.8-0.3-1.5-0.9-2.2-0.9c-2.5-0.1-5.1-0.1-7.6-0.1c-0.8,0-1.5,0.5-1.5,1.4c0,1,0.8,1,1.6,1.1c2,0,4-0.1,6.1,0.1
			c0.6,0,1.3,0.6,1.6,1.2c0.1,0.3-0.4,1.1-0.8,1.5c-1,0.9-2.2,1.7-3.1,2.6c-1.4,1.4-1.2,2.8,0.4,3.9c1,0.7,2.1,1.3,3.2,1.8
			c0.9,0.5,1.4,1.2,1.5,2.3c0.2,2.6,0.3,5.2,0.8,7.8c0.7,3.7,2.2,7,4.9,9.8c2.7,2.8,6.1,4.5,9.5,6c1.1,0.5,2.5,0.8,3.7,0.8
			c5.3,0.1,10.7,0.1,16,0c0.6,0,1.3-0.2,1.8-0.5c1-0.6,1.9-1.3,2.9-1.9c6.4-3.9,9.6-9.8,10.9-17c0.3-1.8,0.2-3.8,0.3-5.7
			c0-1.1,0.3-1.8,1.6-1.9c0.7-0.1,1.3-0.3,2-0.6c1.3-0.5,2.2-1.8,1.9-2.9c-0.3-1.4-1.5-1.5-2.6-1.6c-0.4,0-0.8-0.1-1.2,0
			c-1.5,0.1-3.1,0.4-4.6,0.4c-4.4,0.1-8.9,0-13.3,0c-0.4,0-0.8,0.1-1.1-0.1c-0.3-0.1-0.5-0.5-0.6-0.8c0-0.1,0.4-0.5,0.7-0.6
			c0.4-0.1,0.8,0,1.2,0c6.4,0,12.8,0,19.2,0c0.7,0,1.5,0.1,1.6-0.9c0.1-0.9-0.3-1.6-1.2-1.9c-1.2-0.3-1.5-1.2-1.5-2.2
			c0-4.5,0-8.9,0-13.4c0-3.2,0-6.4,0-9.5c0-0.9,0.2-1.7,1.3-1.9c2.2-0.4,2.2-0.4,2.3-2.7c0-0.6,0-1.1,0-1.7c0-0.9-0.4-1.5-1.4-1.5
			c-0.5,0-0.9-0.1-1.4-0.1c-8.1,0-16.2,0-24.4,0.1c-2.8,0-2.8,0-2.8,2.8c0,0,0,0.1,0,0.1c0,3.6,0,3.6,3.5,3.7c1.6,0,1.7,0.1,1.7,1.7
			c0,7.6,0,15.2,0,22.8c0,1-0.3,1.8-1.2,2.4c-0.9,0.7-1.8,1.6-2.6,2.5c-0.8,0.9-0.9,2,0,2.9c0.9,0.9,2,1.5,3,2.4
			c0.4,0.3,0.9,0.8,0.9,1.2c0.2,1.8,0.1,3.6-1,5.2c-1.6,2.5-4.8,3.8-7.9,3.1c-2.8-0.7-5.2-3.6-5.4-6.3c-0.1-2.1,0-2.2,2.1-2.3
			c0.3,0,0.6,0,0.9-0.1c1.2-0.3,2-1.9,1.8-3.3c-0.2-1.4-1.3-1.2-2.2-1.2c-4.3,0.1-8.6,0.3-12.8,0.5c-2.1,0.1-4.1,0-6.2,0
			c-0.3,0-0.7,0-1-0.1c-0.2-0.1-0.5-0.4-0.5-0.6c0-0.3,0.3-0.7,0.5-0.7c0.4-0.1,0.8-0.1,1.3-0.1c6,0,12,0,18.1,0c0.6,0,1.2,0,1.8,0
			c0.9,0,1.2-0.5,1.1-1.4c-0.1-1.2-0.8-1.9-2.5-2c-0.7-0.1-1.4-0.1-1.4-1.1c-0.3-4-0.6-7.9-0.9-11.9c-0.5-6-4.2-9.7-9.7-9.9
			c-5.8-0.3-11.7-0.1-17.5-0.1c-1.6,0-1.9,0.3-1.9,1.9c0,3.8,0,7.6,0,11.3c0,1.8,0.4,2.2,2.3,2.2c2.4,0,4.7,0,7.1,0
			C92.1,136.4,93.2,138,92.6,140.1z M151,162.8c0.1,0,0.1,0,0.2,0c0,2.1-0.1,4.3,0,6.4c0.2,3.8,2.1,6.9,4.5,9.7
			c0.3,0.3,0.8,0.5,1.3,0.5c3.1,0,6.2,0,9.3,0c0.4,0,1-0.2,1.2-0.5c2.2-3.3,3.7-6.9,3.6-11c-0.1-3-0.6-6-0.9-8.9
			c-0.3-2.4-0.7-4.8-1-7.3c-0.3-2-0.6-4.1-0.8-6.1c-0.2-2.4-0.4-4.8-0.6-7.2c-0.1-1.5-0.1-2.9-0.3-4.4c-0.6-4.3-0.8-8.5,0.3-12.8
			c0.5-1.8,1.6-3.1,3.5-3.7c0.9-0.3,1.9-0.7,2.7-1.3c1.5-1,2.8-2.2,2.8-4.2c0-1-0.4-1.5-1.4-1.5c-1.8,0-3.6-0.1-5.4,0
			c-1.1,0-1.5-0.4-1.5-1.5c0.1-3.4,0.1-6.8,0-10.2c0-1.1,0.4-1.5,1.4-1.5c2.7,0,5.4,0,8.1,0c5.1,0,5.1,0,8.7-3.7
			c0.1-0.1,0.2-0.2,0.3-0.3c1.3-1.4,2.4-2.8,1.9-4.8c-0.3-1.1-0.9-2.1-1.6-3c-1.7-2.3-3.5-4.1-6.9-3.9c-3.6,0.3-7.3,0.1-11,0.1
			c-1.9,0-1.9,0-2.3-1.9c-0.3-1.4-1.8-2.3-2.8-1.6c-0.8,0.6-1.5,1-2.4,0.6c-0.2-0.1-0.5,0-0.8,0.1c-0.8,0.2-1.6,0.2-2.4,0.5
			c-1.1,0.4-2.1,1-3.4,0.6c-0.1,0-0.2,0-0.2,0.1c-0.7,1-1.6,1.1-2.7,0.6c-0.1-0.1-0.4-0.1-0.5,0c-1,1.2-2.4,0.9-3.6,1.2
			c-0.4,0.1-0.9,0.1-1.2,0.3c-0.5,0.3-1.2,0.7-1.3,1.2c-0.1,1,0,2.1,0.2,3.2c0.1,0.5,0.9,1.1,1.4,1.1c1.2,0,1.4,0.6,1.4,1.6
			c0,1.2-0.1,2.4,0.9,3.4c3.2,3.5,4.5,7.9,4.7,12.5c0.2,4.7,0.2,9.4,0,14.1c-0.1,4.7-0.6,9.4-0.8,14.1c-0.1,1.4-0.1,2.7-0.3,4.1
			c-0.5,4.5-1.2,9.1-1.6,13.6C151.4,155.1,151.3,159,151,162.8z M106.3,59.4c0.1,0.2,0.3,0.3,0.4,0.5c-0.5,0.4-1,0.8-1.4,1.2
			c-4.1,3.7-8.2,7.4-12.3,11.2c-4,3.7-7.2,8.1-9.6,13c-0.8,1.7-1.2,3.2,0.2,4.8c1.1,1.3,1.9,1.3,2.9-0.1c2.5-3.8,5-7.6,7.4-11.4
			c3.2-5,6.6-9.8,11.5-13.3c4.1-2.9,8.5-5.5,12.8-8.2c0.2-0.1,1.1,0.1,1.2,0.3c0.6,1.6,1.7,2.1,3.2,1.9c0.5,0,1,0,1.5,0
			c4.1,0,8.2,0,12.3,0c1.7,0,2.2-0.5,2.3-2.2c0-0.6-0.1-1.3,0.1-1.9c0.8-3.1,0.3-5.8-1.4-8.5c-2-3-4.7-4.8-8.2-5.2
			c-4.3-0.4-8.4,0.1-12.6,1.6c-8.1,2.8-15.2,7.5-21.9,12.6c-2.7,2-5.2,4.2-7.7,6.5C82.6,66,78.3,69.9,74,73.9
			c-0.9,0.8-1.2,1.7-1.2,2.9c0,2.4,0,4.7,0,7.1c0,3.5-0.3,3.3,3.4,3.3c1.6,0,2.5-0.6,3.3-1.9c2.4-4,5-7.8,8.3-11.1
			c4.6-4.6,9.2-9.3,14.8-12.7C103.9,60.7,105.1,60.1,106.3,59.4z M79,131.6c0-3.7,0-7.4,0-11.1c0-1-0.3-1.6-1.5-1.6
			c-3.3,0-6.5,0-9.8,0c-0.4,0-1.2,0.5-1.2,0.8c0,1.5-0.9,1.6-2.1,1.6c-5.5,0-11.1,0-16.6,0c-1.7,0-2,0.3-2,2.1c0,3.7,0,7.5,0,11.2
			c0,2,0.2,2.2,2.2,2.3c5.1,0,10.1,0,15.2,0c0.4,0,0.9-0.1,1.3,0.1c0.3,0.1,0.6,0.5,0.6,0.8c0,0.3-0.3,0.7-0.6,0.8
			c-0.3,0.1-0.7,0.1-1,0.1c-5.3,0.1-10.6,0.3-15.8,0.4c-0.2,0-0.3,0-0.5,0c-0.8,0.1-1.3,0.3-1.3,1.2c0,0.9,0.6,1.3,1.4,1.3
			c0.5,0,0.9,0,1.4,0c5.2,0,10.4,0,15.6,0c0.9,0,1.9,0,2,1.1c0.2,1.1,0.8,1.3,1.7,1.3c3.1,0,6.2,0,9.3,0c1.2,0,1.6-0.6,1.6-1.8
			C78.9,138.7,79,135.1,79,131.6z M168.6,69.8c0,0.1,0,0.3,0,0.4c-0.5,0.1-1,0.2-1.5,0.2c-6.3,0-12.6,0-18.8,0
			c-0.6,0-1.1-0.1-1.7,0.1c-0.4,0.1-1.1,0.6-1,0.7c0.3,1.2,0.8,2.3,1.3,3.4c0.1,0.1,0.7,0,1,0c1.3-0.1,2.7-0.2,4-0.3
			c0.2,0,0.4,0.3,0.6,0.5c0.6,0.5,1.3,0.6,2,0.1c0.2-0.2,0.5-0.5,0.6-0.4c1.3,0.6,2.5-0.3,3.6-0.2c1.3,0.1,2.7-0.4,4.2,0.3
			c1.1,0.5,2.9-0.1,4.2-0.6c0.9-0.4,1.2-0.2,1.6,0.4c0.9,1.5,0.7,3.1,0.7,4.6c0,2.4,0.1,2.6,2.6,2.5c3.8-0.1,7.6-0.3,11.4-0.5
			c1.6-0.1,1.9-0.3,1.9-2c0-3.4,0-6.9,0-10.3c0-1.8-0.3-3.5-0.9-5.3c-1.8-5.1-6.4-7.6-11.3-8c-3.8-0.3-7.5,0.9-11,2.1
			c-2,0.7-4,1.7-6,2.3c-4.1,1.2-7,3.7-8.6,7.7c-0.7,1.8-0.6,2.1,1.3,2.1c6.1,0,12.2,0,18.3,0C167.7,69.7,168.2,69.7,168.6,69.8z
			 M82.3,101.8c0,0.2,0,0.4,0,0.5c-0.4,0.1-0.7,0.3-1.1,0.3c-5.7,0.2-11.4,0.4-17.1,0.5c-4.4,0.1-8.8,0-13.2,0c-3.6,0-3.6,0-3.5,3.7
			c0,1.3,0.6,1.8,1.8,1.8c1.8,0,3.6,0,5.4,0c10,0,20,0,30,0c1.8,0,1.9-0.2,1.9-1.9c0-1.8,0.1-3.6,0-5.4c0-0.7-0.3-1.5-0.7-2.1
			c-1.5-2.2-3.1-4.3-4.8-6.4c-0.8-1.1-1.8-2.2-3.3-2.2c-7.3,0-14.5,0-21.8,0.1c-0.7,0-1.6,0.5-2,1.1c-1.9,2.7-3.6,5.4-5.4,8.2
			c-0.2,0.4-0.5,1-0.3,1.2c0.3,0.3,0.8,0.4,1.3,0.6c0.3,0.1,0.6,0,0.9,0c10.1,0,20.1,0,30.2,0C81.2,101.6,81.7,101.7,82.3,101.8z
			 M65.5,71.2c0-0.1,0.1-0.2,0.1-0.3c4.3,0,7.6-4.4,6.3-8.5c-1.2-3.8-6.1-5.5-9.8-3.3c-1.1,0.7-1.6,0.6-2.6-0.3
			c-2.6-2.5-5.7-3-8.9-1.6c-3,1.3-4.6,3.9-4.7,7.1c-0.2,6.2,6.6,9.7,10.8,7.4c1.1-0.6,2.2-1.3,3.1-2.1c0.7-0.6,1.1-0.8,1.9-0.2
			C62.8,70.2,64.2,70.7,65.5,71.2z M169.8,125.5c0.5,0.6,0.9,1.1,1.4,1.6c0.5,0.5,1.1,1,1.5,1.6c0.9,1.3,1.6,2.7,2.6,3.8
			c1.3,1.5,2.9,1.4,4.2,0c0.6-0.6,1-1.4,1.6-2c1-1.3,1.9-2.6,2.9-3.9c0.5-0.7,0.7-1.4-0.1-2c-1.2-0.9-1.2-1.1,0-2.1
			c0.8-0.7,0.7-1.9-0.1-2.4c-0.3-0.2-0.7-0.6-0.6-0.8c0.1-0.3,0.5-0.5,0.8-0.8c0.4-0.4,0.9-0.8,1-1.2c0.1-0.8,0.2-1.6-0.8-2.1
			c-0.3-0.1-0.5-0.5-0.8-0.7c0.3-0.2,0.6-0.6,0.9-0.7c1-0.3,1.2-0.9,1.1-1.8c-0.1-0.9-0.6-1.2-1.5-1.2c-1.4,0-2.7,0-4.1-0.1
			c-1.2-0.1-1.8,0.4-2,1.6c-0.2,1.7-0.8,3.3-2.2,4.2c-1.5,1-2.9,2-4.1,3.4c-0.8,1-1,1.3-0.1,2.3c0.6,0.7,0.7,1.3-0.3,1.8
			C170.6,124.3,170.4,124.9,169.8,125.5z M136.1,86.8c0.1,0,0.2,0,0.3,0c-0.3-1.5-0.4-3.2-1-4.6c-0.8-2-2.1-3.9-3-5.9
			c-0.9-1.9-1.7-3.9-2.6-5.9c-0.1-0.3-0.5-0.7-0.8-0.7c-0.3,0-0.6,0.4-0.8,0.6c-0.2,0.2-0.2,0.5-0.4,0.8c-1.8,4-3.6,8-5.4,12.1
			c-0.4,1-1,2-1.1,3c-0.1,1.8-0.4,3.7,0.2,5.3c1.3,3.4,6.4,5.2,9.8,3.6C134.9,93.6,136.6,90.8,136.1,86.8z M177.9,108.9
			C177.9,108.9,177.9,108.9,177.9,108.9c2.2,0,4.5-0.1,6.7,0c1.1,0,1.6-0.5,1.6-1.6c0-2.2,0-4.5,0-6.7c0-1.2-0.6-1.6-1.7-1.6
			c-4.3,0-8.6,0-12.9,0c-1.2,0-1.7,0.5-1.7,1.7c0,2.2,0,4.4,0,6.6c0,1.2,0.5,1.7,1.7,1.7C173.7,108.9,175.8,108.9,177.9,108.9z
			 M64.3,76c-1.6,0-3.2,0-4.8,0c-1.1,0-1.6,0.5-1.6,1.5c0,2.8,0,5.7,0,8.5c0,1,0.5,1.4,1.4,1.4c1.8,0,3.5,0,5.3,0
			c1.1,0,1.6-0.5,1.6-1.6c0-1.8,0-3.7,0-5.5c0-0.8,0.2-1.3,1.2-1.3c0.9,0,1,0.5,1,1.3c0,1.8,0,3.7,0,5.5c0,0.8,0.1,1.5,1.2,1.5
			c1.1,0,1.3-0.7,1.3-1.6c0-2.5,0-5.1,0-7.6c0-1.7-0.6-2.2-2.3-2.2C67.2,76,65.8,76,64.3,76z M129.5,64c2,0,3.9,0,5.9,0
			c1.2,0,1.6-0.5,1.6-1.6c0-1-0.3-1.8-1.5-1.8c-4,0-8.1,0-12.1,0c-1.3,0-1.5,0.8-1.5,1.9c0,1.1,0.5,1.5,1.6,1.5
			C125.5,64,127.5,64,129.5,64z M65.5,71.6c-1.1,0-2.1,0-3.2,0c-0.4,0-1-0.1-1.2,0.2c-0.5,0.4-0.8,1.1-1.2,1.6
			c0.5,0.2,1,0.7,1.4,0.7c2.8-0.1,5.6-0.2,8.4-0.4c0.3,0,0.9-0.5,0.9-0.8c0-0.3-0.4-0.8-0.7-1.1c-0.3-0.2-0.8-0.2-1.2-0.2
			C67.6,71.5,66.5,71.6,65.5,71.6z"/>
		<path class="st0" d="M139.8,130.3c0-3.9,0-7.8,0-11.7c0-0.5,0.4-0.9,0.7-1.4c0.2,0.5,0.7,0.9,0.7,1.4c0,7.8,0,15.6,0,23.3
			c0,0.3,0,0.6-0.1,0.9c-0.1,0.3-0.4,0.6-0.7,0.6c-0.2,0-0.5-0.4-0.6-0.6c-0.1-0.4-0.1-0.9-0.1-1.3
			C139.8,137.7,139.8,134,139.8,130.3C139.8,130.3,139.8,130.3,139.8,130.3z"/>
		<path class="st0" d="M107.6,153.5c0.1,0.5,0.2,1.1,0.2,1.6c0.2,1.6,0.1,3.2,0.5,4.7c0.6,2.3,2.4,3.4,4.3,4.5
			c0.7,0.4,1.4,0.6,2,1.1c0.3,0.3,0.4,0.9,0.6,1.4c-0.5,0.1-1.1,0.5-1.5,0.4c-1.9-0.8-3.6-1.9-4.8-3.5c-2.3-2.9-2.4-6.3-2.1-9.7
			c0-0.2,0.2-0.3,0.3-0.5C107.3,153.5,107.5,153.5,107.6,153.5z"/>
		<path class="st0" d="M164.6,102.9c0,3.2,0,6.4,0,9.5c-0.1,7.2-0.2,14.4-0.3,21.6c-0.1,3.4-0.3,6.8-0.5,10.2c0,0.6,0,1.1-0.8,1.2
			c-0.9,0-0.9-0.6-0.9-1.2c0.1-2.3,0.3-4.5,0.3-6.8c0-14.6,0-29.1,0-43.7c0-0.7,0-1.5,0.1-2.2c0.1-0.8,0.5-1.3,1.3-1
			c0.4,0.1,0.8,0.8,0.8,1.2C164.6,95.4,164.5,99.1,164.6,102.9C164.5,102.9,164.6,102.9,164.6,102.9z"/>
		<path class="st0" d="M164.3,164c0,0.9-0.1,1.7,0,2.6c0.3,2.2-0.7,4-1.7,5.8c-0.7,1.2-1.7,1.3-2.8,0.4c-1.3-1.1-2-2.3-1.9-4.1
			c0.1-2.5-0.4-5.1-0.2-7.6c0.2-1.8,1.2-3.5,2.1-5.1c0.4-0.8,1.3-0.5,2,0c1.7,1.3,2.9,2.9,2.5,5.3C164.1,162.1,164.3,163,164.3,164z
			"/>
		<path class="st0" d="M181,93.8c-0.3,0-0.7,0-1-0.1c-0.2-0.1-0.6-0.3-0.6-0.5c-0.1-0.2,0.1-0.6,0.3-0.8c0.3-0.3,0.7-0.5,1.1-0.6
			c1.9-0.6,2.9-1.8,2.9-3.9c0-0.4,0.3-0.8,0.5-1.2c0.4,0.3,0.9,0.4,1.2,0.8c0.8,1.1,0.9,2.4,0.1,3.6C184.4,92.7,183.1,93.9,181,93.8
			z"/>
		<path class="st0" d="M132.6,47.5c1.5,0.6,2.2,1.8,2.4,3c0.2,1.5,0,3.1-0.1,4.7c-0.1,1.1-1,0.9-1.8,1c-0.8,0-1.5-0.1-1.6-1.1
			c-0.1-1-0.2-1.9,0.8-2.8c0.5-0.4,0.4-1.5,0.5-2.3C132.8,49.1,132.7,48.3,132.6,47.5z"/>
		<path class="st0" d="M177.9,63.2c1.3,0.4,2.3,1.4,2.9,2.6c0.5,1,0.8,2.1,0.8,3.2c0.1,2.7,0,5.3,0,8c0,0.9-0.3,1.4-1.3,1.4
			c-1.1,0-1.4-0.4-1.4-1.5c0-2.7,0.1-5.3,0-8C178.7,67.1,178.2,65.2,177.9,63.2z"/>
		<path class="st0" d="M60.7,62.2c0.7,1.6,0.6,3,0,4.4C59.5,65.7,59.5,63.6,60.7,62.2z"/>
		<path class="st0" d="M129.7,79.6c1.2,1.6,2.2,3,3.1,4.4c2,2.9,0,7.7-3.4,8c-0.9,0.1-2-0.5-2.9-1c-0.6-0.4-0.2-0.8,0.3-1.1
			c0.7-0.3,1.3-0.6,1.9-1c1-0.7,1.5-1.7,1.5-3c-0.1-1.5-0.3-3.1-0.4-4.6C129.8,80.9,129.8,80.3,129.7,79.6z"/>
		<path class="st0" d="M173.6,101.8c0.3-0.1,0.6-0.2,0.9-0.2c2.4,0,4.7,0,7.1,0c1,0,1.5,0.4,1.4,1.5c0,0.9,0,1.8,0,2.7
			c0,0.9-0.4,1.4-1.3,1.4c-2.6,0-5.1,0-7.7-0.1c-0.4,0-0.7-0.4-1.1-0.6c0.4-0.2,0.7-0.6,1.1-0.7c1.8-0.1,3.5-0.1,5.3-0.1
			c1,0,1.8-0.1,1.8-1.4c0-1.3-0.6-1.9-1.8-2c-1.7,0-3.3,0-5,0c-0.2,0-0.5-0.1-0.7-0.2C173.6,102,173.6,101.9,173.6,101.8z"/>
	</g>
</g>
<g>
	<g>
		<path class="st0" d="M279.6,90.4h-11.5v28.3h-23.3V34.9h34.8c20.8,0,31.4,11.8,31.4,27.9C311,77.5,300.9,90.4,279.6,90.4z
			 M277.4,71.9c7,0,9.9-3.6,9.9-9c0-5.6-2.9-9.1-9.9-9.1h-9.3v18.2H277.4z"/>
		<path class="st0" d="M343.7,34.9v65.9h26v17.8h-49.3V34.9H343.7z"/>
		<path class="st0" d="M372.5,34.9h26.6l14.7,32.3l14.7-32.3h26.3l-29.5,57.1v26.6H402V92.1L372.5,34.9z"/>
		<path class="st0" d="M462,34.9h28.2l21,54.4l20.6-54.4h28v83.8h-23.3V72.5l-15.8,46.2h-19.5l-15.9-46.6v46.6H462V34.9z"/>
		<path class="st0" d="M613.2,119.5c-23.8,0-43-17.8-43-43s19.2-42.9,43-42.9c23.9,0,42.9,17.7,42.9,42.9S637,119.5,613.2,119.5z
			 M613.2,97.9c12,0,19.2-8.4,19.2-21.4c0-13.2-7.2-21.5-19.2-21.5c-12.1,0-19.2,8.3-19.2,21.5C594,89.5,601.1,97.9,613.2,97.9z"/>
		<path class="st0" d="M666.2,34.9h23.2v48.6c0,8.7,3.9,14.1,12.7,14.1c8.8,0,13-5.5,13-14.1V34.9h23.3v48.6c0,23.9-16.6,36-36.7,36
			c-20.2,0-35.4-12.1-35.4-36V34.9z"/>
		<path class="st0" d="M746.6,34.9h67.7v18.5h-22.3v65.2h-23.3V53.5h-22.1V34.9z"/>
		<path class="st0" d="M874.6,85.1h-28.4v33.6H823V34.9h23.3v31.5h28.4V34.9h23.3v83.8h-23.3V85.1z"/>
	</g>
	<g>
		<path class="st0" d="M262.3,170.2h-5.8v14.3h-11.8v-42.4h17.6c10.5,0,15.9,6,15.9,14.1C278.2,163.6,273.1,170.2,262.3,170.2z
			 M261.2,160.8c3.5,0,5-1.8,5-4.6c0-2.8-1.4-4.6-5-4.6h-4.7v9.2H261.2z"/>
		<path class="st0" d="M294.8,142.1v33.4h13.2v9h-25v-42.4H294.8z"/>
		<path class="st0" d="M312.3,142.1H324v24.6c0,4.4,2,7.2,6.4,7.2c4.4,0,6.6-2.8,6.6-7.2v-24.6h11.8v24.6c0,12.1-8.4,18.2-18.6,18.2
			c-10.2,0-17.9-6.1-17.9-18.2V142.1z"/>
		<path class="st0" d="M355.3,142.1h14.3l10.6,27.5l10.4-27.5h14.2v42.4H393v-23.4l-8,23.4h-9.9l-8.1-23.6v23.6h-11.8V142.1z"/>
		<path class="st0" d="M432.5,184.5h-21v-42.4h20.3c8.6,0,13.9,4,13.9,11c0,5.1-3,8.5-7.2,9.6c5.1,1.1,8.1,5.4,8.1,10.2
			C446.7,180.1,441.6,184.5,432.5,184.5z M429.3,151.5h-6v7.5h6c2.9,0,4.5-1.2,4.5-3.7C433.7,152.7,432.2,151.5,429.3,151.5z
			 M430.1,167.3h-6.8v7.7h6.9c2.9,0,4.4-1.2,4.4-3.7C434.6,168.7,433,167.3,430.1,167.3z"/>
		<path class="st0" d="M451.9,142.1h11.8v42.4h-11.8V142.1z"/>
		<path class="st0" d="M509.7,142.1v42.4h-11.8l-15.7-23.7v23.7h-11.8v-42.4h11.8l15.7,24v-24H509.7z"/>
		<path class="st0" d="M556.2,156h-12.7c-1.3-2.2-3.7-3.5-7-3.5c-6,0-9.6,4.2-9.6,10.6c0,7.3,3.7,11.2,10.7,11.2
			c4.1,0,7.1-1.9,8.8-5.6h-11.8v-8.5h22v11.4c-2.5,6.2-9.1,13-20.1,13c-13,0-21.5-8.9-21.5-21.6c0-12.6,8.5-21.5,21.5-21.5
			C547.2,141.7,554.5,147.2,556.2,156z"/>
		<path class="st0" d="M594,152.7c0-1.9-1.3-2.8-2.7-2.8c-1.6,0-2.8,1-2.8,2.6c0,1.5,1,3.1,3,5.1l9.9,9.7c0.4-0.8,0.8-1.7,1.1-2.6
			l1.2-2.2h11.7l-1.7,3.4c-1.4,3.3-2.9,6.3-4.8,8.7l10.1,9.9h-13.3l-3.4-3.2c-3.8,2.6-8.3,3.9-13.6,3.9c-10.1,0-16.4-5.2-16.4-13
			c0-5,2.6-9.4,8.1-12.1c-2-2.6-2.8-4.8-2.8-7.4c0-6.2,4.9-11.4,13.9-11.4c9.1,0,13.6,5.6,13.5,11.5H594z M595.1,174.3l-8.4-7.9
			c-2.1,1.3-3.1,3-3.1,4.7c0,2.5,2.1,4.6,5.8,4.6C591.6,175.7,593.5,175.2,595.1,174.3z"/>
		<path class="st0" d="M660,167.4h-14.4v17h-11.8v-42.4h11.8V158H660v-15.9h11.8v42.4H660V167.4z"/>
		<path class="st0" d="M705.7,151.5h-15.3v6.9h13.5v9h-13.5v7.6h15.3v9.4h-27.1v-42.4h27.1V151.5z"/>
		<path class="st0" d="M738.3,177.5h-15l-2.3,6.9h-12.4l15.5-42.4h13.6l15.4,42.4h-12.4L738.3,177.5z M730.8,154.8l-4.5,13.7h9.1
			L730.8,154.8z"/>
		<path class="st0" d="M754.6,142.1h34.3v9.4h-11.3v33h-11.8v-33h-11.2V142.1z"/>
		<path class="st0" d="M793.2,142.1H805v42.4h-11.8V142.1z"/>
		<path class="st0" d="M851,142.1v42.4h-11.8l-15.7-23.7v23.7h-11.8v-42.4h11.8l15.7,24v-24H851z"/>
		<path class="st0" d="M897.5,156h-12.7c-1.3-2.2-3.7-3.5-7-3.5c-6,0-9.6,4.2-9.6,10.6c0,7.3,3.7,11.2,10.7,11.2
			c4.1,0,7.1-1.9,8.8-5.6H876v-8.5h22v11.4c-2.5,6.2-9.1,13-20.1,13c-13,0-21.5-8.9-21.5-21.6c0-12.6,8.5-21.5,21.5-21.5
			C888.5,141.7,895.8,147.2,897.5,156z"/>
	</g>
</g>
</svg>
