<svg id="Layer_1" data-name="Layer 1" xmlns="http://www.w3.org/2000/svg" viewBox="0 0 839.3 689.77"><defs><style>.cls-1{fill:#fff;}.cls-2{fill:none;}.cls-3{fill:#fff;}.cls-4{fill:#fff;}</style></defs><title>root-logo</title><path class="cls-1" d="M221.36,684.28h-2.9l-.84-2.52h-5.06l-.86,2.52h-2.9L214,670h2.18Zm-4.47-4.87-1.75-5.17-1.8,5.17Z"/><path class="cls-1" d="M243.82,670,240,684.28h-2.31l-2.63-8.64-2.62,8.64h-2.32L226.32,670h2.9l2.21,9,2.6-9h2.08l2.59,9,2.22-9Z"/><path class="cls-1" d="M260.74,684.28h-2.9l-.84-2.52h-5.06l-.86,2.52h-2.9L253.37,670h2.17Zm-4.47-4.87-1.75-5.17-1.8,5.17Z"/><path class="cls-1" d="M279.51,684.28h-3.24l-3.67-6.49L270.77,680v4.28H268V670h2.79v6.2l5-6.2h3.38l-4.73,5.65Z"/><path class="cls-1" d="M296,684.28H286.6V670H296v2.48h-6.59v3.34H295v2.48h-5.61v3.46H296Z"/><path class="cls-1" d="M314.62,684.28h-2.48l-5.63-8.74v8.74h-2.79V670h2.48l5.64,8.72V670h2.78Z"/><path class="cls-1" d="M326.9,682.6a1.68,1.68,0,0,1-.24.87,1.79,1.79,0,0,1-.65.63,1.68,1.68,0,0,1-.87.24,1.74,1.74,0,0,1,0-3.48,1.77,1.77,0,0,1,.87.23,1.81,1.81,0,0,1,.65.64A1.68,1.68,0,0,1,326.9,682.6Z"/><path class="cls-1" d="M355.15,680.18a4.41,4.41,0,0,1-.33,1.73,3.46,3.46,0,0,1-.89,1.3,3.92,3.92,0,0,1-1.38.79,5.22,5.22,0,0,1-1.77.28h-6V670h5.73a5.29,5.29,0,0,1,2.36.49,3.44,3.44,0,0,1,1.51,1.38,4.14,4.14,0,0,1,.52,2.12,3.39,3.39,0,0,1-.15,1,3.53,3.53,0,0,1-.43.87,3.42,3.42,0,0,1-.58.65,2.85,2.85,0,0,1-.6.38,3.51,3.51,0,0,1,1.39,1.14A3.39,3.39,0,0,1,355.15,680.18Zm-3-6a1.75,1.75,0,0,0-.22-.87,1.43,1.43,0,0,0-.62-.57,2.3,2.3,0,0,0-1-.2h-2.71v3.28h2.71a2,2,0,0,0,1.36-.44A1.54,1.54,0,0,0,352.17,674.16Zm.19,5.88a1.71,1.71,0,0,0-.47-1.26,1.87,1.87,0,0,0-1.38-.48h-2.9v3.5h2.9a1.8,1.8,0,0,0,1.37-.5A1.74,1.74,0,0,0,352.36,680Z"/><path class="cls-1" d="M372.3,684.28h-9.24V670h2.79V681.8h6.45Z"/><path class="cls-1" d="M390.22,677.16c0,.79,0,1.41,0,1.86a10,10,0,0,1-.16,1.41,5.22,5.22,0,0,1-.43,1.3,4,4,0,0,1-.8,1.11,5.68,5.68,0,0,1-6,1.16,5.41,5.41,0,0,1-1.74-1.16,4.21,4.21,0,0,1-1-1.51,6.59,6.59,0,0,1-.37-1.72c0-.59-.06-1.41-.06-2.45s0-1.86.06-2.46a6.68,6.68,0,0,1,.37-1.72,4.3,4.3,0,0,1,1-1.51,5.58,5.58,0,0,1,1.74-1.16,5.45,5.45,0,0,1,2.12-.39,5.29,5.29,0,0,1,3.85,1.55,4.35,4.35,0,0,1,1,1.51,6,6,0,0,1,.38,1.72C390.2,675.3,390.22,676.12,390.22,677.16Zm-2.78,0q0-1.32-.06-2.1a4.85,4.85,0,0,0-.21-1.17,2.34,2.34,0,0,0-.42-.73,2.1,2.1,0,0,0-.76-.55,2.53,2.53,0,0,0-1-.21,2.5,2.5,0,0,0-1,.21,2.16,2.16,0,0,0-.79.55,2.3,2.3,0,0,0-.42.72,5,5,0,0,0-.19,1.17c0,.52-.06,1.23-.06,2.11s0,1.59.06,2.11a5,5,0,0,0,.19,1.17,2.19,2.19,0,0,0,.42.72,2.52,2.52,0,0,0,3.59,0,2.19,2.19,0,0,0,.42-.72,5.05,5.05,0,0,0,.21-1.17C387.42,678.76,387.44,678.06,387.44,677.16Z"/><path class="cls-1" d="M409.14,677.16c0,.79,0,1.41,0,1.86a10,10,0,0,1-.16,1.41,4.85,4.85,0,0,1-.43,1.3,4,4,0,0,1-.8,1.11,5.68,5.68,0,0,1-6,1.16,5.41,5.41,0,0,1-1.74-1.16,4.21,4.21,0,0,1-1-1.51,6.59,6.59,0,0,1-.37-1.72c0-.59-.06-1.41-.06-2.45s0-1.86.06-2.46a6.68,6.68,0,0,1,.37-1.72,4.3,4.3,0,0,1,1-1.51,5.58,5.58,0,0,1,1.74-1.16,5.45,5.45,0,0,1,2.12-.39,5.29,5.29,0,0,1,3.85,1.55,4.35,4.35,0,0,1,1,1.51,6.32,6.32,0,0,1,.39,1.72Q409.14,675.6,409.14,677.16Zm-2.78,0q0-1.32-.06-2.1a4.85,4.85,0,0,0-.21-1.17,2.34,2.34,0,0,0-.42-.73,2.1,2.1,0,0,0-.76-.55,2.53,2.53,0,0,0-1-.21,2.5,2.5,0,0,0-1,.21,2.24,2.24,0,0,0-.79.55,2.3,2.3,0,0,0-.42.72,5,5,0,0,0-.19,1.17c0,.52-.06,1.23-.06,2.11s0,1.59.06,2.11a5,5,0,0,0,.19,1.17,2.19,2.19,0,0,0,.42.72,2.52,2.52,0,0,0,3.59,0,2.19,2.19,0,0,0,.42-.72,5.05,5.05,0,0,0,.21-1.17C406.34,678.76,406.36,678.06,406.36,677.16Z"/><path class="cls-1" d="M429.56,684.28h-2.78V676l-2.71,5.4h-1.89l-2.73-5.4v8.3h-2.79V670h2.75l3.71,7.69,3.7-7.69h2.74Z"/><path class="cls-1" d="M440.82,682.6a1.68,1.68,0,0,1-.24.87,1.71,1.71,0,0,1-.65.63,1.68,1.68,0,0,1-.87.24,1.76,1.76,0,0,1-1.73-1.74,1.74,1.74,0,0,1,1.73-1.74,1.77,1.77,0,0,1,.87.23,1.74,1.74,0,0,1,.65.64A1.68,1.68,0,0,1,440.82,682.6Z"/><path class="cls-1" d="M468.4,672.52h-3.72v11.76H461.9V672.52h-3.72V670H468.4Z"/><path class="cls-1" d="M486,684.28h-3.24L480,678.6h-2v5.68h-2.79V670h5.58a5,5,0,0,1,2.46.58,4.05,4.05,0,0,1,1.6,1.58,4.44,4.44,0,0,1,.56,2.2,3.78,3.78,0,0,1-.73,2.37,4.06,4.06,0,0,1-1.88,1.37Zm-3.37-9.89a1.78,1.78,0,0,0-1-1.63,2.27,2.27,0,0,0-1.06-.24H478v3.76h2.61a2,2,0,0,0,1.46-.52A1.78,1.78,0,0,0,482.66,674.39Z"/><path class="cls-1" d="M505.36,684.28h-2.9l-.84-2.52h-5.06l-.86,2.52h-2.9L498,670h2.18Zm-4.48-4.87-1.74-5.17-1.8,5.17Z"/><path class="cls-1" d="M522.62,684.28h-2.48l-5.63-8.74v8.74h-2.79V670h2.49l5.63,8.72V670h2.78Z"/><path class="cls-1" d="M540.54,680.08a3.93,3.93,0,0,1-.69,2.32,4.31,4.31,0,0,1-1.9,1.49,6.91,6.91,0,0,1-2.7.5,10.86,10.86,0,0,1-1.56-.1,7.1,7.1,0,0,1-1.32-.31,5.44,5.44,0,0,1-1.2-.57,6.53,6.53,0,0,1-1.12-.89l1.81-1.81a4.6,4.6,0,0,0,3.43,1.2,3.28,3.28,0,0,0,1.88-.45,1.5,1.5,0,0,0,.65-1.3,1.56,1.56,0,0,0-.45-1.2,2.38,2.38,0,0,0-1.26-.5l-1.71-.24a4.83,4.83,0,0,1-2.76-1.18,3.74,3.74,0,0,1-1-2.8,4,4,0,0,1,1.35-3.13,5.26,5.26,0,0,1,3.62-1.19,7.87,7.87,0,0,1,2.61.4,5.45,5.45,0,0,1,2,1.27l-1.76,1.74a3.31,3.31,0,0,0-1.33-.78,5.57,5.57,0,0,0-1.59-.21,2.36,2.36,0,0,0-1.63.51,1.69,1.69,0,0,0-.56,1.3,1.32,1.32,0,0,0,.42,1,2.24,2.24,0,0,0,1.31.56l1.68.24a4.78,4.78,0,0,1,2.72,1.11A3.94,3.94,0,0,1,540.54,680.08Z"/><path class="cls-1" d="M557.56,682.75a5.86,5.86,0,0,1-1.74,1.22,5.15,5.15,0,0,1-2.22.42,5.24,5.24,0,0,1-3.84-1.55,4.21,4.21,0,0,1-1-1.51,6.59,6.59,0,0,1-.37-1.72c0-.59-.06-1.41-.06-2.45s0-1.86.06-2.46a6.68,6.68,0,0,1,.37-1.72,4.3,4.3,0,0,1,1-1.51,5.28,5.28,0,0,1,3.84-1.55,5.5,5.5,0,0,1,2.22.41,6.17,6.17,0,0,1,1.74,1.23l-1.84,1.85a3.92,3.92,0,0,0-1-.77,2.45,2.45,0,0,0-1.15-.24,2.23,2.23,0,0,0-1.76.74,2.34,2.34,0,0,0-.42.73,4.49,4.49,0,0,0-.21,1.18c0,.52-.06,1.23-.06,2.11s0,1.59.06,2.11a4.65,4.65,0,0,0,.2,1.18,2.34,2.34,0,0,0,.43.73,2.19,2.19,0,0,0,1.76.73,2.74,2.74,0,0,0,.85-.11,2.12,2.12,0,0,0,.65-.34,7,7,0,0,0,.62-.54Z"/><path class="cls-1" d="M575.44,684.28h-9.38V670h9.38v2.48h-6.59v3.34h5.61v2.48h-5.61v3.46h6.59Z"/><path class="cls-1" d="M594,684.28H591.5l-5.63-8.74v8.74h-2.79V670h2.48l5.64,8.72V670H594Z"/><path class="cls-1" d="M613.05,677.1v1a11.79,11.79,0,0,1-.27,2.76,4.22,4.22,0,0,1-1.18,2,4.44,4.44,0,0,1-1.66,1,6.42,6.42,0,0,1-2.1.33H602.7V670h5.14a6.42,6.42,0,0,1,2.1.33,4.52,4.52,0,0,1,2.84,3,11.12,11.12,0,0,1,.27,2.68Zm-2.79,0c0-.76,0-1.36,0-1.81a4.81,4.81,0,0,0-.17-1.12,2.14,2.14,0,0,0-.38-.77,2.52,2.52,0,0,0-2.08-.88h-2.1v9.28h2.1a3.13,3.13,0,0,0,1.2-.22,2.46,2.46,0,0,0,.88-.66,1.94,1.94,0,0,0,.31-.57,4.2,4.2,0,0,0,.17-.72c0-.25.06-.57.08-1S610.26,677.77,610.26,677.1Z"/><path class="cls-1" d="M624.36,682.6a1.68,1.68,0,0,1-.24.87,1.71,1.71,0,0,1-.65.63,1.68,1.68,0,0,1-.87.24,1.76,1.76,0,0,1-1.73-1.74,1.74,1.74,0,0,1,1.73-1.74,1.77,1.77,0,0,1,.87.23,1.74,1.74,0,0,1,.65.64A1.68,1.68,0,0,1,624.36,682.6Z"/><rect class="cls-2" width="839.3" height="689.77"/><path class="cls-3" d="M369.21,135.5a6.1,6.1,0,0,0-3.36,7.93l25.94,63.95a6.09,6.09,0,0,0,5.65,3.8,5.94,5.94,0,0,0,2.28-.45,6.07,6.07,0,0,0,3.35-7.93l-25.93-63.94a6.1,6.1,0,0,0-7.93-3.36"/><path class="cls-3" d="M470.1,135.5a6.09,6.09,0,0,0-7.93,3.36L435.75,204A6.09,6.09,0,1,0,447,208.56l26.42-65.13a6.1,6.1,0,0,0-3.35-7.93"/><path class="cls-3" d="M354.68,237.26a6.09,6.09,0,0,0,3.55-11l-53.84-38.37a6.09,6.09,0,0,0-7.07,9.93l53.83,38.36a6,6,0,0,0,3.53,1.13"/><path class="cls-3" d="M477.42,236.29a6.09,6.09,0,0,0,8.5,1.43l54.94-39.16a6.09,6.09,0,1,0-7.06-9.92L478.85,227.8a6.09,6.09,0,0,0-1.43,8.49"/><path class="cls-3" d="M496.79,286.38h70.15a6.1,6.1,0,1,0,0-12.19H496.79a6.1,6.1,0,0,0,0,12.19"/><path class="cls-3" d="M272.36,274.19a6.1,6.1,0,0,0,0,12.19h67.58a6.1,6.1,0,0,0,0-12.19Z"/><path class="cls-3" d="M371.4,218.94a6.09,6.09,0,1,0,9.41-7.73l-43.73-53.34a6.09,6.09,0,1,0-9.41,7.72Z"/><path class="cls-3" d="M419.65,127a6.1,6.1,0,0,0-6.09,6l-1.22,70.06a6.09,6.09,0,0,0,6,6.19h.12a6.09,6.09,0,0,0,6.08-6l1.22-70.06a6.1,6.1,0,0,0-6-6.2Z"/><path class="cls-3" d="M348.81,254.57a6.11,6.11,0,0,0-3.88-7.7l-62.8-20.65a6.09,6.09,0,0,0-3.8,11.57l62.79,20.66a6,6,0,0,0,1.9.3,6.09,6.09,0,0,0,5.79-4.18"/><path class="cls-3" d="M461.75,221.13a6.08,6.08,0,0,0,8.54-1.16l40.85-53.7a6.09,6.09,0,0,0-9.69-7.37l-40.86,53.69a6.09,6.09,0,0,0,1.16,8.54"/><path class="cls-3" d="M495.14,263.2l67-20.82a6.08,6.08,0,1,0-3.61-11.62l-67,20.81a6.09,6.09,0,1,0,3.62,11.63"/><path class="cls-3" d="M562.05,482.89h-17.3L536.83,475l9.71-9.7a6.1,6.1,0,1,0-8.62-8.62l-12.23,12.23H460.22l-29.66-29.66h166.9a6.09,6.09,0,0,0,5-9.5L521.83,310a6.08,6.08,0,0,0-10.09,0l-32.38,48-19.53-29a63.24,63.24,0,1,0-80.35,0l-19.54,29-32.38-48a6.08,6.08,0,0,0-10.09,0L236.79,429.72a6.1,6.1,0,0,0,5.05,9.5H409.52l-29.66,29.66H314.38l-12.22-12.23a6.1,6.1,0,0,0-8.62,8.62l9.7,9.7-7.91,7.92H278a6.1,6.1,0,0,0,0,12.19h13.72v13.71a6.09,6.09,0,1,0,12.18,0V491.51l10.44-10.44h61.68V492.5l-27.87,27.86H330.9a6.09,6.09,0,0,0,0,12.18h13.73v13.72a6.09,6.09,0,1,0,12.18,0V529l25.57-25.58,9.71,9.71a6.09,6.09,0,0,0,8.61-8.61L388.24,492V477.73l25.32-25.33v71.37l-23.12,23.12h-18.2a6.09,6.09,0,0,0,0,12.18H386v13.72a6.09,6.09,0,1,0,12.18,0V556.4L413.56,541v42.38l-12.23,12.23a6.39,6.39,0,0,0,9.39,8.62l9.33-9.31,9.31,9.31a6,6,0,0,0,4.3,1.78l.39,0,.39,0a6.09,6.09,0,0,0,4.31-10.4l-13-13V540.21l16.19,16.19v16.39a6.1,6.1,0,0,0,12.19,0V559.07h13.72a6.09,6.09,0,0,0,0-12.18H449.65L425.74,523V451.62l26.1,26.11V492l-12.45,12.47A6.09,6.09,0,0,0,448,513.1l9.7-9.71L483.27,529v17.29a6.1,6.1,0,1,0,12.19,0V532.54h13.71a6.09,6.09,0,0,0,0-12.18H491.89L464,492.5V481.07h61.66l10.45,10.44v17.28a6.09,6.09,0,1,0,12.18,0V495.08h13.73a6.1,6.1,0,0,0,0-12.19M447.57,427l31.79-47.17L511.15,427Zm69.22-102.7L586,427H525.84L486.7,369Zm-148.2-44A51.06,51.06,0,1,1,453,318.9L424.71,277a6.09,6.09,0,0,0-10.11,0L386.34,318.9a50.94,50.94,0,0,1-17.75-38.61m74.26,45.42a50.62,50.62,0,0,1-46.4,0l23.2-34.43ZM389.58,335.9a63.14,63.14,0,0,0,60.14,0L472,369,432.88,427H406.43L367.29,369Zm-67.06-11.57L352.6,369,313.46,427H253.3ZM328.15,427l31.79-47.17L391.74,427Z"/><rect class="cls-2" x="235.75" y="127" width="367.8" height="478.99"/><path class="cls-4" d="M0,223.25l12.81-17.74q4.11-5.7,9.59-7.25,6.42-2,12.62,2,8.85,6.39,5.8,17.32l27.09,3.09L62,228.9l-25.53-3.74L30.1,234l18.76,13.14-5,6.89Zm24.2,6.58,7.53-10.42c1.81-2.61,2.49-5,2-7.33a7.88,7.88,0,0,0-3.44-5.27c-2.32-1.57-4.52-2-6.62-1.21a10.28,10.28,0,0,0-5,4.11l-7.79,10.81Z"/><path class="cls-4" d="M69.14,178.77a86.72,86.72,0,0,1-8.45-9.16,14.11,14.11,0,0,1-2.28-4.91,18.41,18.41,0,0,1,0-9.23,19.86,19.86,0,0,1,5.76-9.88,20.67,20.67,0,0,1,10.12-5.73,18.6,18.6,0,0,1,9.25.14,12.06,12.06,0,0,1,5,2.2,96.3,96.3,0,0,1,9.23,8.41,93.66,93.66,0,0,1,8.46,9,12,12,0,0,1,2.28,5,17.46,17.46,0,0,1,.08,9.08,21.67,21.67,0,0,1-15.88,15.6,18.62,18.62,0,0,1-9.33,0c-.86-.27-1.67-.56-2.43-.84a14.58,14.58,0,0,1-2.59-1.47,84.63,84.63,0,0,1-9.23-8.29m6.11-6c3.74,3.69,6.41,6,8,7a8.78,8.78,0,0,0,4.76,1.64,10.32,10.32,0,0,0,4.45-.61A10.5,10.5,0,0,0,97,178.06a11,11,0,0,0,2.91-4.55,10.6,10.6,0,0,0-1.07-9,62.9,62.9,0,0,0-7.18-7.89,65,65,0,0,0-8-7.15,9.31,9.31,0,0,0-4.78-1.51,10,10,0,0,0-4.37.45,13,13,0,0,0-4.58,2.89A12.26,12.26,0,0,0,67,155.71a10.17,10.17,0,0,0-.58,4.42,8.51,8.51,0,0,0,1.59,4.66,60.52,60.52,0,0,0,7.2,8"/><path class="cls-4" d="M126.84,126.41A81.7,81.7,0,0,1,120,116a14.24,14.24,0,0,1-1.43-5.2,18.54,18.54,0,0,1,1.53-9.11,20,20,0,0,1,7.33-8.82,20.9,20.9,0,0,1,10.92-4,18.71,18.71,0,0,1,9.11,1.65,12,12,0,0,1,4.6,3,96.52,96.52,0,0,1,7.71,9.79,99,99,0,0,1,6.83,10.29,11.86,11.86,0,0,1,1.41,5.32,17.46,17.46,0,0,1-1.44,9,21.84,21.84,0,0,1-18.26,12.84,18.86,18.86,0,0,1-9.2-1.51c-.81-.4-1.57-.82-2.27-1.21a15.66,15.66,0,0,1-2.31-1.87,84.63,84.63,0,0,1-7.71-9.69m7-4.93a57,57,0,0,0,6.74,8.27,9,9,0,0,0,4.45,2.38,10.13,10.13,0,0,0,4.47.11,10.68,10.68,0,0,0,4.95-2,11,11,0,0,0,3.63-4,10.63,10.63,0,0,0,.45-9.08,61.69,61.69,0,0,0-5.76-9A64.13,64.13,0,0,0,146,99.84a9.2,9.2,0,0,0-4.46-2.27,10.61,10.61,0,0,0-4.39-.27,13.18,13.18,0,0,0-5,2.13,12.25,12.25,0,0,0-3.58,3.9,10.52,10.52,0,0,0-1.31,4.27,8.33,8.33,0,0,0,.81,4.85,59.86,59.86,0,0,0,5.76,9"/><polygon class="cls-4" points="192.77 62.48 178.93 69.37 175.65 62.97 211.04 45.36 214.32 51.77 200.47 58.64 221.47 99.6 213.76 103.44 192.77 62.48"/><polygon class="cls-4" points="292.8 15.97 301.68 14.25 317.8 49.54 317.95 49.51 321.36 10.43 327.47 9.26 345.6 44.15 345.76 44.12 347.15 5.43 356.04 3.71 352.53 58.45 345.49 59.81 327.4 24.37 327.24 24.38 324.1 63.97 317.07 65.33 292.8 15.97"/><polygon class="cls-4" points="397.72 0.71 433.89 0.01 434.05 7.6 406.46 8.15 406.76 23.27 430.32 22.8 430.47 29.94 406.92 30.41 407.23 45.98 434.81 45.42 434.97 53.03 398.8 53.74 397.72 0.71"/><polygon class="cls-4" points="476.15 2.58 484.67 3.67 478.66 48.73 506.02 52.27 505 59.81 469.13 55.17 476.15 2.58"/><polygon class="cls-4" points="552.97 15.98 561.22 18.34 548.32 61.97 574.83 69.58 572.66 76.88 537.92 66.91 552.97 15.98"/><polygon class="cls-4" points="627.78 40.96 635.07 44.41 641.58 89.34 641.73 89.4 658.34 55.45 666.07 59.13 642.7 106.92 635.37 103.43 628.9 58.53 628.77 58.46 612.16 92.43 604.41 88.75 627.78 40.96"/><polygon class="cls-4" points="706.04 82.79 735.6 103.35 731.15 109.56 708.6 93.89 699.74 106.24 718.98 119.63 714.81 125.46 695.57 112.07 686.46 124.78 709 140.47 704.52 146.68 674.98 126.12 706.04 82.79"/><path class="cls-4" d="M747.83,174.3c5.32,5,9.76,5.78,13.25,2.41,2.83-2.8,2.74-6.2-.23-10.2-1.43-1.78-3-3.73-4.69-5.86-3-3.88-4.41-7.64-4.39-11.27a13.7,13.7,0,0,1,4.15-9.73A14.46,14.46,0,0,1,767.41,135c4.28.17,8.51,2.26,12.75,6.25a32.58,32.58,0,0,1,9.28,16.57l-8.12,1.46a26.59,26.59,0,0,0-7.17-12.57,11.2,11.2,0,0,0-6-3.22,7,7,0,0,0-6.09,2.17,5.69,5.69,0,0,0-1.57,4.28c0,1.78.84,3.8,2.5,6.07.95,1.24,2.27,2.91,4,5,3.32,4.14,4.88,8.11,4.63,11.94a14.34,14.34,0,0,1-4.29,9.68q-11.07,10.59-25.18-2.64a32.6,32.6,0,0,1-10.36-20.09l8.31-.46a25.21,25.21,0,0,0,7.8,14.85"/><path class="cls-4" d="M795.57,228.13q6.67,8.66,12.67,4.46,4.9-3.47,1.43-10.08c-1.12-2-2.33-4.15-3.67-6.52-2.29-4.31-3.11-8.24-2.48-11.82a13.62,13.62,0,0,1,5.67-8.95,14.58,14.58,0,0,1,12.08-2.76q6.29,1.28,11.58,8.19a32,32,0,0,1,6.45,17.83l-8.25.15a26.24,26.24,0,0,0-5-13.53,11.13,11.13,0,0,0-5.44-4.13,7,7,0,0,0-6.4,1.17,5.74,5.74,0,0,0-2.25,4c-.28,1.77.22,3.89,1.49,6.4.74,1.37,1.77,3.22,3.11,5.54q3.93,6.91,2.66,12.52a14.6,14.6,0,0,1-5.83,8.87q-12.66,8.7-24.43-6.58a32.32,32.32,0,0,1-7-21.49l8.27.87a25.16,25.16,0,0,0,5.29,15.89"/><rect class="cls-2" y="0.01" width="839.3" height="253.99"/></svg>