<svg id="Layer_1" data-name="Layer 1" xmlns="http://www.w3.org/2000/svg" xmlns:xlink="http://www.w3.org/1999/xlink" viewBox="0 0 274.86 159.02"><defs><style>.cls-1{fill:none;}.cls-2{clip-path:url(#clip-path);}.cls-3,.cls-4{fill:#fff;}.cls-3,.cls-6{fill-rule:evenodd;}.cls-5,.cls-6{fill:#fff;}.cls-7{fill:#fff;}.cls-8{clip-path:url(#clip-path-2);}.cls-9{fill:#fff;}.cls-10{clip-path:url(#clip-path-3);}.cls-11{fill:#fff;}.cls-12{clip-path:url(#clip-path-5);}.cls-13{fill:#fff;}</style><clipPath id="clip-path" transform="translate(0 0)"><rect class="cls-1" width="274.86" height="159.02"/></clipPath><clipPath id="clip-path-2" transform="translate(0 0)"><path class="cls-1" d="M68.39,43.18a15.84,15.84,0,0,0-6.33,12.9,17.94,17.94,0,0,0,2.86,10.06Q68,71.22,76.78,77.61l5.1,3.67q7.22,5.1,10.18,9a13.85,13.85,0,0,1,2.86,8.85,12.33,12.33,0,0,1-4,9c-2.68,2.66-6.75,4.06-12.18,4.22A22.89,22.89,0,0,1,68.11,110a11.58,11.58,0,0,1-6.17-7.81,10.86,10.86,0,0,1-.3-2c0-.65,0-1.2,0-1.65a1.76,1.76,0,0,0-.14-.84.7.7,0,0,0-.65-.25.63.63,0,0,0-.62.38,3.3,3.3,0,0,0-.28,1.2c-.08.83-.18,2.16-.33,4s-.22,4-.24,6.52a7.24,7.24,0,0,0,.26,2.63A2.32,2.32,0,0,0,61,113.31a31.86,31.86,0,0,0,7.34,2.08,47.26,47.26,0,0,0,7.85.59,40.34,40.34,0,0,0,9-1,27.13,27.13,0,0,0,8.09-3.19c3.82-2.56,6.39-5.4,7.74-8.53a19.4,19.4,0,0,0-1.38-19.11q-3.47-5.37-13.27-12.14l-3.18-2.18q-8-5.39-11-9a11.12,11.12,0,0,1-2.84-7.66,10.41,10.41,0,0,1,4-8.47,16,16,0,0,1,9.91-3q7.65.22,10.73,2.22t3.43,3a10.61,10.61,0,0,1,1,2.44A16.41,16.41,0,0,1,99,51.92a2.61,2.61,0,0,0,.24.94.7.7,0,0,0,.66.35c.28,0,.49-.18.61-.55a5.7,5.7,0,0,0,.19-1.74c0-3.35.09-5.89.22-7.59s.21-2.68.23-2.91a.57.57,0,0,0-.23-.53,1.72,1.72,0,0,0-.9-.16,13,13,0,0,1-1.52-.1c-.58-.07-1.39-.2-2.44-.4a44.82,44.82,0,0,0-4.67-.72c-1.72-.17-3.67-.26-5.87-.27q-10.92.12-17.12,4.94"/></clipPath><linearGradient id="linear-gradient" y1="159.02" x2="1" y2="159.02" gradientTransform="matrix(0, 65.05, 65.05, 0, -10262.92, 44.4)" gradientUnits="userSpaceOnUse"><stop offset="0" stop-color="#160d48"/><stop offset="0.04" stop-color="#13235f"/><stop offset="0.17" stop-color="#0b5e9c"/><stop offset="0.28" stop-color="#0589c9"/><stop offset="0.37" stop-color="#01a4e5"/><stop offset="0.42" stop-color="#00aeef"/><stop offset="0.49" stop-color="#01a6e7"/><stop offset="0.59" stop-color="#0490cf"/><stop offset="0.73" stop-color="#096baa"/><stop offset="0.88" stop-color="#103976"/><stop offset="1" stop-color="#160d48"/></linearGradient><clipPath id="clip-path-3" transform="translate(0 0)"><path class="cls-1" d="M176.48,39.63c-1.52,0-3.24.06-5.15.14s-3.15.13-3.71.14c-.4,0-1.63,0-3.69-.14s-4.17-.13-6.35-.14a2.59,2.59,0,0,0-1.11.17.64.64,0,0,0-.36.62.55.55,0,0,0,.23.44.88.88,0,0,0,.51.15c.44,0,1,0,1.58.07a11,11,0,0,1,1.52.22,4.51,4.51,0,0,1,3,1.83,8,8,0,0,1,.9,3.83c.06,1,.1,2.15.13,3.53s0,3.43,0,6.17,0,6.65,0,11.73V85.84q0,7.2-.05,12.77c0,3.71-.19,6.63-.4,8.76a15.52,15.52,0,0,1-.78,3.65,2.64,2.64,0,0,1-1.87,1.8c-.43.11-.88.2-1.37.28a9.91,9.91,0,0,1-1.38.12.78.78,0,0,0-.56.18.51.51,0,0,0-.16.41.6.6,0,0,0,.35.61,2.6,2.6,0,0,0,1.11.18c1.51,0,3.23-.06,5.13-.15l3.63-.14,3.85.14c2.08.09,4.3.13,6.65.15,1,0,1.48-.28,1.46-.79a.55.55,0,0,0-.16-.41.79.79,0,0,0-.57-.18,16.09,16.09,0,0,1-1.61-.12c-.65-.08-1.29-.17-2-.28a3.39,3.39,0,0,1-2.71-1.8,9.76,9.76,0,0,1-.85-3.65q-.33-3.2-.41-8.76t0-12.77V76.12h.46q1.76,2.32,5.62,7t8.41,10q4.54,5.28,8.36,9.53t5.47,5.77a44,44,0,0,0,5.18,4.1,13.2,13.2,0,0,0,5.87,1.94c1,.09,2,.15,3,.17s2.1,0,3.36,0h4.65a4.53,4.53,0,0,0,1.59-.21c.3-.14.44-.33.42-.58a.49.49,0,0,0-.35-.44,2.05,2.05,0,0,0-.83-.15,14.89,14.89,0,0,1-2.18-.24,14.7,14.7,0,0,1-3.49-1,22.82,22.82,0,0,1-3.77-2.09,34.54,34.54,0,0,1-3.87-3.29c-1.48-1.42-3.47-3.39-6-5.93q-1.53-1.56-5.17-5.56c-2.43-2.66-5.06-5.59-7.9-8.76s-5.39-6-7.65-8.59-3.72-4.24-4.4-5q.82-1.05,3.63-4.11t6.28-6.8L194.38,55c1.92-2,3.19-3.38,3.84-4q3-3.16,5.07-5.2a18.79,18.79,0,0,1,4.79-3.34,15.52,15.52,0,0,1,2.73-1A9.31,9.31,0,0,1,213.2,41a1.17,1.17,0,0,0,.73-.16.63.63,0,0,0,.18-.53.52.52,0,0,0-.31-.53,2.46,2.46,0,0,0-1.06-.16c-.82,0-1.88,0-3.19.07l-3.61.14c-1.1,0-1.76.07-2,.07-1.13,0-2.32,0-3.56-.14s-2.34-.13-3.29-.14a1.63,1.63,0,0,0-.79.16.58.58,0,0,0-.31.53.59.59,0,0,0,.24.46,2.69,2.69,0,0,0,.59.33,1.66,1.66,0,0,1,.86.7,2.56,2.56,0,0,1,.32,1.38,5.92,5.92,0,0,1-1.5,3.12q-1.44,1.84-3.43,4c-.89,1.05-2.4,2.76-4.51,5.12s-4.38,4.91-6.83,7.63l-6.5,7.26q-2.85,3.18-3.54,4h-.36v-6q0-7.62,0-11.73c0-2.74,0-4.8,0-6.17s.07-2.55.13-3.53a9.34,9.34,0,0,1,.84-4,3.44,3.44,0,0,1,2.54-1.71l1.32-.22a6.61,6.61,0,0,1,1-.07.87.87,0,0,0,.5-.15.52.52,0,0,0,.22-.44.62.62,0,0,0-.35-.62,2.55,2.55,0,0,0-1.06-.17h0"/></clipPath><linearGradient id="linear-gradient-2" y1="159.02" y2="159.02" gradientTransform="matrix(0, 65.05, 65.05, 0, -10154.16, 44.4)" xlink:href="#linear-gradient"/><clipPath id="clip-path-5" transform="translate(0 0)"><path class="cls-1" d="M127.13,47.47c-9.54,8-13.82,20.41,1.54,30.6,38.28,24.41-8,46.36-20.89,25.44,3.33,8.34,9.3,11.43,16.54,12.66,29.17,2.71,44.31-26.6,9.12-45.2-12.56-7.38-7.23-16.14-1.27-20.92,14-12.4,19.19-19.33,23.14-29.06-9.43,15.29-16.7,17.53-28.18,26.48"/></clipPath><linearGradient id="linear-gradient-3" y1="159.12" y2="159.12" gradientTransform="matrix(0, 65.05, 65.05, 0, -10212.52, 44.4)" xlink:href="#linear-gradient"/></defs><title>ssk-logo</title><g class="cls-2"><path class="cls-3" d="M1.91,136.59H5a3.88,3.88,0,0,0,2.71-1,3.58,3.58,0,0,0,.85-1.16,3.23,3.23,0,0,0,.3-1.4,3.69,3.69,0,0,0-.28-1.53,3.38,3.38,0,0,0-.91-1.24,4.36,4.36,0,0,0-3.05-1.11h-4v12.39H1.91Zm0-1.12v-5.19H4.66a3.12,3.12,0,0,1,1.07.18,3,3,0,0,1,.93.52,2.23,2.23,0,0,1,.91,1.74,2.52,2.52,0,0,1-.16,1.12,2.43,2.43,0,0,1-.66.89,2.87,2.87,0,0,1-.91.56,3.25,3.25,0,0,1-1.1.18Z" transform="translate(0 0)"/><path class="cls-4" d="M17.44,140.35H13.88a1.92,1.92,0,0,1-1.37-.39,1.89,1.89,0,0,1-.61-1.27v-9.56H10.67v9.33a2.9,2.9,0,0,0,.9,2.27,3.34,3.34,0,0,0,2.31.79h3.56Z" transform="translate(0 0)"/><path class="cls-3" d="M25.71,129.13H24.33l-5.54,12.39h1.58l1.74-4.18h5.74l1.76,4.18H31Zm-3.07,7.1,2.41-5.67,2.37,5.67Z" transform="translate(0 0)"/><path class="cls-4" d="M32.94,138a4,4,0,0,0,.28,1.46,3.5,3.5,0,0,0,.81,1.19,3.62,3.62,0,0,0,2.63,1.06,3.58,3.58,0,0,0,2.62-1.06,3.7,3.7,0,0,0,.82-1.18,3.42,3.42,0,0,0,.26-1.4c0-1.72-1-2.88-2.9-3.47L36,134.16a1.83,1.83,0,0,1-1.44-1.88,1.92,1.92,0,0,1,.15-.83,2,2,0,0,1,.5-.69,2.24,2.24,0,0,1,.74-.48,2.07,2.07,0,0,1,2.28.56,2,2,0,0,1,.58,1.51h1.31a3.34,3.34,0,0,0-1-2.39,3.17,3.17,0,0,0-1.07-.74,3.37,3.37,0,0,0-1.28-.27,3.27,3.27,0,0,0-1.3.23,3.61,3.61,0,0,0-1.13.72,3,3,0,0,0-1,2.33,3.26,3.26,0,0,0,.59,1.91,3.07,3.07,0,0,0,1.63,1.11l1.32.41c1.49.46,2.25,1.27,2.28,2.41a2.25,2.25,0,0,1-.72,1.76,2.41,2.41,0,0,1-1.79.71,2.33,2.33,0,0,1-.92-.2,2.21,2.21,0,0,1-.78-.56,2.43,2.43,0,0,1-.53-.8,2.5,2.5,0,0,1-.17-.95Z" transform="translate(0 0)"/><polygon class="cls-4" points="46.55 130.28 49.37 130.28 49.37 129.13 42.51 129.13 42.51 130.28 45.31 130.28 45.31 141.52 46.55 141.52 46.55 130.28"/><rect class="cls-4" x="51.35" y="129.13" width="1.24" height="12.39"/><path class="cls-3" d="M65.71,138.33a5.06,5.06,0,0,1-1.79,1.6,5.14,5.14,0,0,1-1.2.49,4.75,4.75,0,0,1-1.24.17,5,5,0,0,1-2-.4,5.43,5.43,0,0,1-1.7-1.18,5.13,5.13,0,0,1-1.48-3.77,5.08,5.08,0,0,1,1.53-3.57,4.87,4.87,0,0,1,3.56-1.5,5.13,5.13,0,0,1,2.46.54,4.89,4.89,0,0,1,1.85,1.67h1.4a6.22,6.22,0,0,0-3.85-3.17,7.19,7.19,0,0,0-1.76-.24,6.28,6.28,0,0,0-5.9,3.83,6.42,6.42,0,0,0-.48,2.51,6.5,6.5,0,0,0,.47,2.47,6.6,6.6,0,0,0,1.4,2.1,6,6,0,0,0,4.51,1.88,6.29,6.29,0,0,0,5.61-3.43Z" transform="translate(0 0)"/><path class="cls-3" d="M84.9,129.13H83.52L78,141.52h1.58l1.74-4.18H87l1.76,4.18h1.37Zm-3.07,7.1,2.41-5.67,2.37,5.67Z" transform="translate(0 0)"/><polygon class="cls-4" points="101.91 129.13 100.64 129.13 100.64 139.52 93.8 129.13 92.13 129.13 92.13 141.52 93.41 141.52 93.41 130.74 100.53 141.52 101.91 141.52 101.91 129.13"/><path class="cls-3" d="M108.62,141.52A5.9,5.9,0,0,0,113,139.7a6,6,0,0,0,1.38-2,6.18,6.18,0,0,0,.46-2.37,6.11,6.11,0,0,0-.48-2.44,5.86,5.86,0,0,0-1.44-2,6.87,6.87,0,0,0-4.88-1.77h-3.58v12.39Zm-3-1.16V130.29h2.59a5.39,5.39,0,0,1,3.72,1.4,4.92,4.92,0,0,1,1.19,1.57,4.6,4.6,0,0,1,.43,1.9,4.73,4.73,0,0,1-.32,2,5.19,5.19,0,0,1-1.09,1.7,4.75,4.75,0,0,1-3.58,1.54Z" transform="translate(0 0)"/><path class="cls-4" d="M131,136.89l.35,0a3.44,3.44,0,0,0,1.29-.36,3.78,3.78,0,0,0,1.07-.81,4,4,0,0,0,.71-1.17,3.73,3.73,0,0,0,.27-1.35,4.19,4.19,0,0,0-.29-1.61,3.64,3.64,0,0,0-.9-1.29,4.67,4.67,0,0,0-3.29-1.14h-4v12.39h1.27V130.29h2.77a3.89,3.89,0,0,1,1.27.19,2.8,2.8,0,0,1,1,.6,2.59,2.59,0,0,1,.83,1.88,2.49,2.49,0,0,1-.19,1.17,2.69,2.69,0,0,1-.69.94,3.16,3.16,0,0,1-1.12.63,4.72,4.72,0,0,1-1.46.21h-1.21l4.19,5.61h1.53Z" transform="translate(0 0)"/><path class="cls-4" d="M143.68,140.36h-3.56a1.93,1.93,0,0,1-1.35-.38,2.88,2.88,0,0,1-.46-.65,1.46,1.46,0,0,1-.15-.64v-2.87h4.13v-1.17h-4.13V132a1.51,1.51,0,0,1,.15-.65,3.13,3.13,0,0,1,.46-.65,1.88,1.88,0,0,1,1.35-.38h3.56v-1.16h-3.56a3.34,3.34,0,0,0-2.3.79,3,3,0,0,0-.9,2.26v6.3a3,3,0,0,0,.9,2.25,3.34,3.34,0,0,0,2.3.79h3.56Z" transform="translate(0 0)"/><path class="cls-3" d="M156.05,138.33a5,5,0,0,1-1.78,1.6,5.39,5.39,0,0,1-1.21.49,4.75,4.75,0,0,1-1.24.17,4.89,4.89,0,0,1-2-.4,5.22,5.22,0,0,1-1.7-1.18,5.09,5.09,0,0,1-1.48-3.77,5,5,0,0,1,1.52-3.57,4.89,4.89,0,0,1,3.56-1.5,5.19,5.19,0,0,1,2.47.54,5,5,0,0,1,1.85,1.67h1.4a6.3,6.3,0,0,0-2.26-2.46,6,6,0,0,0-1.6-.71,7.12,7.12,0,0,0-1.76-.24,6.07,6.07,0,0,0-4.49,1.78,6,6,0,0,0-1.41,2.05,6.41,6.41,0,0,0-.47,2.51,6.32,6.32,0,0,0,.47,2.47,6.57,6.57,0,0,0,1.39,2.1,6,6,0,0,0,4.51,1.88,6.32,6.32,0,0,0,5.62-3.43Z" transform="translate(0 0)"/><path class="cls-3" d="M169.85,139.85a6.65,6.65,0,0,0,1.44-2.12,6.51,6.51,0,0,0,.48-2.5,5.9,5.9,0,0,0-.49-2.43,6.09,6.09,0,0,0-1.46-2,6.8,6.8,0,0,0-2.13-1.37,6.6,6.6,0,0,0-2.49-.46,6.34,6.34,0,0,0-2.48.48,6.43,6.43,0,0,0-2.09,1.44,6.27,6.27,0,0,0-1.88,4.58,6,6,0,0,0,.48,2.42,6.23,6.23,0,0,0,1.45,2,6.46,6.46,0,0,0,4.6,1.85,6.34,6.34,0,0,0,2.48-.48,6.55,6.55,0,0,0,2.09-1.43M169,139a5.15,5.15,0,0,1-3.77,1.53,5.18,5.18,0,0,1-3.7-1.55,5.1,5.1,0,0,1,0-7.32,5.34,5.34,0,0,1,1.69-1.15,5.22,5.22,0,0,1,2-.38,5.34,5.34,0,0,1,2,.37,5.54,5.54,0,0,1,1.72,1.12,5.29,5.29,0,0,1,1.19,1.67,5.22,5.22,0,0,1,0,4A5.61,5.61,0,0,1,169,139" transform="translate(0 0)"/><polygon class="cls-4" points="183.86 129.13 182.59 129.13 182.59 139.52 175.75 129.13 174.07 129.13 174.07 141.52 175.36 141.52 175.36 130.74 182.47 141.52 183.86 141.52 183.86 129.13"/><path class="cls-4" d="M186.36,138a4,4,0,0,0,.28,1.46,3.39,3.39,0,0,0,.82,1.19,3.77,3.77,0,0,0,5.24,0,3.55,3.55,0,0,0,.82-1.18,3.42,3.42,0,0,0,.26-1.4c0-1.72-1-2.88-2.9-3.47l-1.49-.47a1.85,1.85,0,0,1-1.44-1.88,1.92,1.92,0,0,1,.15-.83,2,2,0,0,1,.5-.69,2.18,2.18,0,0,1,.75-.48,2,2,0,0,1,.84-.12,2.13,2.13,0,0,1,.79.19,2.27,2.27,0,0,1,.65.49,2,2,0,0,1,.57,1.51h1.31a3.3,3.3,0,0,0-1-2.39,3.17,3.17,0,0,0-1.07-.74,3.48,3.48,0,0,0-2.59,0,3.68,3.68,0,0,0-1.12.72,3,3,0,0,0-1,2.33,3.26,3.26,0,0,0,.59,1.91,3.07,3.07,0,0,0,1.63,1.11l1.32.41c1.49.46,2.26,1.27,2.28,2.41a2.25,2.25,0,0,1-.72,1.76,2.4,2.4,0,0,1-1.79.71,2.33,2.33,0,0,1-.92-.2,2.21,2.21,0,0,1-.78-.56,2.43,2.43,0,0,1-.53-.8,2.5,2.5,0,0,1-.17-.95Z" transform="translate(0 0)"/><polygon class="cls-4" points="199.97 130.28 202.79 130.28 202.79 129.13 195.93 129.13 195.93 130.28 198.73 130.28 198.73 141.52 199.97 141.52 199.97 130.28"/><path class="cls-4" d="M209.52,136.89l.36,0a3.54,3.54,0,0,0,1.29-.36,3.89,3.89,0,0,0,1.06-.81,4,4,0,0,0,.71-1.17,3.73,3.73,0,0,0,.27-1.35,4.19,4.19,0,0,0-.29-1.61,3.51,3.51,0,0,0-.9-1.29,4.65,4.65,0,0,0-3.29-1.14h-4v12.39H206V130.29h2.77a3.89,3.89,0,0,1,1.27.19,2.72,2.72,0,0,1,1,.6,2.59,2.59,0,0,1,.83,1.88,2.49,2.49,0,0,1-.19,1.17,2.57,2.57,0,0,1-.69.94,3.16,3.16,0,0,1-1.12.63,4.72,4.72,0,0,1-1.46.21h-1.21l4.19,5.61H213Z" transform="translate(0 0)"/><path class="cls-4" d="M223.87,129.13h-1.24v8.34a3,3,0,0,1-.87,2.19,2.76,2.76,0,0,1-.95.66,2.86,2.86,0,0,1-1.14.22,2.73,2.73,0,0,1-2.13-.95,3.32,3.32,0,0,1-.63-1.07,3.79,3.79,0,0,1-.21-1.29v-8.1h-1.22v8.32a4.56,4.56,0,0,0,.3,1.68,4.24,4.24,0,0,0,.89,1.38,4.08,4.08,0,0,0,1.33.92,4.45,4.45,0,0,0,3.24,0,3.88,3.88,0,0,0,1.37-.9,4,4,0,0,0,.94-1.39,4.32,4.32,0,0,0,.32-1.67Z" transform="translate(0 0)"/><path class="cls-3" d="M236.92,138.33a5,5,0,0,1-1.79,1.6,5.14,5.14,0,0,1-1.2.49,4.75,4.75,0,0,1-1.24.17,4.89,4.89,0,0,1-2-.4A5.22,5.22,0,0,1,229,139a5.09,5.09,0,0,1-1.48-3.77,5,5,0,0,1,1.52-3.57,4.89,4.89,0,0,1,3.56-1.5,5.19,5.19,0,0,1,2.47.54,4.94,4.94,0,0,1,1.84,1.67h1.4a6.22,6.22,0,0,0-3.85-3.17,7.12,7.12,0,0,0-1.76-.24,6.07,6.07,0,0,0-4.49,1.78,6,6,0,0,0-1.41,2.05,6.41,6.41,0,0,0-.47,2.51,6.5,6.5,0,0,0,.46,2.47,6.77,6.77,0,0,0,1.4,2.1,6,6,0,0,0,4.51,1.88,6.29,6.29,0,0,0,5.61-3.43Z" transform="translate(0 0)"/><polygon class="cls-4" points="243.66 130.28 246.47 130.28 246.47 129.13 239.62 129.13 239.62 130.28 242.42 130.28 242.42 141.52 243.66 141.52 243.66 130.28"/><rect class="cls-4" x="248.46" y="129.13" width="1.24" height="12.39"/><polygon class="cls-4" points="263.61 129.13 262.3 129.13 257.91 139.99 253.53 129.13 252.21 129.13 257.3 141.52 258.52 141.52 263.61 129.13"/><path class="cls-4" d="M272.33,140.36h-3.55a1.94,1.94,0,0,1-1.36-.38,2.54,2.54,0,0,1-.45-.65,1.35,1.35,0,0,1-.16-.64v-2.87H271v-1.17h-4.14V132a1.39,1.39,0,0,1,.16-.65,2.73,2.73,0,0,1,.45-.65,1.89,1.89,0,0,1,1.36-.38h3.55v-1.16h-3.55a3.33,3.33,0,0,0-2.3.79,2.93,2.93,0,0,0-.91,2.26v6.3a2.92,2.92,0,0,0,.91,2.25,3.33,3.33,0,0,0,2.3.79h3.55Z" transform="translate(0 0)"/><path class="cls-5" d="M64.49,159a5.1,5.1,0,0,0,1.08-.12,3.38,3.38,0,0,0,1.05-.43,2.85,2.85,0,0,0,1-1.11,2.79,2.79,0,0,0,.27-1.22,3.14,3.14,0,0,0-.49-1.74,7,7,0,0,0-1.71-1.69l-.38-.28a5.31,5.31,0,0,1-1.12-1.05,1.4,1.4,0,0,1-.3-.88,1.3,1.3,0,0,1,.43-1,1.75,1.75,0,0,1,1.17-.39,1.94,1.94,0,0,1,1,.23,1.6,1.6,0,0,1,.48.43,1.57,1.57,0,0,1,.28.52,1.43,1.43,0,0,1,.07.36c0,.16,0,.24.13.24s.09,0,.12-.09a1.09,1.09,0,0,0,0-.31c0-.51,0-.89,0-1.13s0-.4,0-.48a.12.12,0,0,0,0-.1.3.3,0,0,0-.14-.06c-.18,0-.41-.1-.7-.15a7.76,7.76,0,0,0-1.09-.08,3.5,3.5,0,0,0-2.25.72,2.3,2.3,0,0,0-.84,1.82A2.92,2.92,0,0,0,63,152.6a6.37,6.37,0,0,0,1.55,1.62l.62.48a3.88,3.88,0,0,1,1.07,1.15,1.87,1.87,0,0,1,.24,1,1.51,1.51,0,0,1-.44,1,1.85,1.85,0,0,1-1.36.49,2.12,2.12,0,0,1-1.16-.3,1.76,1.76,0,0,1-.75-1,2.37,2.37,0,0,1-.09-.36,2.31,2.31,0,0,1,0-.32.29.29,0,0,0,0-.16.1.1,0,0,0-.11-.07s-.09,0-.11.1a.73.73,0,0,0,0,.25c0,.12,0,.35,0,.68s0,.69,0,1.07a.73.73,0,0,0,0,.31.36.36,0,0,0,.21.15,3.36,3.36,0,0,0,.9.27,6.83,6.83,0,0,0,1.06.08" transform="translate(0 0)"/><path class="cls-5" d="M84.59,154.54a6.5,6.5,0,0,0,.34,2.27,3.1,3.1,0,0,0,.86,1.28,3.53,3.53,0,0,0,1.59.8,6.89,6.89,0,0,0,1.39.13,4.72,4.72,0,0,0,1.36-.18,3.87,3.87,0,0,0,1.43-.79,3.4,3.4,0,0,0,1-1.82,8.6,8.6,0,0,0,.22-2.21v-3c0-.36,0-.63,0-.82s0-.34,0-.47a1.23,1.23,0,0,1,.12-.54.51.51,0,0,1,.37-.23l.2,0h.19l.18,0a.1.1,0,0,0,.06-.1.09.09,0,0,0-.07-.09.55.55,0,0,0-.21,0l-.9,0-.63,0-.52,0-1,0a.58.58,0,0,0-.21,0,.09.09,0,0,0-.07.09.1.1,0,0,0,.06.1l.17,0h.25l.23,0a.67.67,0,0,1,.44.25,1,1,0,0,1,.14.52c0,.13,0,.29,0,.47v4a10.34,10.34,0,0,1-.11,1.9,2.61,2.61,0,0,1-.66,1.42,2.4,2.4,0,0,1-.91.57,3,3,0,0,1-1,.16,2.83,2.83,0,0,1-.78-.09,2.3,2.3,0,0,1-.89-.46,2.41,2.41,0,0,1-.77-1.12,6.46,6.46,0,0,1-.28-2.18V151c0-.36,0-.63,0-.82s0-.34,0-.47a1.23,1.23,0,0,1,.12-.54.51.51,0,0,1,.37-.23l.2,0h.19l.16,0a.1.1,0,0,0,.06-.1.09.09,0,0,0-.08-.09.57.57,0,0,0-.22,0l-.88,0-.77,0-.86,0-1.1,0a.65.65,0,0,0-.22,0,.09.09,0,0,0-.07.09.1.1,0,0,0,.06.1l.17,0h.29l.23,0a.72.72,0,0,1,.45.25,1,1,0,0,1,.13.52c0,.13,0,.29,0,.47v4.33Z" transform="translate(0 0)"/><path class="cls-6" d="M110.67,154.94c0,.62,0,1.18,0,1.68a9,9,0,0,1-.06,1.18,1.88,1.88,0,0,1-.11.49.36.36,0,0,1-.28.25l-.21,0-.27,0a.37.37,0,0,0-.17,0,.08.08,0,0,0,0,.08c0,.09.09.13.27.13l.92,0,.71,0,.77,0,1.2,0a.49.49,0,0,0,.2,0,.1.1,0,0,0,.07-.1c0-.07,0-.11-.16-.11l-.31,0-.35,0a.5.5,0,0,1-.4-.25,1.3,1.3,0,0,1-.12-.49c0-.29,0-.68-.06-1.18s0-1.06,0-1.69v-.19s0-.07,0-.08a.11.11,0,0,1,.08,0l1.17,0a.3.3,0,0,1,.13,0,.19.19,0,0,1,.11.07c.1.12.27.36.53.73s.52.74.8,1.12a14.12,14.12,0,0,0,1,1.26,3.36,3.36,0,0,0,.85.72,2,2,0,0,0,.57.19,4.9,4.9,0,0,0,.87.06h1.27a.47.47,0,0,0,.19,0,.11.11,0,0,0,.07-.1c0-.07-.06-.11-.16-.11a1.89,1.89,0,0,1-.38,0,2.31,2.31,0,0,1-.54-.18,3.55,3.55,0,0,1-1-.73c-.39-.42-.83-.92-1.31-1.52l-1.6-2a5.41,5.41,0,0,0,1.39-1.54,3,3,0,0,0,.38-1.47,2.35,2.35,0,0,0-.32-1.16,2,2,0,0,0-.59-.67,3.32,3.32,0,0,0-1.19-.48,6.9,6.9,0,0,0-1.28-.1h-.57l-.72,0h-.6l-.76,0-1.08,0a.61.61,0,0,0-.22,0,.09.09,0,0,0-.07.09.1.1,0,0,0,.06.1l.16,0h.3l.23,0a.7.7,0,0,1,.44.25.92.92,0,0,1,.13.52c0,.13,0,.29,0,.47s0,.46,0,.82v3.91Zm1.58-5.38a.21.21,0,0,1,0-.12s0-.05.09-.07a1.55,1.55,0,0,1,.28,0h.43a2.06,2.06,0,0,1,.89.21,2,2,0,0,1,.81.76,2.82,2.82,0,0,1,.36,1.49,3.09,3.09,0,0,1-.25,1.3,1.71,1.71,0,0,1-.54.71,1.41,1.41,0,0,1-.37.18,2.79,2.79,0,0,1-.59.05,3.23,3.23,0,0,1-.53,0,2.36,2.36,0,0,1-.49-.1s-.08,0-.09-.08a.32.32,0,0,1,0-.16Z" transform="translate(0 0)"/><path class="cls-5" d="M143,156.46c0-.67,0-1.21,0-1.61a1.1,1.1,0,0,1,.13-.54.51.51,0,0,1,.38-.23l.2,0h.16l.13,0a.11.11,0,0,0,.05-.09.1.1,0,0,0-.07-.1.53.53,0,0,0-.2,0l-.79,0-.78,0-.86,0-1.08,0a.51.51,0,0,0-.21,0,.1.1,0,0,0-.07.1.11.11,0,0,0,0,.09l.15,0h.29l.23,0a.7.7,0,0,1,.45.25.92.92,0,0,1,.13.52c0,.2,0,.43,0,.69v2.15a.67.67,0,0,1-.05.3.48.48,0,0,1-.2.2,2,2,0,0,1-.56.13l-.58,0a4.69,4.69,0,0,1-2.47-.67,4.38,4.38,0,0,1-1.62-1.79,5.71,5.71,0,0,1-.58-2.59,5.3,5.3,0,0,1,.33-2,3.11,3.11,0,0,1,.9-1.27,3.41,3.41,0,0,1,1.4-.7,5.34,5.34,0,0,1,1.26-.13,5.2,5.2,0,0,1,1.91.36,3.35,3.35,0,0,1,1.08.69,1.52,1.52,0,0,1,.34.58,2.39,2.39,0,0,1,.11.53.33.33,0,0,0,0,.13.11.11,0,0,0,.1,0,.11.11,0,0,0,.11-.06.57.57,0,0,0,0-.22c0-.56,0-1,0-1.29a5.93,5.93,0,0,1,.05-.65c0-.13,0-.22,0-.27a.2.2,0,0,0,0-.11.37.37,0,0,0-.16,0,3.74,3.74,0,0,1-.54-.05l-.52-.09-.53-.08q-.37-.06-.87-.09c-.33,0-.66,0-1-.05a8.87,8.87,0,0,0-1.75.15,5.62,5.62,0,0,0-1.86.72,4.81,4.81,0,0,0-1.62,1.67,5.25,5.25,0,0,0-.71,2.72,5.11,5.11,0,0,0,.87,3,5,5,0,0,0,2.26,1.71,8.41,8.41,0,0,0,3.06.54,10.93,10.93,0,0,0,1.68-.13,5.32,5.32,0,0,0,1.55-.47.27.27,0,0,0,.15-.15,1.15,1.15,0,0,0,0-.34Z" transform="translate(0 0)"/><path class="cls-5" d="M160.78,154.94c0,.62,0,1.18,0,1.68s0,.89-.06,1.18a2,2,0,0,1-.12.49.36.36,0,0,1-.27.24l-.21,0-.27,0a.34.34,0,0,0-.17,0,.09.09,0,0,0-.05.08c0,.09.09.13.27.13h.45l.47,0h1.4l.76,0,1,0,1.33,0a1.66,1.66,0,0,0,.51,0,.4.4,0,0,0,.21-.31,4.28,4.28,0,0,0,.07-.43c0-.2.05-.39.07-.59s0-.36,0-.47a.86.86,0,0,0,0-.17.09.09,0,0,0-.1-.07.11.11,0,0,0-.09.05.26.26,0,0,0-.05.15,2.06,2.06,0,0,1-.21.65.86.86,0,0,1-.4.35,2.25,2.25,0,0,1-.63.14l-.63,0a2.28,2.28,0,0,1-1.3-.22,1.07,1.07,0,0,1-.31-.91v-3.14a.3.3,0,0,1,0-.1.06.06,0,0,1,.06,0h1.37l.54,0a1.14,1.14,0,0,1,.54.18.58.58,0,0,1,.21.34,2.34,2.34,0,0,1,0,.26c0,.08,0,.15,0,.22a.11.11,0,0,0,.12.12.1.1,0,0,0,.11-.08.49.49,0,0,0,0-.17c0-.06,0-.19,0-.39s0-.36,0-.51c0-.34.05-.57.07-.71s0-.23,0-.27,0-.07,0-.08a.09.09,0,0,0-.07,0l-.1.05a.81.81,0,0,0-.11.13.55.55,0,0,1-.25.14,1.89,1.89,0,0,1-.4.06l-.62,0h-1.52a.09.09,0,0,1-.08,0,.31.31,0,0,1,0-.11v-3.4a.25.25,0,0,1,0-.1.1.1,0,0,1,.08,0h.56l.81,0,.53,0a1.67,1.67,0,0,1,.67.18.57.57,0,0,1,.23.31,1.11,1.11,0,0,1,.07.26,2,2,0,0,1,0,.22.26.26,0,0,0,0,.14.09.09,0,0,0,.09.05.11.11,0,0,0,.1-.05.3.3,0,0,0,0-.1q0-.15,0-.45c0-.2,0-.35,0-.43,0-.3,0-.51.07-.64a1.12,1.12,0,0,0,0-.24.11.11,0,0,0,0-.08.07.07,0,0,0-.06,0l-.11,0-.1,0-.24,0-.34,0h-3.72l-.48,0h-1.09a.61.61,0,0,0-.22,0,.08.08,0,0,0-.07.09.1.1,0,0,0,.06.1l.17,0H160l.23,0a.7.7,0,0,1,.45.25,1,1,0,0,1,.13.52c0,.13,0,.29,0,.47V151c0,.37,0,.88,0,1.55Z" transform="translate(0 0)"/><path class="cls-6" d="M183.35,154.94c0,.62,0,1.18,0,1.68s0,.89-.06,1.18a1.53,1.53,0,0,1-.12.49.36.36,0,0,1-.27.25l-.21,0-.27,0a.34.34,0,0,0-.17,0,.09.09,0,0,0-.05.08c0,.09.09.13.27.13l.92,0,.72,0,.76,0,1.21,0a.56.56,0,0,0,.2,0,.11.11,0,0,0,.06-.1c0-.07-.05-.11-.16-.11l-.31,0-.34,0a.48.48,0,0,1-.4-.25,1.3,1.3,0,0,1-.13-.49c0-.29-.05-.68-.06-1.18s0-1.06,0-1.69v-.19a.13.13,0,0,1,0-.08.11.11,0,0,1,.08,0l1.17,0a.27.27,0,0,1,.13,0,.19.19,0,0,1,.11.07c.1.12.28.36.53.73s.52.74.8,1.12.7.94,1,1.26a3.22,3.22,0,0,0,.86.72,1.85,1.85,0,0,0,.56.19,5.06,5.06,0,0,0,.87.06h1.28a.42.42,0,0,0,.18,0,.1.1,0,0,0,.07-.1c0-.07-.05-.11-.16-.11a2,2,0,0,1-.38,0,2.31,2.31,0,0,1-.54-.18,3.55,3.55,0,0,1-1-.73c-.39-.42-.83-.92-1.3-1.52l-1.61-2a5.63,5.63,0,0,0,1.4-1.54,3,3,0,0,0,.37-1.47,2.35,2.35,0,0,0-.31-1.16,2.12,2.12,0,0,0-.6-.67,3.24,3.24,0,0,0-1.19-.48,6.84,6.84,0,0,0-1.28-.1h-.57l-.72,0h-.6l-.76,0-1.08,0a.61.61,0,0,0-.22,0,.09.09,0,0,0-.07.09.1.1,0,0,0,.06.1l.17,0h.29l.23,0a.7.7,0,0,1,.45.25,1,1,0,0,1,.13.52c0,.13,0,.29,0,.47v4.73Zm1.59-5.38a.22.22,0,0,1,0-.12.2.2,0,0,1,.1-.07,1.42,1.42,0,0,1,.28,0h.43a2,2,0,0,1,.88.21,1.89,1.89,0,0,1,.81.76,2.82,2.82,0,0,1,.36,1.49,3.28,3.28,0,0,1-.24,1.3,1.81,1.81,0,0,1-.55.71,1.16,1.16,0,0,1-.37.18,2.69,2.69,0,0,1-.58.05,3.23,3.23,0,0,1-.53,0,2.11,2.11,0,0,1-.49-.1.16.16,0,0,1-.1-.08.34.34,0,0,1,0-.16Z" transform="translate(0 0)"/><path class="cls-5" d="M208.84,156.46V157c0,.24,0,.51,0,.8a1.31,1.31,0,0,1-.11.49.44.44,0,0,1-.3.25l-.21,0-.26,0c-.15,0-.22,0-.22.11a.11.11,0,0,0,.08.1.65.65,0,0,0,.22,0l.9,0,.77,0,.85,0,1.21,0a.56.56,0,0,0,.2,0,.11.11,0,0,0,.08-.1c0-.07-.07-.11-.22-.11l-.33,0-.34,0a.54.54,0,0,1-.41-.25,1,1,0,0,1-.14-.49c0-.29,0-.56,0-.8s0-.43,0-.54v-1.1q0-.33,0-.66a2.67,2.67,0,0,1,.17-.69c.07-.15.22-.43.44-.83s.48-.84.77-1.31.55-.92.8-1.31.44-.66.55-.81.27-.32.37-.42a1.88,1.88,0,0,1,.36-.24,1.75,1.75,0,0,1,.32-.12,1,1,0,0,1,.27,0,.42.42,0,0,0,.18,0,.1.1,0,0,0,.07-.1.1.1,0,0,0-.06-.09l-.18,0h-.42l-.57,0h-.44l-.61,0-.65,0a.42.42,0,0,0-.18,0s-.05,0-.05.09a.11.11,0,0,0,.07.09l.17,0a.4.4,0,0,1,.23.14.29.29,0,0,1,.05.2,1.13,1.13,0,0,1,0,.3,2.25,2.25,0,0,1-.15.4c-.05.11-.17.35-.37.7l-.65,1.18-.64,1.15c-.19.34-.3.56-.35.66-.06-.11-.2-.36-.42-.73s-.46-.8-.73-1.27l-.72-1.27-.41-.74-.11-.26a.64.64,0,0,1,0-.2.25.25,0,0,1,0-.15.19.19,0,0,1,.14-.09l.22-.07s.08,0,.08-.08-.07-.12-.21-.12l-.83,0-.6,0h-.58l-.66,0h-.45a.5.5,0,0,0-.19,0,.1.1,0,0,0,0,.19l.14,0a1,1,0,0,1,.27,0l.29.12a2.47,2.47,0,0,1,.43.36,5.84,5.84,0,0,1,.49.62c.13.19.31.48.56.87l.77,1.25c.26.44.5.82.69,1.15s.31.53.35.6a4.37,4.37,0,0,1,.22.58,3.56,3.56,0,0,1,.08.83Z" transform="translate(0 0)"/><polygon class="cls-7" points="49.52 151.97 49.52 155.1 0 153.25 49.52 151.97"/><polygon class="cls-7" points="227.33 155.1 227.33 151.97 274.86 153.82 227.33 155.1"/></g><g class="cls-8"><rect class="cls-9" x="59.32" y="38.24" width="43.78" height="77.75"/></g><g class="cls-10"><rect class="cls-11" x="156.11" y="39.63" width="67.6" height="74.97"/></g><g class="cls-2"><path class="cls-5" d="M127.23,79.35c-7.62-5.23-10-10.59-9.31-15.55-1.18,5.44.78,11.4,8.17,16.71,31.63,20.95-4.5,38.51-17.67,21v0c13.26,20.19,53.43-.28,18.8-22.15" transform="translate(0 0)"/><path class="cls-5" d="M132.29,52.29c-3,2.4-5,5.11-5.37,8.05,1.55-2.6,4.47-5,6.82-7,7.69-6.82,11.55-11.78,14.2-16.62-3.35,4.55-8.65,9.42-15.65,15.54" transform="translate(0 0)"/></g><g class="cls-12"><rect class="cls-13" x="107.78" y="20.99" width="60.86" height="103.44"/></g><g class="cls-2"><path class="cls-7" d="M120.94,32.93c1.21-4.11,4.92-6.87,8.28-6.16s5.08,4.62,3.87,8.73-4.93,6.87-8.28,6.16-5.09-4.62-3.87-8.73" transform="translate(0 0)"/><path class="cls-7" d="M48.87,111.71C29.46,75,44.61,29.05,82.72,9.15c37.4-19.53,83-6.75,103.06,28.46C164.39,6.34,121.46-4.26,85.93,14.3,47.82,34.2,32.67,80.12,52.09,116.85l1.1,2a76.37,76.37,0,0,1-4.32-7.16" transform="translate(0 0)"/></g></svg>