<?xml version="1.0" encoding="utf-8"?>
<!-- Generator: Adobe Illustrator 23.0.1, SVG Export Plug-In . SVG Version: 6.00 Build 0)  -->
<svg version="1.1" id="Layer_1" xmlns="http://www.w3.org/2000/svg" xmlns:xlink="http://www.w3.org/1999/xlink" x="0px" y="0px"
	 viewBox="0 0 1536 489.58" style="enable-background:new 0 0 1536 489.58;" xml:space="preserve">
<style type="text/css">
	.st0{clip-path:url(#SVGID_2_);fill:#09AA6E;}
	.st1{clip-path:url(#SVGID_2_);fill:#383737;}
</style>
<g>
	<defs>
		<rect id="SVGID_1_" width="1536" height="489.58"/>
	</defs>
	<clipPath id="SVGID_2_">
		<use xlink:href="#SVGID_1_"  style="overflow:visible;"/>
	</clipPath>
	<path class="st0" d="M220.93,163.07c19.85,45.52,31.38,95.5,32.72,148.01c-0.35-6.17-1.01-12.27-1.96-18.26
		C229.9,155.9,35.77,146.5,4.54,281.58C1.57,294.41,0,307.97,0,322.14c0,89.3,62.42,154.77,143.45,165.77
		c8.01,1.12,16.18,1.67,24.48,1.67c18.21,0,35.74-2.69,52.15-7.78c66.82-20.64,114.8-80.86,114.8-159.66
		C334.88,243.58,287.52,183.81,220.93,163.07 M253.82,328.15c-0.03,0.85-0.07,1.67-0.16,2.53c-3.18,52.38-36.26,86.35-85.72,86.35
		c-53.03,0-86.54-37.68-86.54-94.88c0-58.15,33.51-94.88,86.54-94.88c49.56,0,82.7,33.28,85.75,86.61c0.16,2.49,0.26,5.02,0.26,7.58
		C253.95,323.68,253.92,325.92,253.82,328.15"/>
	<path class="st0" d="M212.91,131.08c-47.7-70,24.18-141.61,128.65-129.79c-0.52,0.37-1.39,0.98-2.42,1.77
		c-38.6,29.23-27.87,77.57-51.29,105.32C277.57,120.56,257.27,132.85,212.91,131.08"/>
	<path class="st1" d="M428.82,290.86h-19.65v-45.01h19.65v-5.07c0-46.28,28.53-69.1,82.41-66.25v45.96
		c-20.92-1.27-28.21,5.07-28.21,23.77v1.58h29.16v45.01h-29.16v131.86h-54.2V290.86z"/>
	<path class="st1" d="M532.47,198.31c0-16.48,12.99-29.48,32.33-29.48c19.02,0,32.02,13,32.02,29.48c0,16.17-13,29.16-32.02,29.16
		C545.46,227.47,532.47,214.47,532.47,198.31 M537.54,245.85h54.2v176.87h-54.2V245.85z"/>
	<path class="st1" d="M639.6,290.86h-21.55v-45.01h21.55v-43.11h54.2v43.11h35.5v45.01h-35.5v71c0,10.46,4.44,14.9,16.48,14.9h19.34
		v45.96h-27.58c-36.77,0-62.44-15.53-62.44-61.49V290.86z"/>
	<path class="st1" d="M868.46,243.32c43.74,0,77.98,34.87,77.98,90.66c0,55.79-34.55,91.29-77.98,91.29
		c-25.99,0-44.69-11.73-54.52-27.26v24.73h-54.2V188.16h54.2v82.73C823.76,255.05,843.1,243.32,868.46,243.32 M852.29,290.55
		c-20.29,0-38.67,15.53-38.67,43.74c0,28.21,18.39,43.74,38.67,43.74c20.6,0,38.99-15.85,38.99-44.06S872.9,290.55,852.29,290.55"/>
	<path class="st1" d="M969.89,198.31c0-16.48,13-29.48,32.33-29.48c19.02,0,32.01,13,32.01,29.48c0,16.17-13,29.16-32.01,29.16
		C982.88,227.47,969.89,214.47,969.89,198.31 M974.96,245.85h54.2v176.87h-54.2V245.85z"/>
	<path class="st1" d="M1077.02,290.86h-21.56v-45.01h21.56v-43.11h54.2v43.11h35.5v45.01h-35.5v71c0,10.46,4.44,14.9,16.48,14.9
		h19.34v45.96h-27.58c-36.77,0-62.44-15.53-62.44-61.49V290.86z"/>
	<path class="st1" d="M1275.76,425.26c-51.98,0-89.39-34.87-89.39-90.97c0-56.11,36.77-90.97,89.39-90.97
		c51.67,0,88.12,34.23,88.12,88.12c0,5.07-0.32,10.46-0.95,15.85h-122.67c1.9,23.14,16.17,33.92,33.6,33.92
		c15.21,0,23.77-7.61,28.21-17.12h57.69C1351.2,398.64,1319.82,425.26,1275.76,425.26 M1240.58,317.17h67.83
		c0-19.34-15.21-30.43-33.28-30.43C1257.38,286.74,1243.75,297.52,1240.58,317.17"/>
	<path class="st1" d="M1464.36,425.26c-47.23,0-78.93-26.31-81.46-60.54h53.57c1.27,12.36,12.36,20.6,27.26,20.6
		c13.95,0,21.24-6.34,21.24-14.27c0-28.53-96.36-7.92-96.36-72.9c0-30.11,25.68-54.84,71.95-54.84c45.65,0,71,25.36,74.49,60.23
		h-50.08c-1.58-12.05-10.78-19.97-25.99-19.97c-12.68,0-19.65,5.07-19.65,13.63c0,28.21,95.73,8.24,96.68,74.17
		C1536,402.12,1508.74,425.26,1464.36,425.26"/>
</g>
</svg>
