<?xml version="1.0" encoding="utf-8"?>
<!-- Generator: Adobe Illustrator 20.1.0, SVG Export Plug-In . SVG Version: 6.00 Build 0)  -->
<svg version="1.1" id="Layer_1" xmlns="http://www.w3.org/2000/svg" xmlns:xlink="http://www.w3.org/1999/xlink" x="0px" y="0px"
	 viewBox="0 0 1536 489.6" style="enable-background:new 0 0 1536 489.6;" xml:space="preserve">
<style type="text/css">
	.st0{clip-path:url(#SVGID_2_);fill:#09AA6E;}
	.st1{clip-path:url(#SVGID_2_);fill:#FFFFFF;}
</style>
<g>
	<defs>
		<rect id="SVGID_1_" width="1536" height="489.6"/>
	</defs>
	<clipPath id="SVGID_2_">
		<use xlink:href="#SVGID_1_"  style="overflow:visible;"/>
	</clipPath>
	<path class="st0" d="M220.9,163.1c19.9,45.5,31.4,95.5,32.7,148c-0.3-6.2-1-12.3-2-18.3C229.9,155.9,35.8,146.5,4.5,281.6
		C1.6,294.4,0,308,0,322.1c0,89.3,62.4,154.8,143.4,165.8c8,1.1,16.2,1.7,24.5,1.7c18.2,0,35.7-2.7,52.1-7.8
		c66.8-20.6,114.8-80.9,114.8-159.7C334.9,243.6,287.5,183.8,220.9,163.1 M253.8,328.1c0,0.9-0.1,1.7-0.2,2.5
		c-3.2,52.4-36.3,86.3-85.7,86.3c-53,0-86.5-37.7-86.5-94.9c0-58.2,33.5-94.9,86.5-94.9c49.6,0,82.7,33.3,85.8,86.6
		c0.2,2.5,0.3,5,0.3,7.6C253.9,323.7,253.9,325.9,253.8,328.1"/>
	<path class="st0" d="M212.9,131.1c-47.7-70,24.2-141.6,128.6-129.8c-0.5,0.4-1.4,1-2.4,1.8c-38.6,29.2-27.9,77.6-51.3,105.3
		C277.6,120.6,257.3,132.8,212.9,131.1"/>
	<path class="st1" d="M428.8,290.9h-19.7v-45h19.7v-5.1c0-46.3,28.5-69.1,82.4-66.2v46c-20.9-1.3-28.2,5.1-28.2,23.8v1.6h29.2v45
		H483v131.9h-54.2V290.9z"/>
	<path class="st1" d="M532.5,198.3c0-16.5,13-29.5,32.3-29.5c19,0,32,13,32,29.5c0,16.2-13,29.2-32,29.2
		C545.5,227.5,532.5,214.5,532.5,198.3 M537.5,245.9h54.2v176.9h-54.2V245.9z"/>
	<path class="st1" d="M639.6,290.9H618v-45h21.6v-43.1h54.2v43.1h35.5v45h-35.5v71c0,10.5,4.4,14.9,16.5,14.9h19.3v46H702
		c-36.8,0-62.4-15.5-62.4-61.5V290.9z"/>
	<path class="st1" d="M868.5,243.3c43.7,0,78,34.9,78,90.7s-34.6,91.3-78,91.3c-26,0-44.7-11.7-54.5-27.3v24.7h-54.2V188.2h54.2
		v82.7C823.8,255,843.1,243.3,868.5,243.3 M852.3,290.5c-20.3,0-38.7,15.5-38.7,43.7S832,378,852.3,378c20.6,0,39-15.8,39-44.1
		S872.9,290.5,852.3,290.5"/>
	<path class="st1" d="M969.9,198.3c0-16.5,13-29.5,32.3-29.5c19,0,32,13,32,29.5c0,16.2-13,29.2-32,29.2
		C982.9,227.5,969.9,214.5,969.9,198.3 M975,245.9h54.2v176.9H975V245.9z"/>
	<path class="st1" d="M1077,290.9h-21.6v-45h21.6v-43.1h54.2v43.1h35.5v45h-35.5v71c0,10.5,4.4,14.9,16.5,14.9h19.3v46h-27.6
		c-36.8,0-62.4-15.5-62.4-61.5V290.9z"/>
	<path class="st1" d="M1275.8,425.3c-52,0-89.4-34.9-89.4-91c0-56.1,36.8-91,89.4-91c51.7,0,88.1,34.2,88.1,88.1
		c0,5.1-0.3,10.5-1,15.8h-122.7c1.9,23.1,16.2,33.9,33.6,33.9c15.2,0,23.8-7.6,28.2-17.1h57.7
		C1351.2,398.6,1319.8,425.3,1275.8,425.3 M1240.6,317.2h67.8c0-19.3-15.2-30.4-33.3-30.4C1257.4,286.7,1243.7,297.5,1240.6,317.2"
		/>
	<path class="st1" d="M1464.4,425.3c-47.2,0-78.9-26.3-81.5-60.5h53.6c1.3,12.4,12.4,20.6,27.3,20.6c13.9,0,21.2-6.3,21.2-14.3
		c0-28.5-96.4-7.9-96.4-72.9c0-30.1,25.7-54.8,72-54.8c45.6,0,71,25.4,74.5,60.2H1485c-1.6-12-10.8-20-26-20
		c-12.7,0-19.7,5.1-19.7,13.6c0,28.2,95.7,8.2,96.7,74.2C1536,402.1,1508.7,425.3,1464.4,425.3"/>
</g>
</svg>
