<?xml version="1.0" encoding="utf-8"?>
<!-- Generator: Adobe Illustrator 23.0.1, SVG Export Plug-In . SVG Version: 6.00 Build 0)  -->
<svg version="1.1" id="Layer_1" xmlns="http://www.w3.org/2000/svg" xmlns:xlink="http://www.w3.org/1999/xlink" x="0px" y="0px"
	 viewBox="0 0 1060.56 769.34" style="enable-background:new 0 0 1060.56 769.34;" xml:space="preserve">
<style type="text/css">
	.st0{clip-path:url(#SVGID_2_);fill:url(#SVGID_3_);}
	.st1{clip-path:url(#SVGID_5_);fill:url(#SVGID_6_);}
	.st2{clip-path:url(#SVGID_8_);fill:url(#SVGID_9_);}
	.st3{clip-path:url(#SVGID_11_);fill:url(#SVGID_12_);}
	.st4{clip-path:url(#SVGID_14_);fill:url(#SVGID_15_);}
	.st5{clip-path:url(#SVGID_17_);fill:url(#SVGID_18_);}
	.st6{clip-path:url(#SVGID_20_);fill:url(#SVGID_21_);}
	.st7{clip-path:url(#SVGID_23_);fill:url(#SVGID_24_);}
	.st8{clip-path:url(#SVGID_26_);fill:url(#SVGID_27_);}
	.st9{clip-path:url(#SVGID_29_);fill:url(#SVGID_30_);}
</style>
<g>
	<defs>
		<polygon id="SVGID_1_" points="54.85,743.79 16.59,659.65 0,764.86 11.36,764.86 21.22,695.52 54.7,769.04 88.62,695.52 
			98.04,764.86 109.39,764.86 93.85,659.5 		"/>
	</defs>
	<clipPath id="SVGID_2_">
		<use xlink:href="#SVGID_1_"  style="overflow:visible;"/>
	</clipPath>
	
		<linearGradient id="SVGID_3_" gradientUnits="userSpaceOnUse" x1="1.568974e-06" y1="769.342" x2="1" y2="769.342" gradientTransform="matrix(0 -109.543 -109.543 0 84330.7031 769.0432)">
		<stop  offset="0" style="stop-color:#FAF3A0"/>
		<stop  offset="0.125" style="stop-color:#F4EA99"/>
		<stop  offset="0.3258" style="stop-color:#E3D386"/>
		<stop  offset="0.5773" style="stop-color:#C7AC66"/>
		<stop  offset="0.8669" style="stop-color:#A1783B"/>
		<stop  offset="1" style="stop-color:#8E5D25"/>
	</linearGradient>
	<rect y="659.5" class="st0" width="109.39" height="109.54"/>
</g>
<g>
	<defs>
		<path id="SVGID_4_" d="M209.81,736.76h-42.44l-11.96,28.1h-12.25l45.88-104.46l44.68,104.46h-12.25L209.81,736.76z M205.48,726.3
			l-16.74-39.9l-17.04,39.9H205.48z"/>
	</defs>
	<clipPath id="SVGID_5_">
		<use xlink:href="#SVGID_4_"  style="overflow:visible;"/>
	</clipPath>
	
		<linearGradient id="SVGID_6_" gradientUnits="userSpaceOnUse" x1="-3.820654e-06" y1="769.342" x2="1" y2="769.342" gradientTransform="matrix(0 -104.4619 -104.4619 0 80555.375 764.8586)">
		<stop  offset="0" style="stop-color:#FAF3A0"/>
		<stop  offset="0.125" style="stop-color:#F4EA99"/>
		<stop  offset="0.3258" style="stop-color:#E3D386"/>
		<stop  offset="0.5773" style="stop-color:#C7AC66"/>
		<stop  offset="0.8669" style="stop-color:#A1783B"/>
		<stop  offset="1" style="stop-color:#8E5D25"/>
	</linearGradient>
	<rect x="143.16" y="660.4" class="st1" width="90.56" height="104.46"/>
</g>
<g>
	<defs>
		<rect id="SVGID_7_" x="270.18" y="665.18" width="11.06" height="99.68"/>
	</defs>
	<clipPath id="SVGID_8_">
		<use xlink:href="#SVGID_7_"  style="overflow:visible;"/>
	</clipPath>
	
		<linearGradient id="SVGID_9_" gradientUnits="userSpaceOnUse" x1="-3.999169e-06" y1="769.342" x2="1" y2="769.342" gradientTransform="matrix(0 -99.6797 -99.6797 0 76963.4844 764.8586)">
		<stop  offset="0" style="stop-color:#FAF3A0"/>
		<stop  offset="0.125" style="stop-color:#F4EA99"/>
		<stop  offset="0.3258" style="stop-color:#E3D386"/>
		<stop  offset="0.5773" style="stop-color:#C7AC66"/>
		<stop  offset="0.8669" style="stop-color:#A1783B"/>
		<stop  offset="1" style="stop-color:#8E5D25"/>
	</linearGradient>
	<rect x="270.18" y="665.18" class="st2" width="11.06" height="99.68"/>
</g>
<g>
	<defs>
		<path id="SVGID_10_" d="M329.06,689.24c0,7.47,2.54,12.11,6.87,16.29c4.48,4.33,9.42,6.43,13.3,8.22l8.97,4.18
			c5.23,2.39,9.12,4.18,11.95,6.87c3.59,3.29,4.93,7.17,4.93,11.66c0,10.01-6.43,19.73-20.03,19.73c-5.08,0-10.01-1.2-14.35-5.53
			c-2.84-2.99-5.23-7.47-5.98-12.7l-10.76,2.99c1.35,5.98,4.33,12.85,9.27,17.64c6.87,6.72,15.09,8.07,21.67,8.07
			c17.93,0,31.53-12.26,31.53-30.64c0-7.17-2.09-13-7.17-18.08c-4.18-4.18-9.56-6.87-15.39-9.42l-9.57-4.18
			c-3.74-1.64-7.47-3.29-10.46-6.28c-2.69-2.54-3.74-4.78-3.74-8.67c0-9.27,6.87-15.39,16.74-15.39c5.68,0,9.27,1.94,11.21,3.44
			c2.24,1.79,4.48,4.78,5.83,7.47l8.82-5.83c-2.24-4.33-5.68-8.37-9.71-11.06c-4.93-3.29-9.86-4.48-15.99-4.48
			C340.87,663.53,329.06,673.85,329.06,689.24"/>
	</defs>
	<clipPath id="SVGID_11_">
		<use xlink:href="#SVGID_10_"  style="overflow:visible;"/>
	</clipPath>
	
		<linearGradient id="SVGID_12_" gradientUnits="userSpaceOnUse" x1="-4.168779e-06" y1="769.342" x2="1" y2="769.342" gradientTransform="matrix(0 -103.1162 -103.1162 0 79686.8438 766.6516)">
		<stop  offset="0" style="stop-color:#FAF3A0"/>
		<stop  offset="0.125" style="stop-color:#F4EA99"/>
		<stop  offset="0.3258" style="stop-color:#E3D386"/>
		<stop  offset="0.5773" style="stop-color:#C7AC66"/>
		<stop  offset="0.8669" style="stop-color:#A1783B"/>
		<stop  offset="1" style="stop-color:#8E5D25"/>
	</linearGradient>
	<rect x="323.98" y="663.53" class="st3" width="62.47" height="103.12"/>
</g>
<g>
	<defs>
		<path id="SVGID_13_" d="M435.16,715.09c0-22.87,18.08-41.1,40.5-41.1c22.42,0,40.5,18.23,40.5,41.1c0,22.86-18.08,41.1-40.5,41.1
			C453.24,756.19,435.16,737.96,435.16,715.09 M423.8,715.09c0,29.59,23.01,51.56,51.86,51.56c28.84,0,51.86-21.97,51.86-51.56
			c0-29.74-23.16-51.56-51.86-51.56C446.97,663.53,423.8,685.35,423.8,715.09"/>
	</defs>
	<clipPath id="SVGID_14_">
		<use xlink:href="#SVGID_13_"  style="overflow:visible;"/>
	</clipPath>
	
		<linearGradient id="SVGID_15_" gradientUnits="userSpaceOnUse" x1="-4.168779e-06" y1="769.342" x2="1" y2="769.342" gradientTransform="matrix(0 -103.1162 -103.1162 0 79807.2891 766.6516)">
		<stop  offset="0" style="stop-color:#FAF3A0"/>
		<stop  offset="0.125" style="stop-color:#F4EA99"/>
		<stop  offset="0.3258" style="stop-color:#E3D386"/>
		<stop  offset="0.5773" style="stop-color:#C7AC66"/>
		<stop  offset="0.8669" style="stop-color:#A1783B"/>
		<stop  offset="1" style="stop-color:#8E5D25"/>
	</linearGradient>
	<rect x="423.8" y="663.53" class="st4" width="103.71" height="103.12"/>
</g>
<g>
	<defs>
		<polygon id="SVGID_16_" points="570.25,764.86 581.31,764.86 581.31,687.89 659.02,769.34 659.02,665.18 647.96,665.18 
			647.96,742.44 570.25,660.99 		"/>
	</defs>
	<clipPath id="SVGID_17_">
		<use xlink:href="#SVGID_16_"  style="overflow:visible;"/>
	</clipPath>
	
		<linearGradient id="SVGID_18_" gradientUnits="userSpaceOnUse" x1="0" y1="769.342" x2="1" y2="769.342" gradientTransform="matrix(0 -108.3477 -108.3477 0 83971.0391 769.342)">
		<stop  offset="0" style="stop-color:#FAF3A0"/>
		<stop  offset="0.125" style="stop-color:#F4EA99"/>
		<stop  offset="0.3258" style="stop-color:#E3D386"/>
		<stop  offset="0.5773" style="stop-color:#C7AC66"/>
		<stop  offset="0.8669" style="stop-color:#A1783B"/>
		<stop  offset="1" style="stop-color:#8E5D25"/>
	</linearGradient>
	<rect x="570.25" y="660.99" class="st5" width="88.77" height="108.35"/>
</g>
<g>
	<defs>
		<polygon id="SVGID_19_" points="815.78,743.79 777.52,659.65 760.93,764.86 772.29,764.86 782.15,695.52 815.63,769.04 
			849.55,695.52 858.97,764.86 870.33,764.86 854.78,659.5 		"/>
	</defs>
	<clipPath id="SVGID_20_">
		<use xlink:href="#SVGID_19_"  style="overflow:visible;"/>
	</clipPath>
	
		<linearGradient id="SVGID_21_" gradientUnits="userSpaceOnUse" x1="1.568974e-06" y1="769.342" x2="1" y2="769.342" gradientTransform="matrix(0 -109.543 -109.543 0 85091.6328 769.0432)">
		<stop  offset="0" style="stop-color:#FAF3A0"/>
		<stop  offset="0.125" style="stop-color:#F4EA99"/>
		<stop  offset="0.3258" style="stop-color:#E3D386"/>
		<stop  offset="0.5773" style="stop-color:#C7AC66"/>
		<stop  offset="0.8669" style="stop-color:#A1783B"/>
		<stop  offset="1" style="stop-color:#8E5D25"/>
	</linearGradient>
	<rect x="760.93" y="659.5" class="st6" width="109.39" height="109.54"/>
</g>
<g>
	<defs>
		<path id="SVGID_22_" d="M949.67,686.4l16.74,39.9h-33.78L949.67,686.4z M904.09,764.86h12.26l11.96-28.09h42.44l11.66,28.09h12.25
			L949.97,660.4L904.09,764.86z"/>
	</defs>
	<clipPath id="SVGID_23_">
		<use xlink:href="#SVGID_22_"  style="overflow:visible;"/>
	</clipPath>
	
		<linearGradient id="SVGID_24_" gradientUnits="userSpaceOnUse" x1="5.760649e-06" y1="769.342" x2="1" y2="769.342" gradientTransform="matrix(0 -104.4619 -104.4619 0 81316.3125 764.8586)">
		<stop  offset="0" style="stop-color:#FAF3A0"/>
		<stop  offset="0.125" style="stop-color:#F4EA99"/>
		<stop  offset="0.3258" style="stop-color:#E3D386"/>
		<stop  offset="0.5773" style="stop-color:#C7AC66"/>
		<stop  offset="0.8669" style="stop-color:#A1783B"/>
		<stop  offset="1" style="stop-color:#8E5D25"/>
	</linearGradient>
	<rect x="904.09" y="660.4" class="st7" width="90.56" height="104.46"/>
</g>
<g>
	<defs>
		<path id="SVGID_25_" d="M1049.5,665.18v72.03c0,6.13,0,12.4-3.74,16.14c-1.79,1.79-4.48,2.84-7.47,2.84
			c-3.74,0-8.07-1.94-11.36-5.53l-6.13,8.67c4.48,5.08,10.61,7.32,17.78,7.32c7.32,0,12.4-2.54,15.84-6.28
			c5.76-6.05,6.11-14.73,6.13-22.57v-72.63H1049.5z"/>
	</defs>
	<clipPath id="SVGID_26_">
		<use xlink:href="#SVGID_25_"  style="overflow:visible;"/>
	</clipPath>
	
		<linearGradient id="SVGID_27_" gradientUnits="userSpaceOnUse" x1="-4.233951e-06" y1="769.342" x2="1" y2="769.342" gradientTransform="matrix(0 -101.4727 -101.4727 0 79107.8516 766.6516)">
		<stop  offset="0" style="stop-color:#FAF3A0"/>
		<stop  offset="0.125" style="stop-color:#F4EA99"/>
		<stop  offset="0.3258" style="stop-color:#E3D386"/>
		<stop  offset="0.5773" style="stop-color:#C7AC66"/>
		<stop  offset="0.8669" style="stop-color:#A1783B"/>
		<stop  offset="1" style="stop-color:#8E5D25"/>
	</linearGradient>
	<rect x="1020.8" y="665.18" class="st8" width="39.75" height="101.47"/>
</g>
<g>
	<defs>
		<path id="SVGID_28_" d="M303.85,185.57l179.5,179.5l36.03-36.03l42.46,42.46l-78.49,78.49L335.29,301.91v133.45
			c45.16,58.1,115.71,95.48,194.99,95.48c36.24,0,70.65-7.81,101.65-21.83V358.06l60.04-60.04v172.5
			c18.09-15.7,33.87-33.99,46.77-54.29V194.54l-46.77,46.77l-101.8,101.8l-42.44-42.43L442.1,195.05v72.06l-60.04-60.04V86.59
			C348.13,112.1,321.01,146.16,303.85,185.57 M403.9,71.93L590.17,258.2l130.87-130.87c-45.27-55.06-113.91-90.18-190.76-90.18
			C484.09,37.15,440.87,49.85,403.9,71.93 M259.13,285.35c0-149.51,121.64-271.15,271.15-271.15
			c149.51,0,271.15,121.64,271.15,271.15c0,149.51-121.64,271.15-271.15,271.15C380.77,556.5,259.13,434.86,259.13,285.35 M530.28,0
			C454.06,0,382.4,29.68,328.5,83.58c-53.9,53.9-83.58,125.55-83.58,201.78c0,76.22,29.68,147.88,83.58,201.77
			s125.55,83.58,201.77,83.58c76.22,0,147.88-29.68,201.78-83.58c53.9-53.9,83.58-125.55,83.58-201.77
			c0-76.22-29.68-147.88-83.58-201.78C678.16,29.68,606.5,0,530.28,0z"/>
	</defs>
	<clipPath id="SVGID_29_">
		<use xlink:href="#SVGID_28_"  style="overflow:visible;"/>
	</clipPath>
	
		<linearGradient id="SVGID_30_" gradientUnits="userSpaceOnUse" x1="1.069475e-07" y1="769.342" x2="1" y2="769.342" gradientTransform="matrix(0 -570.7031 -570.7031 0 439596.1563 570.703)">
		<stop  offset="0" style="stop-color:#FAF3A0"/>
		<stop  offset="0.125" style="stop-color:#F4EA99"/>
		<stop  offset="0.3258" style="stop-color:#E3D386"/>
		<stop  offset="0.5773" style="stop-color:#C7AC66"/>
		<stop  offset="0.8669" style="stop-color:#A1783B"/>
		<stop  offset="1" style="stop-color:#8E5D25"/>
	</linearGradient>
	<rect x="244.93" y="0" class="st9" width="570.7" height="570.7"/>
</g>
</svg>
