<?xml version="1.0" encoding="utf-8"?>
<!-- Generator: Adobe Illustrator 23.0.1, SVG Export Plug-In . SVG Version: 6.00 Build 0)  -->
<svg version="1.1" id="Layer_1" xmlns="http://www.w3.org/2000/svg" xmlns:xlink="http://www.w3.org/1999/xlink" x="0px" y="0px"
	 viewBox="0 0 839.3 689.77" style="enable-background:new 0 0 839.3 689.77;" xml:space="preserve">
<style type="text/css">
	.st0{clip-path:url(#SVGID_2_);}
	.st1{fill:#C1A768;}
	.st2{font-family:'DINAlternate-Bold';}
	.st3{font-size:20px;}
	.st4{letter-spacing:5;}
	.st5{letter-spacing:6;}
	.st6{clip-path:url(#SVGID_4_);fill:#1F4742;}
	.st7{clip-path:url(#SVGID_6_);fill:#764833;}
</style>
<g>
	<defs>
		<rect id="SVGID_1_" width="839.3" height="689.77"/>
	</defs>
	<clipPath id="SVGID_2_">
		<use xlink:href="#SVGID_1_"  style="overflow:visible;"/>
	</clipPath>
	<g class="st0">
		<text transform="matrix(1 0 0 1 208.7041 684.2777)" class="st1 st2 st3">A</text>
	</g>
	<g class="st0">
		<text transform="matrix(1 0 0 1 226.2041 684.2777)" class="st1 st2 st3">W</text>
	</g>
	<g class="st0">
		<text transform="matrix(1 0 0 1 248.084 684.2777)" class="st1 st2 st3">A</text>
	</g>
	<g class="st0">
		<text transform="matrix(1 0 0 1 266.3242 684.2777)" class="st1 st2 st3">K</text>
	</g>
	<g class="st0">
		<text transform="matrix(1 0 0 1 284.9443 684.2777)" class="st1 st2 st3">E</text>
	</g>
	<g class="st0">
		<text transform="matrix(1 0 0 1 302.064 684.2777)"><tspan x="0" y="0" class="st1 st2 st3 st4">N</tspan><tspan x="20.14" y="0" class="st1 st2 st3 st4">.</tspan><tspan x="31.98" y="0" class="st1 st2 st3"> </tspan></text>
	</g>
	<g class="st0">
		<text transform="matrix(1 0 0 1 343.1641 684.2777)" class="st1 st2 st3">B</text>
	</g>
	<g class="st0">
		<text transform="matrix(1 0 0 1 361.4043 684.2777)" class="st1 st2 st3">L</text>
	</g>
	<g class="st0">
		<text transform="matrix(1 0 0 1 378.5239 684.2777)"><tspan x="0" y="0" class="st1 st2 st3 st5">O</tspan><tspan x="18.92" y="0" class="st1 st2 st3">O</tspan></text>
	</g>
	<g class="st0">
		<text transform="matrix(1 0 0 1 415.0039 684.2777)" class="st1 st2 st3">M</text>
	</g>
	<g class="st0">
		<text transform="matrix(1 0 0 1 436.124 684.2777)"><tspan x="0" y="0" class="st1 st2 st3 st4">.</tspan><tspan x="11.84" y="0" class="st1 st2 st3"> </tspan></text>
	</g>
	<g class="st0">
		<text transform="matrix(1 0 0 1 457.584 684.2777)" class="st1 st2 st3">T</text>
	</g>
	<g class="st0">
		<text transform="matrix(1 0 0 1 473.584 684.2777)"><tspan x="0" y="0" class="st1 st2 st3 st5">R</tspan><tspan x="19.12" y="0" class="st1 st2 st3">A</tspan></text>
	</g>
	<g class="st0">
		<text transform="matrix(1 0 0 1 510.0645 684.2777)" class="st1 st2 st3">N</text>
	</g>
	<g class="st0">
		<text transform="matrix(1 0 0 1 529.6836 684.2777)" class="st1 st2 st3">S</text>
	</g>
	<g class="st0">
		<text transform="matrix(1 0 0 1 547.1836 684.2777)"><tspan x="0" y="0" class="st1 st2 st3 st4">C</tspan><tspan x="17.22" y="0" class="st1 st2 st3">E</tspan></text>
	</g>
	<g class="st0">
		<text transform="matrix(1 0 0 1 581.4238 684.2777)" class="st1 st2 st3">N</text>
	</g>
	<g class="st0">
		<text transform="matrix(1 0 0 1 601.0439 684.2777)" class="st1 st2 st3">D</text>
	</g>
	<g class="st0">
		<text transform="matrix(1 0 0 1 619.6641 684.2777)" class="st1 st2 st3">.</text>
	</g>
</g>
<g>
	<defs>
		<rect id="SVGID_3_" x="235.75" y="127" width="367.8" height="478.99"/>
	</defs>
	<clipPath id="SVGID_4_">
		<use xlink:href="#SVGID_3_"  style="overflow:visible;"/>
	</clipPath>
	<path class="st6" d="M369.21,135.5c-3.11,1.26-4.62,4.82-3.35,7.93l25.94,63.95c0.96,2.36,3.24,3.8,5.65,3.8
		c0.76,0,1.53-0.15,2.28-0.45c3.12-1.26,4.63-4.82,3.35-7.94l-25.94-63.94C375.87,135.73,372.32,134.25,369.21,135.5"/>
	<path class="st6" d="M470.1,135.5c-3.11-1.25-6.67,0.23-7.93,3.35l-26.42,65.12c-1.26,3.12,0.24,6.67,3.35,7.94
		c0.75,0.3,1.52,0.45,2.29,0.45c2.41,0,4.69-1.44,5.64-3.8l26.42-65.13C474.71,140.32,473.21,136.77,470.1,135.5"/>
	<path class="st6" d="M354.68,237.26c1.9,0,3.77-0.89,4.96-2.55c1.95-2.74,1.32-6.55-1.42-8.5l-53.84-38.36
		c-2.74-1.95-6.54-1.31-8.5,1.43c-1.95,2.74-1.32,6.54,1.43,8.5l53.83,38.37C352.22,236.9,353.46,237.26,354.68,237.26"/>
	<path class="st6" d="M477.42,236.29c1.2,1.67,3.06,2.55,4.97,2.55c1.22,0,2.45-0.37,3.52-1.13l54.94-39.15
		c2.75-1.95,3.39-5.76,1.43-8.5c-1.94-2.74-5.74-3.38-8.49-1.43l-54.95,39.15C476.11,229.75,475.47,233.55,477.42,236.29"/>
	<path class="st6" d="M496.79,286.38h70.16c3.36,0,6.1-2.73,6.1-6.09c0-3.36-2.73-6.1-6.1-6.1h-70.16c-3.36,0-6.09,2.73-6.09,6.1
		C490.7,283.65,493.42,286.38,496.79,286.38"/>
	<path class="st6" d="M272.36,274.19c-3.36,0-6.09,2.73-6.09,6.09c0,3.37,2.73,6.1,6.09,6.1h67.59c3.36,0,6.09-2.73,6.09-6.1
		c0-3.36-2.73-6.09-6.09-6.09H272.36z"/>
	<path class="st6" d="M371.4,218.94c1.2,1.47,2.95,2.23,4.71,2.23c1.36,0,2.73-0.45,3.86-1.38c2.6-2.13,2.98-5.98,0.84-8.57
		l-43.73-53.35c-2.13-2.61-5.97-2.98-8.57-0.85c-2.6,2.13-2.98,5.97-0.85,8.57L371.4,218.94z"/>
	<path class="st6" d="M419.65,127c-3.31,0-6.03,2.66-6.09,5.99l-1.22,70.06c-0.05,3.36,2.62,6.13,5.99,6.19h0.11
		c3.31,0,6.03-2.66,6.09-5.99l1.21-70.05c0.06-3.36-2.61-6.14-5.98-6.2H419.65z"/>
	<path class="st6" d="M348.81,254.57c1.05-3.2-0.69-6.64-3.88-7.7l-62.8-20.65c-3.19-1.05-6.64,0.68-7.69,3.88
		c-1.05,3.19,0.69,6.64,3.88,7.69l62.8,20.66c0.63,0.21,1.27,0.31,1.9,0.31C345.58,258.75,347.97,257.13,348.81,254.57"/>
	<path class="st6" d="M461.75,221.13c1.1,0.83,2.4,1.25,3.68,1.25c1.84,0,3.66-0.83,4.86-2.41l40.85-53.7
		c2.04-2.68,1.51-6.5-1.16-8.54c-2.68-2.04-6.5-1.51-8.53,1.16l-40.86,53.7C458.55,215.27,459.07,219.1,461.75,221.13"/>
	<path class="st6" d="M495.14,263.2l66.98-20.82c3.22-1,5.02-4.41,4.02-7.63c-1-3.21-4.41-5-7.63-4l-66.98,20.81
		c-3.22,1-5,4.41-4.01,7.63c0.81,2.61,3.22,4.28,5.81,4.28C493.92,263.48,494.53,263.39,495.14,263.2"/>
	<path class="st6" d="M562.05,482.89h-17.29l-7.92-7.92l9.71-9.7c2.37-2.38,2.37-6.24,0-8.62c-2.37-2.37-6.24-2.37-8.62,0
		l-12.23,12.23h-65.47l-29.66-29.66h5.56h86.48h74.86c2.25,0,4.32-1.25,5.38-3.24c1.06-1.99,0.93-4.39-0.33-6.27l-80.67-119.68
		c-1.13-1.69-3.03-2.69-5.05-2.69s-3.92,1.01-5.05,2.69l-32.38,48.03l-19.53-28.99c14.07-11.6,23.06-29.17,23.06-48.8
		c0-34.87-28.36-63.23-63.24-63.23c-34.87,0-63.23,28.36-63.23,63.23c0,19.63,8.99,37.2,23.06,48.8l-19.54,28.99l-32.38-48.03
		c-1.13-1.69-3.02-2.69-5.05-2.69c-2.03,0-3.92,1.01-5.05,2.69l-80.68,119.68c-1.26,1.88-1.38,4.28-0.33,6.27
		c1.06,1.99,3.13,3.24,5.38,3.24h74.85h86.5h6.33l-29.66,29.66h-65.48l-12.22-12.23c-2.38-2.37-6.24-2.37-8.62,0
		c-2.37,2.38-2.37,6.24,0,8.62l9.7,9.7l-7.91,7.92h-17.29c-3.36,0-6.09,2.73-6.09,6.1c0,3.35,2.73,6.09,6.09,6.09h13.73v13.72
		c0,3.37,2.72,6.09,6.09,6.09c3.36,0,6.09-2.72,6.09-6.09v-17.29l10.44-10.44h61.68v11.43l-27.86,27.86H330.9
		c-3.36,0-6.09,2.72-6.09,6.09c0,3.36,2.73,6.09,6.09,6.09h13.73v13.72c0,3.36,2.72,6.1,6.09,6.1c3.36,0,6.09-2.73,6.09-6.1v-17.29
		l25.57-25.58l9.71,9.71c2.37,2.38,6.23,2.38,8.61,0c2.38-2.37,2.38-6.24,0-8.62l-12.46-12.46v-14.29l25.33-25.33v71.36
		l-23.13,23.13h-18.2c-3.36,0-6.09,2.72-6.09,6.09c0,3.36,2.73,6.09,6.09,6.09h13.73v13.73c0,3.36,2.73,6.09,6.09,6.09
		c3.36,0,6.09-2.73,6.09-6.09V556.4l15.42-15.42v42.38l-12.23,12.23c-2.38,2.37-2.38,6.23,0,8.62c1.29,1.28,3.01,1.85,4.69,1.74
		c1.69,0.11,3.41-0.46,4.7-1.74l9.32-9.32l9.31,9.32c1.19,1.19,2.74,1.78,4.3,1.78c0.13,0,0.26-0.03,0.39-0.04
		c0.14,0.01,0.27,0.04,0.4,0.04c1.56,0,3.11-0.59,4.31-1.78c2.37-2.38,2.37-6.24,0-8.62l-13.01-13.01v-42.37l16.19,16.19v16.39
		c0,3.36,2.73,6.09,6.09,6.09c3.37,0,6.1-2.73,6.1-6.09v-13.73h13.73c3.36,0,6.09-2.73,6.09-6.09c0-3.37-2.73-6.09-6.09-6.09h-18.2
		l-23.91-23.91v-71.36l26.1,26.11v14.29l-12.45,12.46c-2.38,2.38-2.38,6.24,0,8.62c2.37,2.38,6.24,2.38,8.61,0l9.7-9.71l25.58,25.58
		v17.29c0,3.36,2.73,6.1,6.09,6.1c3.36,0,6.1-2.73,6.1-6.1v-13.72h13.72c3.36,0,6.09-2.73,6.09-6.09c0-3.37-2.73-6.09-6.09-6.09
		h-17.29l-27.86-27.86v-11.43h61.67l10.45,10.44v17.29c0,3.37,2.72,6.09,6.09,6.09c3.36,0,6.09-2.72,6.09-6.09v-13.72h13.72
		c3.36,0,6.09-2.73,6.09-6.09C568.14,485.62,565.41,482.89,562.05,482.89 M447.57,427.03l31.79-47.17l31.79,47.17H447.57z
		 M516.79,324.33L586,427.03h-60.16l-39.14-58.07L516.79,324.33z M368.59,280.29c0-28.15,22.9-51.06,51.06-51.06
		s51.06,22.91,51.06,51.06c0,15.42-6.9,29.24-17.75,38.61l-28.25-41.92c-1.14-1.69-3.04-2.69-5.06-2.69c-2.02,0-3.91,1.01-5.05,2.69
		l-28.26,41.92C375.5,309.53,368.59,295.71,368.59,280.29 M442.85,325.71c-6.97,3.57-14.84,5.63-23.2,5.63s-16.24-2.06-23.2-5.63
		l23.2-34.43L442.85,325.71z M389.58,335.9c8.95,4.86,19.2,7.62,30.07,7.62s21.12-2.76,30.07-7.62l22.29,33.07l-39.14,58.07h-26.44
		l-39.15-58.07L389.58,335.9z M322.52,324.33l30.08,44.63l-39.14,58.07H253.3L322.52,324.33z M328.15,427.03l31.79-47.17
		l31.79,47.17H328.15z"/>
</g>
<g>
	<defs>
		<rect id="SVGID_5_" y="0.01" width="839.3" height="253.99"/>
	</defs>
	<clipPath id="SVGID_6_">
		<use xlink:href="#SVGID_5_"  style="overflow:visible;"/>
	</clipPath>
	<path class="st7" d="M0.01,223.25l12.82-17.74c2.74-3.79,5.93-6.21,9.59-7.24c4.28-1.36,8.48-0.69,12.63,2.03
		c5.89,4.26,7.83,10.03,5.79,17.32l27.09,3.09l-5.93,8.2l-25.53-3.75l-6.36,8.81l18.75,13.14l-4.99,6.9L0.01,223.25z M24.21,229.83
		l7.53-10.42c1.81-2.6,2.49-5.04,2.02-7.32c-0.39-2.18-1.53-3.94-3.44-5.27c-2.32-1.57-4.52-1.97-6.62-1.21
		c-1.74,0.54-3.41,1.91-5,4.11l-7.8,10.81L24.21,229.83z"/>
	<path class="st7" d="M69.14,178.77c-4.4-4.37-7.23-7.42-8.45-9.16c-1.21-1.76-1.96-3.41-2.28-4.9c-0.78-2.69-0.8-5.77-0.02-9.24
		c0.72-3.44,2.64-6.74,5.76-9.88c3.22-3.09,6.6-5.01,10.12-5.73c3.49-0.72,6.58-0.67,9.25,0.14c1.61,0.25,3.28,0.98,5.03,2.2
		c1.74,1.25,4.82,4.04,9.23,8.41c4.36,4.28,7.18,7.31,8.46,9.05c1.27,1.77,2.02,3.43,2.28,5.01c0.82,2.66,0.85,5.68,0.08,9.07
		c-0.74,3.46-2.68,6.8-5.79,10.01c-3.22,3.03-6.59,4.9-10.08,5.59c-3.48,0.81-6.59,0.81-9.33,0.02c-0.86-0.27-1.67-0.56-2.43-0.84
		c-0.76-0.32-1.63-0.81-2.59-1.47C76.57,185.83,73.49,183.06,69.14,178.77 M75.25,172.77c3.74,3.69,6.41,6.05,8.04,7.05
		c1.57,1.06,3.17,1.6,4.77,1.63c1.43,0.14,2.91-0.07,4.45-0.61c1.6-0.45,3.12-1.37,4.54-2.78c1.45-1.43,2.41-2.94,2.91-4.55
		c0.52-1.47,0.7-2.89,0.52-4.26c-0.03-1.59-0.56-3.17-1.59-4.77c-1.04-1.57-3.44-4.19-7.18-7.89c-3.74-3.69-6.42-6.08-8.05-7.15
		c-1.58-0.98-3.17-1.48-4.79-1.51c-1.39-0.19-2.84-0.03-4.37,0.45c-1.58,0.56-3.11,1.52-4.58,2.9c-1.4,1.45-2.36,2.92-2.89,4.43
		c-0.53,1.54-0.72,3.02-0.58,4.42c0.02,1.57,0.56,3.13,1.59,4.66C69.11,166.42,71.51,169.07,75.25,172.77"/>
	<path class="st7" d="M126.84,126.41c-3.64-5.01-5.9-8.48-6.82-10.4c-0.89-1.94-1.36-3.67-1.43-5.2c-0.32-2.79,0.19-5.83,1.53-9.12
		c1.28-3.28,3.73-6.22,7.33-8.81c3.69-2.54,7.34-3.88,10.92-4.02c3.56-0.14,6.6,0.4,9.11,1.65c1.54,0.5,3.07,1.49,4.6,2.98
		c1.5,1.5,4.07,4.76,7.71,9.78c3.57,4.93,5.84,8.38,6.83,10.29c0.96,1.95,1.43,3.72,1.4,5.32c0.36,2.76-0.11,5.74-1.44,8.97
		c-1.3,3.3-3.77,6.27-7.38,8.93c-3.69,2.47-7.32,3.77-10.88,3.9c-3.58,0.21-6.63-0.3-9.2-1.5c-0.82-0.4-1.57-0.82-2.28-1.21
		c-0.69-0.44-1.46-1.07-2.31-1.87C132.98,134.58,130.41,131.36,126.84,126.41 M133.86,121.48c3.06,4.26,5.32,7.02,6.74,8.27
		c1.38,1.3,2.86,2.08,4.44,2.39c1.38,0.36,2.86,0.4,4.47,0.11c1.66-0.17,3.31-0.85,4.95-1.99c1.68-1.19,2.89-2.53,3.63-4.03
		c0.77-1.36,1.17-2.73,1.23-4.12c0.23-1.57-0.02-3.21-0.77-4.96c-0.76-1.73-2.69-4.71-5.76-8.95c-3.07-4.25-5.33-7.03-6.76-8.34
		c-1.39-1.23-2.89-1.98-4.47-2.28c-1.34-0.39-2.81-0.48-4.39-0.27c-1.64,0.29-3.31,1-5,2.14c-1.63,1.2-2.81,2.49-3.58,3.9
		c-0.77,1.44-1.21,2.86-1.3,4.27c-0.23,1.56,0.02,3.18,0.81,4.85C128.86,114.22,130.8,117.23,133.86,121.48"/>
	<polygon class="st7" points="192.77,62.48 178.93,69.37 175.65,62.97 211.04,45.36 214.32,51.77 200.47,58.64 221.47,99.6 
		213.76,103.44 	"/>
	<polygon class="st7" points="292.8,15.97 301.68,14.25 317.8,49.54 317.95,49.51 321.36,10.43 327.47,9.26 345.6,44.15 
		345.76,44.12 347.15,5.43 356.04,3.71 352.53,58.45 345.49,59.82 327.4,24.37 327.24,24.38 324.1,63.97 317.07,65.33 	"/>
	<polygon class="st7" points="397.72,0.71 433.9,0 434.05,7.6 406.46,8.15 406.76,23.27 430.32,22.8 430.47,29.94 406.92,30.41 
		407.23,45.98 434.81,45.42 434.97,53.03 398.8,53.74 	"/>
	<polygon class="st7" points="476.15,2.57 484.67,3.67 478.66,48.73 506.02,52.27 505,59.81 469.13,55.17 	"/>
	<polygon class="st7" points="552.97,15.98 561.22,18.34 548.32,61.97 574.83,69.58 572.66,76.87 537.92,66.91 	"/>
	<polygon class="st7" points="627.78,40.96 635.07,44.41 641.57,89.34 641.73,89.4 658.34,55.45 666.07,59.13 642.7,106.92 
		635.37,103.43 628.9,58.53 628.77,58.46 612.16,92.43 604.41,88.75 	"/>
	<polygon class="st7" points="706.04,82.79 735.6,103.35 731.15,109.56 708.6,93.89 699.73,106.24 718.98,119.63 714.81,125.46 
		695.57,112.07 686.46,124.78 709,140.47 704.52,146.68 674.98,126.12 	"/>
	<path class="st7" d="M747.83,174.3c5.33,4.99,9.76,5.78,13.26,2.41c2.83-2.8,2.74-6.2-0.23-10.2c-1.43-1.78-3.01-3.73-4.69-5.86
		c-2.96-3.88-4.41-7.64-4.39-11.26c0.04-3.73,1.43-6.97,4.15-9.74c3.28-3.31,7.11-4.86,11.49-4.62c4.28,0.17,8.51,2.27,12.75,6.25
		c4.94,4.95,8.03,10.48,9.29,16.57l-8.13,1.46c-1.18-4.79-3.58-8.99-7.16-12.57c-1.88-1.81-3.91-2.89-6.05-3.21
		c-2.22-0.34-4.26,0.38-6.09,2.17c-1.07,1.1-1.62,2.52-1.57,4.28c0,1.78,0.84,3.8,2.5,6.07c0.95,1.24,2.27,2.91,3.98,4.98
		c3.32,4.14,4.88,8.12,4.63,11.94c-0.19,3.76-1.64,6.99-4.29,9.68c-7.39,7.06-15.79,6.18-25.19-2.65
		c-6.02-5.77-9.45-12.47-10.36-20.09l8.31-0.46C740.8,165.03,743.4,169.98,747.83,174.3"/>
	<path class="st7" d="M795.57,228.13c4.44,5.77,8.68,7.27,12.67,4.47c3.26-2.31,3.74-5.66,1.43-10.09
		c-1.12-1.97-2.33-4.15-3.67-6.51c-2.29-4.31-3.11-8.25-2.48-11.82c0.64-3.67,2.52-6.67,5.67-8.95c3.78-2.76,7.82-3.67,12.07-2.76
		c4.19,0.85,8.06,3.58,11.58,8.19c4.08,5.67,6.25,11.61,6.46,17.82l-8.25,0.15c-0.39-4.91-2.06-9.43-5.01-13.53
		c-1.58-2.1-3.39-3.48-5.44-4.13c-2.17-0.7-4.28-0.3-6.39,1.17c-1.24,0.9-1.99,2.23-2.26,3.98c-0.28,1.77,0.22,3.89,1.49,6.39
		c0.74,1.37,1.77,3.23,3.11,5.54c2.62,4.61,3.51,8.78,2.66,12.52c-0.83,3.68-2.76,6.63-5.84,8.87c-8.44,5.81-16.59,3.61-24.43-6.58
		c-5.01-6.66-7.32-13.81-6.95-21.48l8.27,0.87C790.15,217.89,791.9,223.17,795.57,228.13"/>
</g>
</svg>
