<?xml version="1.0" encoding="utf-8"?>
<!-- Generator: Adobe Illustrator 24.1.2, SVG Export Plug-In . SVG Version: 6.00 Build 0)  -->
<svg version="1.1" id="Layer_1" xmlns="http://www.w3.org/2000/svg" xmlns:xlink="http://www.w3.org/1999/xlink" x="0px" y="0px"
	 viewBox="0 0 920.8 182.9" style="enable-background:new 0 0 920.8 182.9;" xml:space="preserve">
<style type="text/css">
	.st0{fill:#00181D;}
	.st1{fill:#FFB300;}
	.st2{fill:#00FFEF;}
</style>
<g>
	<path class="st0" d="M168.4,51.8h49.7c8.3,0,14.6,2.1,19.1,6.2c4.4,4.1,6.7,9.2,6.7,15.2c0,5.1-1.6,9.4-4.7,13.1
		c-2.1,2.4-5.2,4.3-9.3,5.7c6.2,1.5,10.7,4,13.6,7.7c2.9,3.6,4.4,8.2,4.4,13.6c0,4.5-1,8.5-3.1,12c-2.1,3.6-4.9,6.4-8.5,8.4
		c-2.2,1.3-5.6,2.2-10.1,2.8c-6,0.8-9.9,1.2-11.9,1.2h-45.9V51.8z M195.2,85.5h11.6c4.1,0,7-0.7,8.6-2.1c1.6-1.4,2.4-3.5,2.4-6.2
		c0-2.5-0.8-4.5-2.4-5.9c-1.6-1.4-4.4-2.1-8.5-2.1h-11.7V85.5z M195.2,119.3h13.5c4.6,0,7.8-0.8,9.7-2.4c1.9-1.6,2.8-3.8,2.8-6.5
		c0-2.5-0.9-4.6-2.8-6.1c-1.9-1.5-5.1-2.3-9.8-2.3h-13.5V119.3z"/>
</g>
<g>
	<path class="st0" d="M314.7,51.8h26.5V103c0,5.1-0.8,9.9-2.4,14.4c-1.6,4.5-4.1,8.5-7.4,11.8c-3.4,3.4-6.9,5.8-10.6,7.1
		c-5.2,1.9-11.4,2.9-18.6,2.9c-4.2,0-8.7-0.3-13.7-0.9c-4.9-0.6-9.1-1.7-12.4-3.5c-3.3-1.7-6.4-4.2-9.1-7.4
		c-2.8-3.2-4.6-6.5-5.7-9.9c-1.6-5.5-2.5-10.3-2.5-14.5V51.8h26.5v52.4c0,4.7,1.3,8.3,3.9,11c2.6,2.6,6.2,4,10.8,4
		c4.6,0,8.2-1.3,10.8-3.9c2.6-2.6,3.9-6.3,3.9-11V51.8z"/>
	<path class="st0" d="M350.1,51.8h29.5l17.3,29l17.4-29h29.3l-33.4,50v36h-26.6v-36L350.1,51.8z"/>
</g>
<g>
	<path class="st0" d="M443.1,137.7l27.2-86h10l28.9,86h-10.7l-8.2-26h-29.7l-7.7,26H443.1z M463.4,102.4h24l-7.3-23.8
		c-2.3-7.3-3.9-13.3-5-17.8c-0.9,5.5-2.2,11-3.9,16.4L463.4,102.4z"/>
	<path class="st0" d="M516.3,137.7v-86h9.6l37.1,67.6V51.8h8.9v86h-9.6l-37-67.6v67.6H516.3z"/>
	<path class="st0" d="M607.4,137.7v-36.4l-27.1-49.5h11.4l13.8,25.9c2.7,5.1,5.1,10,7.2,14.6c2.1-4.5,4.6-9.6,7.7-15.2l13.7-25.3
		h10.8l-28.1,49.5v36.4H607.4z"/>
</g>
<g>
	<path class="st0" d="M711.8,102.5l23.3,7c-1.6,6.5-4,12-7.4,16.4c-3.4,4.4-7.5,7.7-12.5,9.9c-5,2.2-11.3,3.3-19,3.3
		c-9.3,0-17-1.4-22.9-4.1c-5.9-2.7-11-7.5-15.3-14.3c-4.3-6.8-6.5-15.6-6.5-26.3c0-14.2,3.8-25.1,11.3-32.8
		c7.6-7.6,18.3-11.5,32.1-11.5c10.8,0,19.3,2.2,25.5,6.6c6.2,4.4,10.8,11.1,13.8,20.2l-23.5,5.2c-0.8-2.6-1.7-4.5-2.6-5.7
		c-1.5-2-3.3-3.6-5.5-4.7c-2.2-1.1-4.6-1.6-7.2-1.6c-6,0-10.6,2.4-13.8,7.3c-2.4,3.6-3.6,9.2-3.6,16.9c0,9.5,1.4,16.1,4.3,19.6
		c2.9,3.5,7,5.3,12.2,5.3c5.1,0,8.9-1.4,11.5-4.3C708.7,112.1,710.6,108,711.8,102.5z"/>
	<path class="st0" d="M748,51.8h49.7c8.3,0,14.6,2.1,19.1,6.2c4.4,4.1,6.7,9.2,6.7,15.2c0,5.1-1.6,9.4-4.8,13.1
		c-2.1,2.4-5.2,4.3-9.3,5.7c6.2,1.5,10.7,4,13.6,7.7c2.9,3.6,4.4,8.2,4.4,13.6c0,4.5-1,8.5-3.1,12c-2.1,3.6-4.9,6.4-8.5,8.4
		c-2.2,1.3-5.6,2.2-10.1,2.8c-6,0.8-9.9,1.2-11.9,1.2H748V51.8z M774.8,85.5h11.6c4.1,0,7-0.7,8.6-2.1c1.6-1.4,2.4-3.5,2.4-6.2
		c0-2.5-0.8-4.5-2.4-5.9c-1.6-1.4-4.4-2.1-8.5-2.1h-11.7V85.5z M774.8,119.3h13.5c4.6,0,7.8-0.8,9.7-2.4c1.9-1.6,2.8-3.8,2.8-6.5
		c0-2.5-0.9-4.6-2.8-6.1c-1.9-1.5-5.1-2.3-9.8-2.3h-13.5V119.3z"/>
	<path class="st0" d="M841.7,51.8h39.5c7.8,0,14.1,1.1,18.9,3.2s8.7,5.1,11.9,9.1c3.1,3.9,5.4,8.5,6.8,13.8
		c1.4,5.2,2.1,10.8,2.1,16.7c0,9.2-1,16.3-3.1,21.4c-2.1,5.1-5,9.3-8.7,12.7c-3.7,3.4-7.7,5.7-12,6.8c-5.8,1.6-11.1,2.3-15.8,2.3
		h-39.5V51.8z M868.3,71.2v47h6.5c5.5,0,9.5-0.6,11.8-1.8c2.3-1.2,4.2-3.4,5.5-6.5c1.3-3.1,2-8,2-14.9c0-9.1-1.5-15.3-4.5-18.7
		c-3-3.4-7.9-5-14.8-5H868.3z"/>
</g>
<g>
	<path class="st1" d="M104.8,154.7L73.6,93l28.1-93l30.6,91.7L104.8,154.7z M84.3,92l19.8,39.2l17.5-40L102.2,33L84.3,92z"/>
</g>
<g>
	<path class="st2" d="M109.1,182.9l-86.6-43.3L0,73.9l63.3,23.4L109.1,182.9z M30.6,132.5l54.8,27.4l-29.2-54.5l-40-14.8L30.6,132.5
		z"/>
</g>
</svg>
